<?xml version="1.0" encoding="UTF-8"?> <svg xmlns="http://www.w3.org/2000/svg" viewBox="0 0 48.01 45.85"><path d="M17.74 6.19H1.04C.41 6.19 0 6.61 0 7.23v16.7c0 .63.42 1.04 1.04 1.04h16.7c.63 0 1.04-.42 1.04-1.04V7.23c0-.63-.42-1.04-1.04-1.04Zm-1.04 16.7H2.08V8.28h14.61v14.61h.01Zm1.04 4.17H1.04c-.63 0-1.04.42-1.04 1.05v16.7c0 .63.42 1.04 1.04 1.04h16.7c.63 0 1.04-.42 1.04-1.04v-16.7c0-.63-.42-1.04-1.04-1.04ZM16.7 43.75H2.08V29.14h14.61v14.61h.01Zm21.92-16.7H21.91c-.63 0-1.04.42-1.04 1.04v16.7c0 .63.42 1.04 1.04 1.04h16.7c.63 0 1.04-.42 1.04-1.04V28.11c0-.63-.42-1.04-1.04-1.04h.01Zm-1.04 16.69H22.97V29.13h14.61v14.61Zm9.9-35.25L32.98.14c-.52-.31-1.15-.1-1.46.42l-8.35 14.51c-.31.52-.1 1.15.42 1.46l14.51 8.35c.52.31 1.15.1 1.46-.42l8.35-14.51c.21-.52.1-1.15-.42-1.46h-.01Zm-9.29 13.98-12.63-7.31 7.31-12.63L45.5 9.84l-7.31 12.63Z" fill="#8194dd"></path></svg> 