<?xml version="1.0" encoding="UTF-8"?> <svg xmlns="http://www.w3.org/2000/svg" viewBox="0 0 512 512"><path d="M61.77 505.77c4.97 2.33 10.9 1.59 15.13-1.9l33.96-28.35 40.83 33.01.11.11c5.18 4.13 12.48 4.02 17.67 0l.11-.11 40.41-33.01 40.41 33.01.11.11a14.149 14.149 0 0 0 17.67 0l.11-.11 40.83-33.01 33.96 28.35c4.23 3.49 10.16 4.23 15.23 1.9 4.76-2.12 7.83-6.77 7.83-11.95v-55.33l23.06 19.36c2.54 2.12 5.71 3.28 8.99 3.28 2.01 0 4.02-.42 5.82-1.38 4.65-2.12 7.62-6.88 7.51-11.95v-55.33l23.38 19.36c2.54 2.12 5.82 3.28 9.2 3.28 2.12 0 4.23-.42 6.14-1.38 4.76-2.12 7.83-6.77 7.83-11.95V37.87c0-20.73-18.3-37.87-40.73-37.87H186.71c-22.32 0-40.73 17.24-40.73 37.87v8.67h-5.29c-22.43 0-40.2 16.71-40.2 37.45v8.04h-5.82c-22.43 0-40.73 17.35-40.73 38.08v363.71c0 5.18 3.07 9.84 7.83 11.95Zm101.14-467.9c0-11.43 10.79-20.95 23.91-20.95h230.62c13.12 0 23.8 9.63 23.8 20.95v356.72l-29.62-24.33V84c0-20.73-17.77-37.45-40.2-37.45H162.91v-8.67Zm-45.49 46.12c0-11.43 10.26-20.52 23.27-20.52h230.62c13.12 0 23.27 9.1 23.27 20.52v356.72l-28.56-24.33V130.12c0-20.73-18.41-38.08-40.83-38.08H117.42V84Zm-46.55 46.12c0-11.43 10.68-21.16 23.8-21.16h230.62c13.12 0 23.91 9.73 23.91 21.16v356.73l-30.89-25.71-.11-.11c-5.18-4.23-12.59-4.23-17.77-.11 0 0-.11 0-.11.11l-40.94 33.01-40.41-33.01-.11-.11a14.149 14.149 0 0 0-17.67 0l-.11.11-40.41 33.01-40.94-33.01-.11-.11c-5.18-4.13-12.59-4.02-17.77.11l-.11.11-30.89 25.6V130.12Z" fill="#8194dd"></path><path d="M143.44 412.57h132.98c4.65 0 8.46-3.81 8.46-8.46s-3.81-8.46-8.46-8.46H143.44c-4.65 0-8.46 3.81-8.46 8.46s3.81 8.46 8.46 8.46Zm66.44-94.47c-16.29 0-29.51-13.22-29.62-29.62 0-4.65-3.81-8.46-8.46-8.46s-8.46 3.81-8.46 8.46c0 21.37 14.7 40.09 35.44 45.17v15.45c0 4.65 3.81 8.46 8.46 8.46s8.46-3.81 8.46-8.46v-14.39c25.5-3.28 43.48-26.55 40.31-52.05-2.96-23.27-22.74-40.62-46.12-40.62-16.29 0-29.62-13.22-29.62-29.62 0-15.23 11.64-28.03 26.87-29.51h.21c.42 0 .85 0 1.27-.11h1.27c16.29 0 29.51 13.22 29.62 29.62 0 4.65 3.81 8.46 8.46 8.46s8.46-3.81 8.46-8.46c0-23.38-17.46-43.16-40.62-46.12v-12.91c0-4.65-3.81-8.46-8.46-8.46s-8.46 3.81-8.46 8.46v13.86c-24.97 6.14-40.2 31.21-34.17 56.17 5.08 20.84 23.8 35.44 45.17 35.44 16.29.11 29.51 13.44 29.41 29.73S226.18 318 209.89 318.1Z" fill="#8194dd"></path></svg> 