<?xml version="1.0" encoding="UTF-8"?> <svg xmlns="http://www.w3.org/2000/svg" viewBox="0 0 48 48"><path fill="#8194dd" d="M26 48h-4c-1.7 0-3-1.3-3-3v-3.7c-1.3-.4-2.5-.9-3.7-1.5l-2.6 2.6c-1.1 1.1-3.1 1.1-4.2 0l-2.8-2.8c-.7-.6-1-1.4-1-2.2s.3-1.6.9-2.1l2.6-2.6C7.6 31.5 7 30.3 6.7 29H3c-1.7 0-3-1.3-3-3v-4c0-.8.3-1.6.9-2.1.5-.6 1.3-.9 2.1-.9h3.7c.4-1.3.9-2.5 1.5-3.7l-2.6-2.6c-1.2-1.2-1.2-3.1 0-4.2l2.8-2.8c1.1-1.1 3.1-1.1 4.2 0l2.6 2.6c1.2-.6 2.4-1.2 3.7-1.5V3c0-1.7 1.3-3 3-3h4c1.7 0 3 1.3 3 3v3.7c1.3.4 2.5.9 3.7 1.5l2.6-2.6c1.1-1.1 3.1-1.1 4.2 0l2.8 2.8c.6.6.9 1.3.9 2.1s-.3 1.6-.9 2.1l-2.6 2.6c.6 1.2 1.2 2.4 1.5 3.7H45c1.7 0 3 1.3 3 3v4c0 .8-.3 1.6-.9 2.1s-1.3 1-2.1 1h-3.7c-.4 1.3-.9 2.5-1.5 3.7l2.6 2.6c1.2 1.2 1.2 3.1 0 4.2l-2.8 2.8c-1.1 1.1-3.1 1.1-4.2 0l-2.6-2.6c-1.2.6-2.4 1.2-3.7 1.5V45c-.1 1.7-1.4 3-3.1 3zM15.2 37.5c.2 0 .4 0 .5.1 1.4.9 2.9 1.5 4.6 1.9.4.1.8.5.8 1V45c0 .6.4 1 1 1h4c.6 0 1-.4 1-1v-4.5c0-.5.3-.9.8-1 1.6-.4 3.1-1 4.6-1.9.4-.2.9-.2 1.2.1l3.2 3.2c.4.4 1 .4 1.4 0l2.8-2.8c.4-.4.4-1 0-1.4l-3.2-3.2c-.3-.3-.4-.8-.1-1.2.9-1.4 1.5-2.9 1.9-4.6.1-.4.5-.8 1-.8H45c.6 0 1-.4 1-1v-4c0-.6-.4-1-1-1h-4.5c-.5 0-.9-.3-1-.8-.4-1.6-1-3.1-1.9-4.6-.2-.4-.2-.9.1-1.2l3.2-3.2c.2-.2.3-.4.3-.7s0-.4-.2-.5L38.1 7c-.4-.4-1-.4-1.4 0l-3.2 3.2c-.3.3-.8.4-1.2.1-1.4-.9-2.9-1.5-4.6-1.9-.4 0-.7-.4-.7-.9V3c0-.6-.4-1-1-1h-4c-.6 0-1 .4-1 1v4.5c0 .5-.3.9-.8 1-1.6.4-3.1 1-4.6 1.9-.4.2-.9.2-1.2-.1L11.3 7c-.4-.4-1-.4-1.4 0L7 9.9c-.4.4-.4 1 0 1.4l3.2 3.2c.3.3.4.8.1 1.2-.9 1.4-1.5 2.9-1.9 4.6 0 .4-.4.7-.9.7H3c-.6 0-1 .4-1 1v4c0 .6.4 1 1 1h4.5c.5 0 .9.3 1 .8.4 1.6 1 3.1 1.9 4.6.2.4.2.9-.1 1.2L7 36.7c-.2.2-.3.4-.3.7s.1.6.3.7L9.9 41c.4.4 1 .4 1.4 0l3.2-3.2c.1-.2.4-.3.7-.3z"></path><path fill="#8194dd" d="M24 34c-5.5 0-10-4.5-10-10s4.5-10 10-10 10 4.5 10 10-4.5 10-10 10zm0-18c-4.4 0-8 3.6-8 8s3.6 8 8 8 8-3.6 8-8-3.6-8-8-8z"></path></svg> 