<?xml version="1.0" encoding="UTF-8"?> <svg xmlns="http://www.w3.org/2000/svg" viewBox="0 0 48 48"><path d="M44.26 19.84c-1.68-8.06-7.94-14.32-16-16.11-.34-2.34-2.58-4.02-4.93-3.69-1.9.22-3.36 1.79-3.69 3.69C11.7 5.52 5.43 11.79 3.76 19.84c-2.35.22-4.14 2.46-3.8 4.81.22 2.01 1.9 3.58 3.92 3.8a21.011 21.011 0 0 0 15.77 15.77c.22 2.35 2.24 4.14 4.59 4.03 2.13-.11 3.8-1.9 4.03-4.03 7.94-1.79 14.1-7.94 15.89-15.77a4.235 4.235 0 0 0 3.8-4.81c-.11-1.9-1.68-3.58-3.69-3.8ZM24.01 1.83c1.45 0 2.69 1.23 2.69 2.69s-1.23 2.69-2.69 2.69-2.69-1.23-2.69-2.69c0-1.57 1.23-2.69 2.69-2.69Zm-3.69 4.92c1.23 2.01 3.92 2.69 5.93 1.45 1.01-.56 1.68-1.57 2.01-2.69 6.82 1.57 12.19 6.71 14.1 13.43-2.57-2.13-5.59-3.69-8.84-4.36-.56-1.9-1.23-3.8-2.24-5.59-.22-.34-.67-.56-1.12-.34-.34.22-.56.67-.34 1.12.78 1.34 1.34 2.91 1.79 4.36-2.46-.45-4.92-.67-7.5-.67s-5.26.22-7.83.78c.78-2.8 2.13-5.37 4.03-7.5Zm12.75 17.56c0 2.69-.34 5.37-.9 7.94-2.69.67-5.48.9-8.39.9-2.69 0-5.37-.34-7.94-.9-.67-2.69-1.01-5.48-.9-8.39 0-2.69.34-5.37.9-7.94 2.69-.67 5.48-1.01 8.39-1.01 2.69 0 5.37.34 7.94.9.56 2.8.9 5.59.9 8.5ZM18.97 5.64c-2.24 2.57-3.8 5.59-4.59 8.95-2.01.56-3.92 1.23-5.71 2.24-.34.22-.56.67-.34 1.12.22.34.67.56 1.12.34 1.45-.78 2.91-1.34 4.36-1.79-.45 2.46-.67 4.92-.67 7.5s.22 5.26.78 7.83c-2.8-.67-5.37-2.13-7.5-4.03 2.01-1.23 2.69-3.92 1.34-5.93-.56-.9-1.45-1.57-2.46-1.9 1.68-6.94 6.82-12.42 13.65-14.32ZM1.63 24.1c0-1.45 1.23-2.69 2.69-2.69s2.69 1.23 2.69 2.69-1.23 2.69-2.69 2.69-2.69-1.12-2.69-2.69Zm22.38 22.38c-1.45 0-2.69-1.23-2.69-2.69s1.23-2.69 2.69-2.69 2.69 1.23 2.69 2.69c0 1.57-1.23 2.69-2.69 2.69Zm3.69-4.92c-1.23-2.01-3.92-2.69-5.93-1.45-.9.56-1.57 1.45-1.9 2.46-6.71-1.45-12.08-6.49-14.1-13.09 2.46 2.13 5.48 3.58 8.73 4.25.56 1.9 1.23 3.8 2.24 5.59.11.22.45.45.67.45.45 0 .78-.34.9-.78 0-.11 0-.34-.11-.45-.78-1.34-1.34-2.91-1.79-4.36 2.46.45 4.92.67 7.5.67s5.26-.22 7.83-.78c-.67 2.8-2.13 5.37-4.03 7.5Zm1.79.67c2.01-2.46 3.47-5.37 4.14-8.5 1.9-.56 3.8-1.23 5.59-2.24.34-.22.56-.67.34-1.12-.22-.34-.67-.56-1.12-.34-1.34.67-2.8 1.34-4.36 1.79.45-2.46.67-4.92.67-7.5s-.22-5.26-.78-7.83c2.8.67 5.37 2.13 7.5 4.03-2.01 1.23-2.69 3.92-1.45 5.93.56.9 1.45 1.57 2.46 1.9A19.138 19.138 0 0 1 29.5 42.22ZM43.7 26.79c-1.45 0-2.69-1.23-2.69-2.69s1.23-2.69 2.69-2.69 2.69 1.23 2.69 2.69c0 1.57-1.23 2.69-2.69 2.69Z" fill="#8194dd"></path></svg> 