<?xml version="1.0" encoding="UTF-8"?> <svg xmlns="http://www.w3.org/2000/svg" viewBox="0 0 24 24"><path d="M22.19 16.8h-4.8c-.36 0-.6.24-.6.6s.24.6.6.6h3.6c-2.04 3-5.28 4.8-8.99 4.8-6 0-10.79-4.8-10.79-10.79 0-.6 0-1.08.12-1.68 0-.36-.12-.6-.48-.72-.36 0-.6.12-.72.48-.12.6-.12 1.32-.12 1.92C0 18.6 5.4 23.99 12 23.99c3.84 0 7.31-1.8 9.59-4.8v3c0 .36.24.6.6.6s.6-.24.6-.6v-4.8c0-.36-.24-.6-.6-.6ZM17.64 1.45C12.36-1.43 5.88.13 2.41 4.81v-3c0-.36-.24-.6-.6-.6s-.6.24-.6.6V6.6c0 .36.24.6.6.6H6.6c.36 0 .6-.24.6-.6S6.96 6 6.6 6H3.01C5.05 3.01 8.4 1.21 12 1.21c6 0 10.79 4.8 10.79 10.79 0 .6 0 1.08-.12 1.68 0 .36.12.6.48.72h.12c.24 0 .6-.24.6-.48.12-.6.12-1.32.12-1.92 0-4.44-2.4-8.51-6.36-10.55ZM15.6 12c0-2.04-1.56-3.6-3.6-3.6S8.4 9.96 8.4 12s1.56 3.6 3.6 3.6 3.6-1.56 3.6-3.6Zm-6 0c0-1.32 1.08-2.4 2.4-2.4s2.4 1.08 2.4 2.4-1.08 2.4-2.4 2.4-2.4-1.08-2.4-2.4Z" fill="#8194dd"></path></svg> 