<?xml version="1.0" encoding="UTF-8"?> <svg xmlns="http://www.w3.org/2000/svg" viewBox="0 0 120 119.99"><path fill="#8194dd" d="m96.3 38-3.6-4.8-9 6.8 3.6 4.8Zm11.7-2a12 12 0 0 0 6.71-2 12.11 12.11 0 0 0 3.29-3.29A12 12 0 0 0 101.29 14 12.25 12.25 0 0 0 98 17.29 12 12 0 0 0 108 36Zm0-18a6 6 0 1 1-6 6 6 6 0 0 1 6-6ZM18.71 47.05a12 12 0 0 0-13.42 0A12.22 12.22 0 0 0 2 50.29a12 12 0 1 0 19.92 0 12.22 12.22 0 0 0-3.25-3.24ZM12 63a6 6 0 1 1 6-6 6 6 0 0 1-6 6Zm16.5-3h9v-6h-9Zm88 15.51a12 12 0 0 0-15.2-1.46 11.48 11.48 0 0 0-1.71 1.4L82.37 65.12A21 21 0 0 0 63 36a21.15 21.15 0 0 0-6 1l-7.41-15.79A11.91 11.91 0 0 0 52 5.29 12.25 12.25 0 0 0 48.71 2a12.06 12.06 0 0 0-13.42 0A12.25 12.25 0 0 0 32 5.29 12 12 0 0 0 42 24a12.13 12.13 0 0 0 2.19-.22l7.32 15.67A21 21 0 1 0 79.2 70.22l17.32 10.39A12.31 12.31 0 0 0 96 84a12 12 0 0 0 12 12 11.88 11.88 0 0 0 6.73-2A12 12 0 0 0 118 77.29a13.37 13.37 0 0 0-1.51-1.78ZM42 18a6 6 0 1 1 6-6 6 6 0 0 1-6 6Zm21 54a15 15 0 1 1 15-15 15 15 0 0 1-15 15Zm45 18a6 6 0 1 1 6-6 6 6 0 0 1-6 6Zm-45.75 6a12 12 0 0 0-6.71 2 12.11 12.11 0 0 0-3.25 3.25 12.06 12.06 0 0 0 0 13.42 12.25 12.25 0 0 0 3.25 3.33 12 12 0 1 0 6.71-22Zm0 18a6 6 0 1 1 6-6 6 6 0 0 1-6 6Zm-3-31.5v9h6v-9"></path></svg> 