<?xml version="1.0" encoding="UTF-8"?> <svg xmlns="http://www.w3.org/2000/svg" viewBox="0 0 64 64"><path d="m55.14 9.96-.11-.11C49.08 3.67 40.81.15 32.22.04H32c-8.71 0-16.98 3.52-22.93 9.81l-.22.11v.11c-11.68 12.34-11.68 31.63 0 43.87 11.68 12.23 0 0 .11.11 12.12 12.79 32.29 13.23 45.08 1.1l1.1-1.1s.11 0 .11-.11c11.68-12.23 11.68-31.52-.11-43.98q0 .11 0 0Zm-.99 41.88c-2.76-1.98-5.73-3.64-8.93-4.85 1.87-4.41 2.87-9.15 3.09-13.89h13.45c-.33 6.94-2.98 13.56-7.61 18.74Zm-44.31 0C5.21 46.66 2.57 40.05 2.23 33.1h13.45c.22 4.74 1.21 9.48 2.98 13.89-3.09 1.21-6.06 2.87-8.82 4.85Zm0-39.68c2.76 2.09 5.84 3.75 9.04 4.85-1.87 4.41-2.98 9.15-3.2 13.89H2.24c.33-6.94 2.98-13.56 7.61-18.74ZM33.1 61.1V46.88c3.09.11 6.17.55 9.15 1.43-2.2 4.85-5.29 9.15-9.15 12.79ZM30.89 3.12v14c-3.09-.11-6.06-.55-8.93-1.43 2.09-4.74 5.18-9.04 8.93-12.56Zm-9.92 14.55c3.2.99 6.5 1.54 9.92 1.54v11.68h-12.9c.22-4.52 1.21-9.04 2.98-13.23Zm9.92 15.43v11.57c-3.42.11-6.72.66-10.03 1.65-1.76-4.19-2.76-8.71-2.87-13.23h12.9Zm12.23 13.23c-3.2-.99-6.61-1.54-10.03-1.65V33.11h12.9c-.11 4.52-1.1 9.04-2.87 13.23ZM33.09 30.9V19.33c3.31-.11 6.72-.66 9.92-1.54 1.76 4.19 2.87 8.6 2.98 13.23l-12.9-.11Zm0-13.78V3.01c3.75 3.64 6.83 7.94 9.04 12.68-2.98.88-5.95 1.32-9.04 1.43Zm-13.23-2.09c-2.98-1.1-5.84-2.54-8.49-4.41 4.64-4.52 10.6-7.28 16.99-8.05-3.53 3.53-6.39 7.83-8.49 12.45Zm11.02 31.85v14.11a41.498 41.498 0 0 1-9.15-12.68c2.98-.77 6.06-1.32 9.15-1.43Zm13.45 2.2c2.98 1.1 5.73 2.54 8.27 4.41-4.63 4.41-10.47 7.27-16.75 8.05 3.53-3.64 6.39-7.83 8.49-12.45Zm3.97-18.19c-.22-4.74-1.32-9.48-3.2-13.89 3.2-1.21 6.28-2.87 9.04-4.85 4.63 5.18 7.38 11.79 7.61 18.74H48.3Zm4.3-20.39c-2.54 1.87-5.4 3.42-8.38 4.41-2.09-4.63-5.07-8.82-8.49-12.56 6.28.88 12.23 3.75 16.86 8.16ZM11.38 53.49c2.54-1.87 5.29-3.31 8.27-4.41 2.09 4.63 4.96 8.82 8.49 12.45-6.28-.88-12.12-3.64-16.75-8.05Z" fill="#8194dd"></path></svg> 