<?xml version="1.0" encoding="UTF-8"?> <svg xmlns="http://www.w3.org/2000/svg" viewBox="0 0 50 50"><path d="M8.33 50h33.34v-4.17H50v-12.5c0-6.04-4.06-11.25-9.58-12.92 2.6-1.67 4.38-4.58 4.38-7.92 0-5.21-4.17-9.38-9.38-9.38-.94 0-1.77.1-2.6.42-1.98-2.19-4.69-3.54-7.81-3.54s-5.83 1.35-7.81 3.54c-.83-.31-1.67-.42-2.6-.42-5.21 0-9.38 4.17-9.38 9.38 0 3.33 1.77 6.25 4.37 7.92C4.06 22.08 0 27.29 0 33.33v12.5h8.33V50Zm31.25-2.08H10.42V32.3c0-.31 0-.73.1-1.04v-.31c0-.21.1-.42.1-.73 0-.1 0-.21.1-.31.1-.31.1-.63.21-.83 0-.1.1-.31.1-.42.1-.31.21-.63.42-.94.1-.1.1-.31.21-.42l.31-.63c.1-.21.21-.31.31-.52.1-.1.21-.31.31-.42s.21-.31.31-.42l.31-.31.42-.42c.31-.31.63-.63.94-.83l.31-.31c.1-.1.31-.21.42-.31.1-.1.31-.21.42-.31.1-.1.31-.21.42-.21.31-.21.52-.31.83-.42.1-.1.31-.1.42-.21l.21-.1c1.35-.63 2.92-.83 4.37-.83h6.25c1.56 0 3.02.31 4.38.83l.21.1c.1.1.31.1.42.21.31.1.52.31.83.42.1.1.31.21.42.21.31.21.52.42.83.63l.31.31c.31.31.62.52.94.83l.42.42c.21.21.42.52.62.73.1.1.21.21.31.42.21.42.42.73.62 1.15.1.1.1.31.21.42.1.31.31.63.42.94 0 .1.1.31.1.42.1.31.21.63.21.83 0 .1 0 .21.1.31.1.73.21 1.35.21 2.08v15.62h-.21Zm8.33-14.58v10.42h-6.25V32.3c0-.52 0-.94-.1-1.46v-.31c0-.42-.1-.73-.21-1.15 0-.1-.1-.21-.1-.31-.1-.31-.21-.73-.31-1.04 0-.1-.1-.21-.1-.31-.1-.31-.21-.63-.42-1.04-.1-.1-.1-.21-.21-.31-.42-.73-.83-1.46-1.25-2.08-.1-.1-.1-.21-.21-.31-.21-.31-.52-.52-.73-.83l-.21-.21c-.31-.31-.62-.63-1.04-.94 6.15.1 11.15 5.1 11.15 11.35ZM34.06 5.31c.42-.1.94-.1 1.35-.1 4.06 0 7.29 3.23 7.29 7.29s-3.23 7.29-7.29 7.29c-1.46 0-2.81-.42-3.96-1.15.94-.73 1.67-1.56 2.29-2.5l.1-.1c.21-.31.31-.63.52-.94l.1-.1c.1-.31.31-.63.42-.94l.1-.21.31-.94q0-.1.1-.21c.1-.31.1-.63.21-.94v-.21c0-.42.1-.73.1-1.15s0-.83-.1-1.25c0-.1 0-.21-.1-.42-.1-.42-.1-.83-.31-1.25-.1-.31-.21-.62-.31-.83 0-.1-.1-.21-.1-.21-.31-.42-.52-.73-.73-1.15Zm-2.6-.21c.1.1.21.21.21.31.52.73.94 1.46 1.25 2.29q0 .1.1.1c.1.42.21.73.31 1.15v1.46c0 .31 0 .73-.1 1.04v.21c0 .31-.1.52-.21.83v.21c-.21.63-.42 1.35-.83 1.88-.21.31-.31.52-.52.83l-.1.1c-.42.52-.94 1.04-1.46 1.46l-.1.1c-.21.21-.52.42-.83.52l-.1.1h-.1c-1.15.63-2.5 1.04-3.96 1.04s-2.81-.31-3.96-1.04h-.1l-.1-.1c-.31-.21-.52-.31-.83-.52l-.1-.1c-.52-.42-1.04-.94-1.46-1.46l-.1-.1c-.21-.31-.42-.52-.52-.83-.31-.63-.63-1.25-.83-1.88v-.21c-.1-.31-.1-.52-.21-.83v-.21c0-.31-.1-.63-.1-1.04s0-.83.1-1.25v-.21c.1-.42.21-.73.31-1.15q0-.1.1-.1c.31-.83.73-1.56 1.25-2.29 0-.1.1-.1.1-.21l.1-.1c2.92-3.54 8.13-4.06 11.67-1.15.42.31.73.73 1.15 1.15ZM7.29 12.5c0-4.06 3.23-7.29 7.29-7.29.42 0 .94 0 1.35.1-.21.31-.42.73-.52 1.15 0 .1-.1.21-.1.21-.21.42-.31.83-.42 1.25-.1.31-.1.52-.21.83 0 .1 0 .21-.1.42 0 .42-.1.83-.1 1.25s0 .73.1 1.15v.21c0 .31.1.63.21.94q0 .1.1.21l.31.94q0 .1.1.21c.1.31.21.63.42.94l.1.1c.1.31.31.63.52.94l.1.1c.63.94 1.35 1.87 2.29 2.5-1.35.73-2.71 1.15-4.17 1.15-4.06 0-7.29-3.23-7.29-7.29ZM2.08 43.75V33.33c0-6.25 5-11.25 11.15-11.46-.31.31-.73.63-1.04.94l-.21.21c-.21.31-.52.52-.73.83-.1.1-.1.21-.21.31-.31.42-.52.73-.83 1.15-.21.31-.31.63-.52.94-.1.1-.1.21-.21.31-.1.31-.31.63-.42 1.04 0 .1-.1.21-.1.31-.1.31-.21.73-.31 1.04 0 .1-.1.21-.1.31-.1.42-.1.73-.21 1.15v13.33H2.08Z" fill="#8194dd"></path></svg> 