<?xml version="1.0" encoding="utf-8"?>
<!-- Generator: Adobe Illustrator 24.0.2, SVG Export Plug-In . SVG Version: 6.00 Build 0)  -->
<svg version="1.1" id="Layer_1" xmlns="http://www.w3.org/2000/svg" xmlns:xlink="http://www.w3.org/1999/xlink" x="0px" y="0px"
	 viewBox="0 0 32 32" style="enable-background:new 0 0 32 32;" xml:space="preserve">
<style type="text/css">
	.st0{fill:#FFFFFF;}
</style>
<g transform="translate(1 1)">
	<path class="st0" d="M15,30.8C6.3,30.8-0.8,23.7-0.8,15C-0.8,6.3,6.3-0.8,15-0.8c8.7,0,15.8,7.1,15.8,15.8
		C30.8,23.7,23.7,30.8,15,30.8z M15,0.8C7.1,0.8,0.8,7.1,0.8,15S7.1,29.3,15,29.3S29.3,22.9,29.3,15S22.9,0.8,15,0.8z"/>
	<rect x="8.9" y="12.3" class="st0" width="2.8" height="8.5"/>
	<path class="st0" d="M10.3,11.2L10.3,11.2c-0.9,0-1.6-0.7-1.6-1.6s0.7-1.6,1.6-1.6s1.6,0.7,1.6,1.6C11.9,10.4,11.2,11.2,10.3,11.2z
		"/>
	<path class="st0" d="M21.9,20.8h-2.8v-4.5c0-1.1-0.4-1.9-1.4-1.9c-0.7,0-1.2,0.4-1.4,1c-0.1,0.2-0.1,0.5-0.1,0.7v4.7h-2.8
		c0,0,0-7.7,0-8.5h2.8v1.2c0.5-0.9,1.5-1.4,2.5-1.4c1.9,0,3.3,1.2,3.3,3.8V20.8z"/>
	<path d="M23.8,22.7"/>
</g>
</svg>
