<?xml version="1.0" encoding="UTF-8"?> <svg xmlns="http://www.w3.org/2000/svg" viewBox="0 0 64.02 10.8"><defs><style>.cls-1{fill:#ffbc00;}.cls-2{fill:#efefef;}</style></defs><g id="Layer_2" data-name="Layer 2"><g id="Isolation_Mode" data-name="Isolation Mode"><polygon class="cls-1" points="5.68 0 7.43 3.56 11.36 4.13 8.52 6.89 9.19 10.8 5.68 8.96 2.17 10.8 2.84 6.89 0 4.13 3.92 3.56 5.68 0"></polygon><polygon class="cls-1" points="18.89 0 20.64 3.56 24.57 4.13 21.73 6.89 22.4 10.8 18.89 8.96 15.38 10.8 16.05 6.89 13.21 4.13 17.14 3.56 18.89 0"></polygon><polygon class="cls-1" points="32.1 0 33.86 3.56 37.78 4.13 34.94 6.89 35.61 10.8 32.1 8.96 28.59 10.8 29.27 6.89 26.43 4.13 30.35 3.56 32.1 0"></polygon><polygon class="cls-1" points="45.32 0 47.07 3.56 50.99 4.13 48.16 6.89 48.83 10.8 45.32 8.96 41.81 10.8 42.48 6.89 39.64 4.13 43.56 3.56 45.32 0"></polygon><polygon class="cls-1" points="58.35 0 56.59 3.56 52.67 4.13 55.51 6.89 55.29 8.17 59.13 1.59 58.35 0"></polygon><polygon class="cls-2" points="64.02 4.13 60.1 3.56 59.13 1.59 55.29 8.17 54.84 10.8 58.35 8.96 61.86 10.8 61.19 6.89 64.02 4.13"></polygon></g></g></svg> 