<?xml version="1.0" encoding="utf-8"?>
<!-- Generator: Adobe Illustrator 24.0.2, SVG Export Plug-In . SVG Version: 6.00 Build 0)  -->
<svg version="1.1" id="Layer_1" xmlns="http://www.w3.org/2000/svg" xmlns:xlink="http://www.w3.org/1999/xlink" x="0px" y="0px"
	 viewBox="0 0 32 32" style="enable-background:new 0 0 32 32;" xml:space="preserve">
<style type="text/css">
	.st0{fill:#FFFFFF;}
</style>
<g transform="translate(1 1)">
	<path class="st0" d="M23.6,10.7c-0.2-0.8-0.8-1.4-1.6-1.6c-1.4-0.4-7-0.4-7-0.4s-5.6,0-7,0.4c-0.8,0.2-1.4,0.8-1.6,1.6
		c-0.5,2.9-0.5,5.8,0,8.7c0.2,0.8,0.8,1.4,1.6,1.6c1.4,0.4,7,0.4,7,0.4s5.6,0,7-0.4c0.8-0.2,1.4-0.8,1.6-1.6
		c0.3-1.4,0.4-2.9,0.4-4.3C24,13.6,23.8,12.1,23.6,10.7z M13.2,17.7v-5.4l4.7,2.7L13.2,17.7z"/>
	<path d="M13.1,17.8"/>
	<path class="st0" d="M15,30.8C6.3,30.8-0.8,23.7-0.8,15C-0.8,6.3,6.3-0.8,15-0.8c8.7,0,15.8,7.1,15.8,15.8
		C30.8,23.7,23.7,30.8,15,30.8z M15,0.8C7.1,0.8,0.8,7.1,0.8,15S7.1,29.3,15,29.3S29.3,22.9,29.3,15S22.9,0.8,15,0.8z"/>
	<path d="M24.3,15"/>
</g>
</svg>
