<?xml version="1.0" encoding="utf-8"?>
<!-- Generator: Adobe Illustrator 24.0.2, SVG Export Plug-In . SVG Version: 6.00 Build 0)  -->
<svg version="1.1" id="Layer_1" xmlns="http://www.w3.org/2000/svg" xmlns:xlink="http://www.w3.org/1999/xlink" x="0px" y="0px"
	 viewBox="0 0 32 32" style="enable-background:new 0 0 32 32;" xml:space="preserve">
<style type="text/css">
	.st0{fill:#FFFFFF;}
</style>
<g transform="translate(1 1)">
	<path class="st0" d="M15,30.8C6.3,30.8-0.8,23.7-0.8,15C-0.8,6.3,6.3-0.8,15-0.8c8.7,0,15.8,7.1,15.8,15.8
		C30.8,23.7,23.7,30.8,15,30.8z M15,0.8C7.1,0.8,0.8,7.1,0.8,15S7.1,29.3,15,29.3S29.3,22.9,29.3,15S22.9,0.8,15,0.8z"/>
	<path d="M17.4,29.8c-0.1,0-0.3,0-0.4,0.1C17.2,29.8,17.3,29.8,17.4,29.8z"/>
	<path d="M17.7,29.8l-0.2,0L17.7,29.8z"/>
	<path d="M16.7,29.9c-0.1,0-0.3,0-0.4,0C16.4,29.9,16.6,29.9,16.7,29.9z"/>
	<path d="M17,29.9l-0.2,0L17,29.9z"/>
	<path d="M18.1,29.7l-0.2,0L18.1,29.7z"/>
	<path d="M19.1,29.4l-0.1,0L19.1,29.4z"/>
	<path d="M18.8,29.5l-0.1,0L18.8,29.5z"/>
	<path d="M18.4,29.6l-0.2,0L18.4,29.6z"/>
	<path d="M16.3,29.9L16,30L16.3,29.9z"/>
	<path class="st0" d="M15.3,30V18.3H12v-3.8h3.2v-2.8c0-3.2,2-5,4.8-5c1,0,1.9,0,2.9,0.2v3.3h-2c-1.6,0-1.9,0.7-1.9,1.8v2.4h3.7
		l-0.5,3.8h-3.2v11.1C17.9,29.8,16.6,30,15.3,30"/>
	<path d="M30,15"/>
	<path d="M16,30c-0.2,0-0.3,0-0.5,0C15.7,30,15.8,30,16,30z"/>
	<path d="M15.5,30l-0.2,0L15.5,30z"/>
</g>
</svg>
