<?xml version="1.0" encoding="UTF-8"?> <svg xmlns="http://www.w3.org/2000/svg" xmlns:xlink="http://www.w3.org/1999/xlink" version="1.1" id="Layer_1" x="0px" y="0px" viewBox="0 0 2500 827" style="enable-background:new 0 0 2500 827;" xml:space="preserve"> <style type="text/css"> .st0{fill:#000;} </style> <g> <g> <rect x="818.7" y="331.25" class="st0" width="54.63" height="47.71"></rect> <rect x="818.7" y="419.03" class="st0" width="54.63" height="88.78"></rect> <path class="st0" d="M529.51,673.69c-34.78,14.71-71.75,22.17-109.89,22.17s-75.11-7.46-109.89-22.17 c-33.62-14.22-63.82-34.59-89.77-60.53s-46.31-56.15-60.53-89.77c-14.71-34.78-22.17-71.75-22.17-109.89s7.46-75.11,22.17-109.89 c12.96-30.64,31.03-58.44,53.77-82.77l233.43,370.89h67.72l-283.5-450.91C144.53,200.69,88,300.49,88,413.5 c0,183.15,148.47,331.62,331.62,331.62c59.18,0,114.73-15.5,162.83-42.67l-26.03-41.85C547.72,665.42,538.74,669.79,529.51,673.69 z"></path> <polygon class="st0" points="256.84,435.33 324.56,435.33 295.37,388.87 227.64,388.87 "></polygon> </g> <g> <polygon class="st0" points="267.04,451.56 356.37,593.72 424.09,593.72 334.76,451.56 "></polygon> <path class="st0" d="M419.62,81.88c-63.67,0-123.14,17.95-173.65,49.05l26.22,41.67c11.96-7.33,24.49-13.78,37.53-19.3 c34.78-14.71,71.75-22.17,109.89-22.17s75.11,7.46,109.89,22.17c33.62,14.22,63.82,34.59,89.77,60.53 c25.95,25.95,46.31,56.15,60.53,89.77c14.71,34.78,22.17,71.75,22.17,109.89s-7.46,75.11-22.17,109.89 c-14.22,33.62-34.59,63.82-60.53,89.77c-0.67,0.67-1.35,1.34-2.03,2.01l-71.04-114.04c30.62-18.92,54.44-53.51,58.11-95.47 c3.92-44.78-18.47-77.24-18.47-77.24c-36.94-60.45-99.62-59.33-99.62-59.33h-1.68h-6.72h-5.93h-0.71H332.31l37.5,59.33h104.3h3.72 h5.6c30.45,0,58.28,26.23,62.13,55.97c4.93,38.1-18.14,58.25-27.53,64.77c-2.24,1.56-4.9,2.39-7.63,2.39h-63.91L572,651.29 c-0.03,0.02-0.05,0.04-0.08,0.05l26.22,41.67c92.07-58.92,153.1-162.09,153.1-279.51C751.23,230.35,602.76,81.88,419.62,81.88z"></path> <path class="st0" d="M1107.49,456.22c-3.69-3.52-7.04-6.42-10.03-8.71c7.21-1.41,13.68-3.83,19.4-7.26 c5.72-3.43,10.56-7.61,14.52-12.54c3.96-4.92,6.99-10.47,9.1-16.63c2.11-6.16,3.17-12.67,3.17-19.53 c0-12.67-2.86-23.05-8.58-31.14c-5.72-8.09-12.98-14.52-21.77-19.27c-8.8-4.75-18.57-8.05-29.29-9.9 c-10.73-1.85-21.11-2.77-31.14-2.77H939.38l-35.63,45.92h153.6c9.5,0,16.89,1.72,22.17,5.15c5.28,3.43,7.92,8.58,7.92,15.44 c0,6.16-2.9,11-8.71,14.52c-5.81,3.52-12.93,5.28-21.38,5.28h-153.6v90.26h54.63v-46.71h83.92l39.32,46.71h73.1l-32.46-34.31 C1116.11,464.58,1111.18,459.74,1107.49,456.22z"></path> <path class="st0" d="M1389.22,347.49c-21.55-14.6-53.8-21.9-96.72-21.9c-43.11,0-75.39,7.3-96.86,21.9 c-21.47,14.61-32.2,37.65-32.2,69.14c0,31.67,10.69,54.81,32.07,69.41c21.38,14.61,53.71,21.9,96.99,21.9 c43.1,0,75.39-7.3,96.86-21.9c21.46-14.6,32.2-37.74,32.2-69.41C1421.55,385.14,1410.77,362.1,1389.22,347.49z M1363.22,439.73 c-2.64,5.9-6.91,10.52-12.8,13.86c-5.9,3.35-13.59,5.59-23.09,6.73c-9.5,1.15-21.11,1.71-34.84,1.71 c-13.72,0-25.34-0.57-34.84-1.71c-9.5-1.14-17.2-3.39-23.09-6.73c-5.9-3.34-10.16-7.96-12.8-13.86 c-2.64-5.89-3.96-13.59-3.96-23.09c0-9.5,1.32-17.19,3.96-23.09c2.64-5.89,6.9-10.47,12.8-13.72c5.89-3.25,13.59-5.45,23.09-6.6 c9.5-1.14,21.11-1.72,34.84-1.72c13.72,0,25.34,0.57,34.84,1.72c9.5,1.15,17.2,3.34,23.09,6.6c5.89,3.26,10.16,7.83,12.8,13.72 c2.64,5.9,3.96,13.59,3.96,23.09C1367.18,426.13,1365.86,433.83,1363.22,439.73z"></path> <path class="st0" d="M1514.18,386.42c4.57-3.78,10.03-6.73,16.36-8.84s13.2-3.17,20.58-3.17h88.67l35.1-45.92h-123.77 c-15.31,0-29.47,2.07-42.49,6.2c-13.02,4.14-24.24,10.03-33.65,17.68c-9.41,7.65-16.8,16.8-22.17,27.45 c-5.37,10.65-8.05,22.39-8.05,35.23c0,12.84,2.68,24.77,8.05,35.76c5.36,11,12.75,20.5,22.17,28.5 c9.41,8.01,20.63,14.3,33.65,18.87c13.02,4.58,27.18,6.86,42.49,6.86h88.67l35.1-45.39h-123.77c-7.39,0-14.25-1.01-20.58-3.04 c-6.33-2.02-11.84-4.88-16.49-8.58c-4.66-3.69-8.27-8.14-10.82-13.33c-2.55-5.19-3.83-10.95-3.83-17.29s1.32-12.14,3.96-17.42 C1506,394.73,1509.6,390.2,1514.18,386.42z"></path> <path class="st0" d="M1816.62,424.81c-7.22-5.28-13.37-9.67-18.47-13.2c2.81-1.76,5.67-3.6,8.58-5.54c2.9-1.93,6.11-4.13,9.63-6.6 c3.52-2.46,7.52-5.36,12.01-8.71c4.49-3.34,9.63-7.21,15.44-11.61l67.56-50.67h-79.17l-50.93,43.02 c-8.09,6.69-14.65,12.36-19.66,17.02c-5.01,4.66-9.28,8.58-12.8,11.74c0.35-4.57,0.61-9.5,0.79-14.78 c0.17-5.28,0.26-10.64,0.26-16.1v-40.91h-54.89v176.56h54.89v-50.67c0-4.22-0.09-8.49-0.26-12.8c-0.18-4.31-0.35-8.49-0.53-12.54 c2.99,2.99,6.9,6.69,11.74,11.08c4.84,4.4,11.83,10.56,20.98,18.47l53.31,46.45h82.6l-73.1-58.32 C1833.16,437.4,1823.83,430.09,1816.62,424.81z"></path> <polygon class="st0" points="1991.59,435.63 2100.06,435.63 2131.46,395.52 1991.59,395.52 1991.59,374.41 2105.86,374.41 2141.23,328.49 1936.7,328.49 1936.7,505.04 2106.66,505.04 2141.76,459.65 1991.59,459.65 "></polygon> <path class="st0" d="M2379.54,470.74c-6.16-6.16-11.08-10.99-14.78-14.51c-3.69-3.52-7.04-6.42-10.03-8.71 c7.21-1.41,13.68-3.83,19.4-7.26c5.72-3.43,10.56-7.61,14.52-12.54c3.96-4.92,6.99-10.47,9.1-16.63 c2.11-6.16,3.17-12.67,3.17-19.53c0-12.67-2.86-23.05-8.58-31.14c-5.72-8.09-12.98-14.52-21.77-19.27 c-8.8-4.75-18.57-8.05-29.29-9.9c-10.73-1.85-21.11-2.77-31.14-2.77h-113.48l-35.63,45.92h153.6c9.5,0,16.89,1.72,22.17,5.15 c5.28,3.43,7.92,8.58,7.92,15.44c0,6.16-2.9,11-8.71,14.52c-5.81,3.52-12.93,5.28-21.38,5.28h-153.6v90.26h54.63v-46.71h83.92 l39.32,46.71h73.1L2379.54,470.74z"></path> </g> </g> </svg> 