<?xml version="1.0" encoding="UTF-8"?> <svg xmlns="http://www.w3.org/2000/svg" viewBox="0 0 64 64"><path d="m7 0c-3.9 0-7 3.1-7 7v56c0 .8 1 1.3 1.6.8l5.6-4.5 5.6 4.5c.4.3.9.3 1.2 0l5.6-4.5 5.6 4.5c.4.3.9.3 1.2 0l5.6-4.5 5.6 4.5c.4.3.9.3 1.2 0l5.6-4.5 5.6 4.5c1 .5 2 0 2-.8v-33h11c.6 0 1-.4 1-1v-22c0-3.9-3.1-7-7-7zm0 2h45.1c-1.3 1.3-2.1 3-2.1 5v53.9l-4.6-3.7c-.4-.3-.9-.3-1.2 0l-5.6 4.5-5.6-4.5c-.4-.3-.9-.3-1.2 0l-5.8 4.5-5.6-4.5c-.4-.3-.9-.3-1.2 0l-5.6 4.5-5.6-4.5c-.4-.3-.9-.3-1.2 0l-4.8 3.7v-53.9c0-2.9 2.4-5 5-5zm50 0c2.8 0 5 2.2 5 5v21h-10v-21c0-2.8 2.2-5 5-5zm-43 11c-.5 0-1 .3-1 1v1.1c-2.3.4-4 2.4-4 4.7 0 1.6.8 2.5 1.8 3s2.1.6 3.1.7 1.9.2 2.4.5c.5.2.7.6.7 1.2 0 1.5-1.3 2.8-3 2.8-1.4-.1-2.5-.9-3-2.4-.4-1.3-2.3-.7-1.9.6.6 1.8 1.8 3.2 3.8 3.6v1.2c0 1.3 2 1.3 2 0v-1.1c2.3-.4 4-2.4 4-4.8 0-1.5-.7-2.5-1.8-3-1-.5-2.1-.6-3.1-.7s-1.9-.2-2.4-.5c-.5-.2-.7-.5-.7-1.2 0-1.6 1.3-2.8 3-2.8 1.6.1 2.5 1 3 2.4.4 1.3 2.3.7 1.9-.6-.6-1.8-1.9-3.2-3.8-3.6v-1.1c0-.7-.5-1-1-1zm10 1c-1.3 0-1.3 2 0 2h18c1.3 0 1.3-2 0-2zm0 7c-1.3 0-1.3 2 0 2h18c1.3 0 1.3-2 0-2zm0 7c-1.3 0-1.3 2 0 2h18c1.3 0 1.3-2 0-2zm-14 7c-1.3 0-1.3 2 0 2h32c1.3 0 1.3-2 0-2zm0 7c-1.3 0-1.3 2 0 2h32c1.3 0 1.3-2 0-2zm0 7c-1.3 0-1.3 2 0 2h32c1.3 0 1.3-2 0-2z" fill="#8194dd"></path></svg> 