<?xml version="1.0" encoding="UTF-8"?> <svg xmlns="http://www.w3.org/2000/svg" viewBox="0 0 46 46"><path d="M27.5 13h-9c-4.1 0-7.5 3.4-7.5 7.5s3.4 7.5 7.5 7.5h3.1l4.6 5.6c.3.4.9.5 1.4.2.3-.2.5-.7.4-1.1l-.7-3.4 1.9.5h.3c3.4 0 5.5-3.5 5.5-9.5 0-4-3.4-7.3-7.5-7.3Zm2.1 15-3.4-1c-.5-.2-1.1.1-1.3.6.1.2.1.4.1.6l.2 1-2.3-2.8c-.2-.2-.5-.4-.8-.4h-3.6c-3 0-5.5-2.5-5.5-5.5s2.5-5.5 5.5-5.5h9c3 0 5.5 2.5 5.5 5.5 0 1.2-.2 7.3-3.4 7.5Z" fill="#8194dd"></path><path d="M23 0C10.3 0 0 10.3 0 23s10.3 23 23 23 23-10.3 23-23S35.7 0 23 0Zm0 44C11.4 44 2 34.6 2 23S11.4 2 23 2s21 9.4 21 21-9.4 21-21 21Z" fill="#8194dd"></path></svg> 