<?xml version="1.0" encoding="UTF-8"?> <svg xmlns="http://www.w3.org/2000/svg" viewBox="0 0 100 84"><path d="M28.22 21.11 5.33 44l22.89 22.89c.89.89.89 2.22 0 3.11-.44.44-1 .67-1.56.67s-1.11-.22-1.56-.67L.67 45.55c-.89-.89-.89-2.22 0-3.11L25.11 18c.89-.89 2.22-.89 3.11 0s.89 2.22 0 3.11Zm71.11 21.33L74.89 18c-.89-.89-2.22-.89-3.11 0s-.89 2.22 0 3.11L94.67 44 71.78 66.89c-.89.89-.89 2.22 0 3.11.44.44 1 .67 1.56.67s1.11-.22 1.56-.67l24.44-24.44c.89-.89.89-2.22 0-3.11ZM62.89 4.11c-1.11-.33-2.44.22-2.78 1.44L35.67 81.11c-.33 1.22.22 2.44 1.44 2.78.22.11.44.11.67.11.89 0 1.78-.56 2.11-1.56L64.33 6.89c.33-1.11-.22-2.44-1.44-2.78Z" fill="#8194dd"></path></svg> 