<?xml version="1.0" encoding="UTF-8"?> <svg xmlns="http://www.w3.org/2000/svg" viewBox="0 0 68.2 68.2"><path d="M65.8 63.4h-61v-61C4.8 1.1 3.7 0 2.4 0S0 1.1 0 2.4v63.4c0 1.3 1.1 2.4 2.4 2.4h63.4c1.3 0 2.4-1.1 2.4-2.4s-1.1-2.4-2.4-2.4Z" fill="#8194dd"></path><path d="M28.1 54.1V19.5c0-1.3-1.1-2.4-2.4-2.4s-2.4 1.1-2.4 2.4v34.7c0 1.3 1.1 2.4 2.4 2.4s2.4-1.1 2.4-2.5Zm-11.6 0V19.5c0-1.3-1.1-2.4-2.4-2.4s-2.4 1.1-2.4 2.4v34.7c0 1.3 1.1 2.4 2.4 2.4 1.3-.1 2.4-1.1 2.4-2.5Zm34.9 0V19.5c0-1.3-1.1-2.4-2.4-2.4s-2.4 1.1-2.4 2.4v34.7c0 1.3 1.1 2.4 2.4 2.4 1.3-.1 2.4-1.1 2.4-2.5Zm11.6 0V36.8c0-1.3-1.1-2.4-2.4-2.4s-2.4 1.1-2.4 2.4v17.3c0 1.3 1.1 2.4 2.4 2.4s2.4-1 2.4-2.4Zm-23.3 0V36.8c0-1.3-1.1-2.4-2.4-2.4s-2.4 1.1-2.4 2.4v17.3c0 1.3 1.1 2.4 2.4 2.4s2.4-1 2.4-2.4Z" fill="#8194dd"></path></svg> 