<?xml version="1.0" encoding="UTF-8"?> <svg xmlns="http://www.w3.org/2000/svg" viewBox="0 0 47.9 47.9"><path d="M7.9 31.9C3.5 31.9 0 28.4 0 24s3.5-7.9 7.9-7.9 7.9 3.5 7.9 7.9-3.5 7.9-7.9 7.9Zm0-12.9C5.2 19 3 21.2 3 23.9s2.2 4.9 4.9 4.9 4.9-2.2 4.9-4.9S10.6 19 7.9 19ZM40 15.8c-4.4 0-7.9-3.5-7.9-7.9S35.6 0 40 0s7.9 3.5 7.9 7.9-3.6 7.9-7.9 7.9ZM40 3c-2.7 0-4.9 2.2-4.9 4.9s2.2 4.9 4.9 4.9 4.9-2.2 4.9-4.9S42.7 3 40 3Zm0 44.9c-4.4 0-7.9-3.5-7.9-7.9s3.5-7.9 7.9-7.9 7.9 3.5 7.9 7.9-3.6 7.9-7.9 7.9Zm0-12.8c-2.7 0-4.9 2.2-4.9 4.9s2.2 4.9 4.9 4.9 4.9-2.2 4.9-4.9-2.2-4.9-4.9-4.9Z" fill="#8194dd"></path><path d="M33.5 38.6 12.9 28.3l1.4-2.9L35 35.7l-1.5 2.9M14.3 22.5l-1.4-2.8L33.5 9.4l1.5 2.8-20.7 10.3" fill="#8194dd"></path></svg> 