<?xml version="1.0" encoding="UTF-8"?> <svg xmlns="http://www.w3.org/2000/svg" viewBox="0 0 48 48"><path d="M1.14 8h8.12c.69 3.77 4.23 6.17 7.89 5.6 2.86-.46 5.03-2.74 5.6-5.6h24.11C47.55 8 48 7.54 48 6.86s-.46-1.14-1.14-1.14H22.74c-.68-3.78-4.23-6.18-7.88-5.61-2.86.46-5.03 2.74-5.6 5.6H1.14C.45 5.71 0 6.17 0 6.85s.46 1.14 1.14 1.14ZM16 2.29c2.51 0 4.57 2.06 4.57 4.57s-2.06 4.57-4.57 4.57-4.57-2.06-4.57-4.57S13.49 2.29 16 2.29Zm30.86 20.57h-8.11c-.69-3.77-4.23-6.17-7.89-5.6-2.86.46-5.03 2.74-5.6 5.6H1.14C.45 22.86 0 23.32 0 24s.46 1.14 1.14 1.14h24.12c.69 3.77 4.23 6.17 7.89 5.6 2.86-.46 5.03-2.74 5.6-5.6h8.11c.69 0 1.14-.46 1.14-1.14s-.46-1.14-1.14-1.14ZM32 28.57c-2.51 0-4.57-2.06-4.57-4.57s2.06-4.57 4.57-4.57 4.57 2.06 4.57 4.57-2.06 4.57-4.57 4.57ZM46.86 40H22.74c-.69-3.77-4.23-6.17-7.89-5.6-2.86.46-5.03 2.74-5.6 5.6H1.14C.45 40 0 40.46 0 41.14s.46 1.14 1.14 1.14h8.12c.69 3.77 4.23 6.17 7.89 5.6 2.86-.46 5.03-2.74 5.6-5.6h24.11c.69 0 1.14-.46 1.14-1.14S47.54 40 46.86 40ZM16 45.71c-2.51 0-4.57-2.06-4.57-4.57s2.06-4.57 4.57-4.57 4.57 2.06 4.57 4.57-2.06 4.57-4.57 4.57Z" fill="#8194dd"></path></svg> 