<?xml version="1.0" encoding="UTF-8"?> <svg xmlns="http://www.w3.org/2000/svg" viewBox="0 0 50 50"><path d="m45.98 19.42.72-6.92-6.3-2.79-2.89-6.41-6.92.72L25 0l-5.58 4.03-6.92-.72-2.79 6.3L3.3 12.5l.72 6.92L0 25l4.03 5.58-.72 6.92 6.3 2.79 2.79 6.3 6.92-.72 5.58 4.03 5.58-4.03 6.92.72 2.79-6.3 6.3-2.79-.72-6.92L49.8 25l-3.82-5.58Zm-1.45 16.84-5.68 2.58-2.58 5.68-6.2-.62-5.06 3.62-5.06-3.62-6.2.62-2.58-5.68-5.68-2.58.62-6.2L2.49 25l3.62-5.06-.62-6.2 5.68-2.58 2.58-5.68 6.2.62 5.06-3.62 5.06 3.62 6.2-.62 2.58 5.68 5.68 2.58-.62 6.2L47.53 25l-3.62 5.06.62 6.2Z" fill="#8194dd"></path><path d="m20.87 31.82-6.51-6.51-1.45 1.45 7.96 7.96 18.29-18.29-1.45-1.45-16.84 16.84Z" fill="#8194dd"></path></svg> 