<?xml version="1.0" encoding="UTF-8"?> <svg xmlns="http://www.w3.org/2000/svg" viewBox="0 0 24 24"><path d="m14.24 9.52-3.54 3.54-1.41-1.41c-.24-.24-.59-.24-.83 0s-.24.59 0 .83l1.89 1.89c.12.12.24.12.47.12.12 0 .35-.12.47-.12l4.01-4.01c.24-.24.24-.59 0-.83s-.83-.24-1.06 0Zm7.19-7.19c-.12-.35-.35-.47-.71-.47-2.95.59-5.9 0-8.37-1.77a.745.745 0 0 0-.71 0C9.17 1.74 6.22 2.45 3.27 1.86h-.12c-.35 0-.59.24-.59.59v9.43c0 3.42 1.65 6.72 4.48 8.73l4.6 3.3c.12.12.24.12.35.12s.24 0 .35-.12l4.6-3.3c2.83-2 4.48-5.31 4.48-8.73V2.33Zm-1.18 9.55c0 3.07-1.53 6.01-4.01 7.78L12 22.73l-4.24-3.07c-2.48-1.77-4.01-4.72-4.01-7.78V3.15c2.83.47 5.78-.24 8.25-1.77 2.48 1.53 5.42 2.24 8.25 1.77v8.73Z" fill="#8194dd"></path></svg> 