<?xml version="1.0" encoding="utf-8"?>
<!-- Generator: Adobe Illustrator 24.0.2, SVG Export Plug-In . SVG Version: 6.00 Build 0)  -->
<svg version="1.1" id="Layer_1" xmlns="http://www.w3.org/2000/svg" xmlns:xlink="http://www.w3.org/1999/xlink" x="0px" y="0px"
	 viewBox="0 0 32 32" style="enable-background:new 0 0 32 32;" xml:space="preserve">
<style type="text/css">
	.st0{fill:#FFFFFF;}
</style>
<g transform="translate(1 1)">
	<path class="st0" d="M22,11.5c0-0.5-0.1-1.1-0.3-1.6c-0.3-0.8-0.9-1.3-1.6-1.6C19.6,8.1,19,8,18.5,8c-0.9,0-1.2-0.1-3.5-0.1
		s-2.6,0-3.5,0.1C11,8,10.4,8.1,9.9,8.3C9.2,8.6,8.6,9.2,8.3,9.9C8.1,10.4,8,11,8,11.5c0,0.9-0.1,1.2-0.1,3.5s0,2.6,0.1,3.5
		c0,0.5,0.1,1.1,0.3,1.6c0.3,0.8,0.9,1.3,1.6,1.6c0.5,0.2,1.1,0.3,1.6,0.3c0.9,0,1.2,0.1,3.5,0.1s2.6,0,3.5-0.1
		c0.5,0,1.1-0.1,1.6-0.3c0.8-0.3,1.3-0.9,1.6-1.6c0.2-0.5,0.3-1.1,0.3-1.6c0-0.9,0.1-1.2,0.1-3.5S22.1,12.4,22,11.5z M15,18.9
		c-2,0-3.6-1.6-3.6-3.6c0-2,1.6-3.6,3.6-3.6s3.6,1.6,3.6,3.6l0,0C18.6,17.3,17,18.9,15,18.9L15,18.9z M19.2,11.9c-0.6,0-1-0.5-1-1
		c0-0.6,0.5-1,1-1s1,0.5,1,1l0,0C20.2,11.4,19.7,11.9,19.2,11.9L19.2,11.9L19.2,11.9z"/>
	<path class="st0" d="M15,30.8C6.3,30.8-0.8,23.7-0.8,15C-0.8,6.3,6.3-0.8,15-0.8c8.7,0,15.8,7.1,15.8,15.8
		C30.8,23.7,23.7,30.8,15,30.8z M15,0.8C7.1,0.8,0.8,7.1,0.8,15S7.1,29.3,15,29.3S29.3,22.9,29.3,15S22.9,0.8,15,0.8z"/>
</g>
</svg>
