<svg xmlns="http://www.w3.org/2000/svg" viewBox="0 0 1154.5 584.6"><path fill="#031729" d="M84.5 495.5c-48.6 0-67.8-27.8-59.7-74.1l21.6-122.3h-44l8.4-47.7h44l13.3-75.5H126l-13.3 75.5h60.7l-8.4 47.7h-60.7L83.7 416.3c-3.3 18.5 3.7 26.4 22.2 26.4 12 0 21.9-.5 37.9-2.3l-8.6 48.6c-16.9 4.2-33.6 6.5-50.7 6.5m82.5-4.6 42.2-239.5h58.5l-42.2 239.5zm780.7 4.6c-48.6 0-67.8-27.8-59.7-74.1l21.6-122.3h-44l8.4-47.7h44l13.3-75.5h57.9l-13.3 75.5h60.7l-8.4 47.7h-60.7l-20.7 117.2c-3.3 18.5 3.7 26.4 22.2 26.4 12 0 21.9-.5 37.9-2.3l-8.6 48.6c-16.8 4.2-33.4 6.5-50.6 6.5m82.5-4.6 42.2-239.5h58.5l-42.2 239.5zm-593.4-177c-6.4-10.6-17.4-18.9-35.4-18.9-45.1 0-61.9 42.8-68 77.4-6.1 34.5-4.4 76.9 40.8 76.9 18 0 31.9-8.3 42-18.9 14.7-15.7 21.8-37.3 25.4-58 3.8-20.7 4.4-42.8-4.8-58.5m1.9 164.5c-16.8 12-37.5 19.3-61.9 19.3-28.5 0-49.8-10.1-58.5-23.5l-19.2 109.1h-57.5l58.4-331h53.8l-5 26.2c18.2-22.1 46.6-31.8 72.8-31.8 23.9 0 41.8 8.3 54.4 20.3 24.4 23.5 32.3 59.4 24.4 104.5-8.4 47-29.1 83.4-61.7 106.9m222.9-93.1-61.6 4.6c-17.7 1.4-36.7 12-40.1 31.3-3.2 18.4 10.8 29.9 28.8 29.9 35.9 0 64.7-19.3 70.9-54.8l2-11zm29 110c-24.9 0-35.9-15.7-34.6-33.6-14.5 19.3-45 35.9-79.1 35.9-57.1 0-80.3-35.9-73.4-75.1 8-45.6 48.1-71.9 94.3-75.1l71.4-5.1 2.6-14.7c4-22.6-1.2-37.8-33.9-37.8-26.7 0-44.5 12-49.8 34.1h-55.7c12.7-53.9 59.8-77.8 113.2-77.8 41 0 73.7 12.9 81.2 48.8 3.3 15.2 1.2 32.2-1.6 48.4l-15.7 88.9c-1.9 11.1 1 15.2 10.7 15.2 3.7 0 7.5-.9 7.5-.9l-7.5 42.4c-10.4 4.1-15.8 6.4-29.6 6.4m120.2-1.2c-39.2 0-62.1-18.9-54-64.5l44.7-253.8h58l-43 244.2c-2.4 13.8-.8 23 19 23 5.1 0 6.5-.5 9.8-.5l-8.5 48.4c-12.1 2.3-14.5 3.2-26 3.2"/><path fill="#FFBD00" d="M1149.8 137.1c.8 25.3-19 46.6-44.4 47.4-8.5.3-16.6-1.8-23.5-5.6-.8-.5-1.6-1-2.4-1.4 0-.1-.1-.1-.1-.1-120.8-71-262.5-109.8-412.9-104.8-154.2 5.1-296.2 55.5-413.7 137.9-.6.4-1.2.8-1.8 1.3-1 .5-2.2.9-3.5.9-4.6.2-8.4-3.4-8.6-8-.1-1.5.3-3 1-4.2 1.4-1.3 2.7-2.5 4.1-3.7C373.1 81.3 541.9 8.8 728.5 2.6c142.6-4.7 277.4 29.8 393.9 94 0 0 .1 0 .1.1l3.3 1.8c4.9 2.7 9.3 6.1 13 10.3 6.6 7.6 10.7 17.4 11 28.3"/><path fill="#031729" d="M1137.4 470.9c-.4.4-1.2.7-2.4.7h-2.9V467h2.4c1.3 0 2.2.2 2.7.6.5.4.8.9.8 1.6 0 .7-.2 1.3-.6 1.7m2 3 .1-.1c1-.6 1.7-1.2 2.1-2 .4-.7.6-1.7.6-2.9 0-.6-.1-1.3-.3-1.9-.2-.6-.5-1.1-1.1-1.6-.5-.5-1.3-.9-2.3-1.2-1-.3-2.3-.4-3.8-.4h-6.6v17h4v-6.1h3.4v.1l2.9 6h4.6l-3.6-6.9zm-2-3c-.4.4-1.2.7-2.4.7h-2.9V467h2.4c1.3 0 2.2.2 2.7.6.5.4.8.9.8 1.6 0 .7-.2 1.3-.6 1.7m2 3 .1-.1c1-.6 1.7-1.2 2.1-2 .4-.7.6-1.7.6-2.9 0-.6-.1-1.3-.3-1.9-.2-.6-.5-1.1-1.1-1.6-.5-.5-1.3-.9-2.3-1.2-1-.3-2.3-.4-3.8-.4h-6.6v17h4v-6.1h3.4v.1l2.9 6h4.6l-3.6-6.9zm-2-3c-.4.4-1.2.7-2.4.7h-2.9V467h2.4c1.3 0 2.2.2 2.7.6.5.4.8.9.8 1.6 0 .7-.2 1.3-.6 1.7m2 3 .1-.1c1-.6 1.7-1.2 2.1-2 .4-.7.6-1.7.6-2.9 0-.6-.1-1.3-.3-1.9-.2-.6-.5-1.1-1.1-1.6-.5-.5-1.3-.9-2.3-1.2-1-.3-2.3-.4-3.8-.4h-6.6v17h4v-6.1h3.4v.1l2.9 6h4.6l-3.6-6.9zm-2-3c-.4.4-1.2.7-2.4.7h-2.9V467h2.4c1.3 0 2.2.2 2.7.6.5.4.8.9.8 1.6 0 .7-.2 1.3-.6 1.7m2 3 .1-.1c1-.6 1.7-1.2 2.1-2 .4-.7.6-1.7.6-2.9 0-.6-.1-1.3-.3-1.9-.2-.6-.5-1.1-1.1-1.6-.5-.5-1.3-.9-2.3-1.2-1-.3-2.3-.4-3.8-.4h-6.6v17h4v-6.1h3.4v.1l2.9 6h4.6l-3.6-6.9zm-2-3c-.4.4-1.2.7-2.4.7h-2.9V467h2.4c1.3 0 2.2.2 2.7.6.5.4.8.9.8 1.6 0 .7-.2 1.3-.6 1.7m2.1 3c1-.6 1.7-1.2 2.1-2 .4-.7.6-1.7.6-2.9 0-.6-.1-1.3-.3-1.9-.2-.6-.5-1.1-1.1-1.6-.5-.5-1.3-.9-2.3-1.2-1-.3-2.3-.4-3.8-.4h-6.6v17h4v-6.1h3.4v.1l2.9 6h4.6l-3.6-7h.1zm5 9.4c-2.4 2.4-5.6 3.6-9.5 3.6-3.9 0-7.1-1.2-9.4-3.6-2.4-2.4-3.6-6-3.6-10.5s1.2-8.1 3.6-10.5c2.4-2.4 5.5-3.7 9.4-3.7 3.9 0 7.1 1.2 9.5 3.7 2.4 2.4 3.6 5.9 3.6 10.5 0 4.5-1.2 8-3.6 10.5m6.7-18c-.8-2.2-2-4.1-3.5-5.6s-3.3-2.7-5.5-3.6c-2.1-.8-4.5-1.3-7.2-1.3-2.4 0-4.7.4-6.8 1.3-2.1.8-3.9 2-5.5 3.6-1.6 1.5-2.8 3.4-3.7 5.6-.9 2.2-1.3 4.7-1.3 7.4 0 2.8.4 5.3 1.3 7.5.8 2.2 2 4.1 3.5 5.6s3.3 2.7 5.5 3.5c2.1.8 4.5 1.2 7.1 1.2 2.4 0 4.7-.4 6.9-1.2s4-2 5.6-3.5c1.6-1.5 2.8-3.4 3.7-5.6.9-2.2 1.3-4.7 1.3-7.5-.2-2.7-.6-5.2-1.4-7.4m-13.8 5.6c-.4.4-1.2.7-2.4.7h-2.9V467h2.4c1.3 0 2.2.2 2.7.6.5.4.8.9.8 1.6 0 .7-.2 1.3-.6 1.7m2 3 .1-.1c1-.6 1.7-1.2 2.1-2 .4-.7.6-1.7.6-2.9 0-.6-.1-1.3-.3-1.9-.2-.6-.5-1.1-1.1-1.6-.5-.5-1.3-.9-2.3-1.2-1-.3-2.3-.4-3.8-.4h-6.6v17h4v-6.1h3.4v.1l2.9 6h4.6l-3.6-6.9zm-2-3c-.4.4-1.2.7-2.4.7h-2.9V467h2.4c1.3 0 2.2.2 2.7.6.5.4.8.9.8 1.6 0 .7-.2 1.3-.6 1.7m2 3 .1-.1c1-.6 1.7-1.2 2.1-2 .4-.7.6-1.7.6-2.9 0-.6-.1-1.3-.3-1.9-.2-.6-.5-1.1-1.1-1.6-.5-.5-1.3-.9-2.3-1.2-1-.3-2.3-.4-3.8-.4h-6.6v17h4v-6.1h3.4v.1l2.9 6h4.6l-3.6-6.9zm-2-3c-.4.4-1.2.7-2.4.7h-2.9V467h2.4c1.3 0 2.2.2 2.7.6.5.4.8.9.8 1.6 0 .7-.2 1.3-.6 1.7m2 3 .1-.1c1-.6 1.7-1.2 2.1-2 .4-.7.6-1.7.6-2.9 0-.6-.1-1.3-.3-1.9-.2-.6-.5-1.1-1.1-1.6-.5-.5-1.3-.9-2.3-1.2-1-.3-2.3-.4-3.8-.4h-6.6v17h4v-6.1h3.4v.1l2.9 6h4.6l-3.6-6.9zm-2-3c-.4.4-1.2.7-2.4.7h-2.9V467h2.4c1.3 0 2.2.2 2.7.6.5.4.8.9.8 1.6 0 .7-.2 1.3-.6 1.7m2 3 .1-.1c1-.6 1.7-1.2 2.1-2 .4-.7.6-1.7.6-2.9 0-.6-.1-1.3-.3-1.9-.2-.6-.5-1.1-1.1-1.6-.5-.5-1.3-.9-2.3-1.2-1-.3-2.3-.4-3.8-.4h-6.6v17h4v-6.1h3.4v.1l2.9 6h4.6l-3.6-6.9z"/></svg>