<?xml version="1.0" encoding="UTF-8"?> <svg xmlns="http://www.w3.org/2000/svg" width="131.92" height="40"><path d="M46.87.51h6.19v38.97h-6.19zm39.66 5.55A18.67 18.67 0 0 0 80.15 2 23.13 23.13 0 0 0 71.87.51H57.93v39h13.94A23.16 23.16 0 0 0 80.15 38a18.51 18.51 0 0 0 6.38-4 17.92 17.92 0 0 0 4.1-6.17A20.75 20.75 0 0 0 92.08 20a20.74 20.74 0 0 0-1.45-7.78 18.1 18.1 0 0 0-4.1-6.16Zm-.64 14c0 8.32-5.77 14.13-14 14.13H64V5.84h7.91c8.34 0 13.98 5.7 13.98 14.16Zm41.66 7.73v.05a15.41 15.41 0 0 1-12.41 6.25c-8 0-13.85-5.85-13.85-13.91S107.24 6 115.17 6a15.18 15.18 0 0 1 12.14 6.31l4.33-3.91a18.21 18.21 0 0 0-6.86-6A21.45 21.45 0 0 0 115 0a20.12 20.12 0 0 0-14.13 5.61A19.4 19.4 0 0 0 96.53 12a21.12 21.12 0 0 0-1.6 8.19 20.83 20.83 0 0 0 1.57 8.1 18.63 18.63 0 0 0 4.28 6.25A20.1 20.1 0 0 0 114.85 40a21.94 21.94 0 0 0 10-2.38 19.9 19.9 0 0 0 7-6ZM7.36 35.69a20.47 20.47 0 0 0 6.49 3.64 1.13 1.13 0 0 0 .32.05h12.44a1.26 1.26 0 0 0 .33-.05 20.53 20.53 0 0 0 4.7-2.33.39.39 0 0 0 .11-.53.37.37 0 0 0-.32-.17H19.32A2.79 2.79 0 0 1 17 35a.54.54 0 0 0-.43-.23H7.68a.5.5 0 0 0-.5.51.5.5 0 0 0 .18.39ZM33.42 4.31A20.62 20.62 0 0 0 27.1.73a2.19 2.19 0 0 0-.67-.11H14.34a2.14 2.14 0 0 0-.67.11A20.58 20.58 0 0 0 9.14 3a.38.38 0 0 0-.14.51.37.37 0 0 0 .32.17h12.14A2.8 2.8 0 0 1 23.82 5a.52.52 0 0 0 .43.23h8.84a.51.51 0 0 0 .51-.51.53.53 0 0 0-.18-.41Zm7.35 14.89a.77.77 0 0 0-.77-.73h-7.88a1 1 0 0 1-.93-.59.77.77 0 0 0-.69-.43H1.08a1 1 0 0 0-1 .94C0 18.92 0 19.46 0 20v.8a.75.75 0 0 0 .76.73h7.9a1 1 0 0 1 .92.59.78.78 0 0 0 .7.43H39.7a1 1 0 0 0 1-.94c0-.53.06-1.07.06-1.61.02-.27.02-.53.01-.8Zm-13.48-6.85a2.54 2.54 0 0 1 2.15 1.18.77.77 0 0 0 .65.35h8.69a.76.76 0 0 0 .71-1 20.6 20.6 0 0 0-1.76-3.59 1 1 0 0 0-.87-.48H3.9a1 1 0 0 0-.9.45 19.18 19.18 0 0 0-1.18 2.19.63.63 0 0 0 .31.84.66.66 0 0 0 .27.06Zm-13.83 15.3a2.51 2.51 0 0 1-2.14-1.18.77.77 0 0 0-.65-.35H2a.76.76 0 0 0-.76.76.59.59 0 0 0 .05.27A20.6 20.6 0 0 0 3 30.74a1 1 0 0 0 .86.48h33a1 1 0 0 0 .87-.48 19.18 19.18 0 0 0 1.18-2.19.64.64 0 0 0-.32-.84.58.58 0 0 0-.26-.06Z" fill="#2279bc"></path></svg> 