<?xml version="1.0" encoding="UTF-8"?> <svg xmlns="http://www.w3.org/2000/svg" id="a" viewBox="0 0 494 84"><path d="M493.59,53.63c0-6.76-3.89-9.28-13.33-11.66-5.67-1.4-7.19-2.52-7.19-4.51s1.78-3.31,5.48-3.31c4.09,.13,8.09,1.22,11.68,3.18l1.19-7.23c-4.05-1.7-8.41-2.56-12.81-2.52-8.51,0-13.53,4.38-13.53,10.48,0,6.56,3.7,9.08,12.61,11.26,6.2,1.46,7.92,2.46,7.92,5.11,0,2.38-2.38,3.84-6.54,3.84-4.8-.14-9.48-1.58-13.53-4.17l-1.12,7.29c4.46,2.19,9.35,3.37,14.32,3.44,9.64,0,14.85-4.17,14.85-11.2h0Zm-33.59,10.45V28.08h-8.75v24.45c-2.84,2.78-5.9,4.62-9,4.62-3.56,0-5-2.17-5-5.34V28.08h-8.75v26c0,6.66,3.7,10.69,10.76,10.69,4.95,0,9-2.56,12.49-5.73l1.25,5,7,.04Zm-36.68,0V28.08h-8.65v36h8.65Zm-4.32-51.74c2.76,0,5,2.24,5,5s-2.24,5-5,5-5-2.24-5-5,2.24-5,5-5Zm-18.15,39.73c-2.57,3.1-5.34,5.08-8.91,5.08-4.35,0-7.59-3.36-7.59-10.42,0-7.92,3.77-11.75,8.91-11.75,2.62-.08,5.22,.46,7.59,1.58v15.51Zm8.65,12V10.58l-8.65,1.5V29.43c-2.83-.94-5.79-1.41-8.77-1.38-8.72,0-16.44,5.94-16.44,19.2,0,12,6.34,17.56,14.19,17.56,5.22,0,8.85-2.64,11.55-5.68l.76,4.95h7.36Zm-46.08-9.83c-2.48,2.43-5.77,3.86-9.24,4-3,0-4.89-1.65-4.89-4.23,0-3.43,2.71-6.53,14.13-7.79v8.02Zm8.58,9.83v-24.48c0-8.45-4.62-11.88-14.13-11.88-5.03-.01-10.01,.97-14.65,2.9l1.06,6.87c3.95-1.76,8.21-2.72,12.54-2.84,4.15,0,6.6,1.45,6.6,5.34v1.13c-15.32,1.45-22.71,5.14-22.71,13.79,0,6.2,4.29,9.9,10.69,9.9,4.73,0,9.26-1.94,12.54-5.35l.8,4.62h7.26Zm-32.71-1.25l-13.79-18.83c6.27-2,10.36-6.37,10.36-13.37,0-9.24-6.67-14.5-17.69-14.5h-15.17v48h9v-18.55h4.35l13.47,19,9.47-1.75Zm-12.41-31.75c0,5-3.76,7.75-9.9,7.75h-5.08v-15.25h5.61c6.14,0,9.37,2.69,9.37,7.5Zm-28.4,33l-1.06-7.19c-1.02,.2-2.06,.28-3.1,.26-3.57,0-4.95-1.58-4.95-4.48v-17.59h9.12l-1.5-7h-7.62V15.58l-8.52,1.51v11h-5.85v7h5.86v19c0,8.05,4.76,10.56,11.88,10.56,1.93,.04,3.86-.15,5.74-.57Zm-25.32-10.45c0-6.76-3.89-9.28-13.33-11.66-5.67-1.4-7.19-2.52-7.19-4.51s1.78-3.31,5.48-3.31c4.09,.13,8.09,1.22,11.68,3.18l1.2-7.23c-4.05-1.7-8.41-2.56-12.81-2.52-8.51,0-13.53,4.38-13.53,10.48,0,6.56,3.7,9.08,12.61,11.26,6.2,1.46,7.92,2.46,7.92,5.11,0,2.38-2.38,3.84-6.54,3.84-4.77-.14-9.4-1.59-13.4-4.19l-1.25,7.31c4.47,2.19,9.37,3.37,14.35,3.44,9.65,0,14.81-4.17,14.81-11.2h0Zm-33.16,10.45V28.08h-8.75v24.45c-2.84,2.78-5.9,4.62-9,4.62-3.56,0-5-2.17-5-5.34V28.08h-8.75v26c0,6.66,3.7,10.69,10.76,10.69,4.95,0,9-2.56,12.49-5.73l1.25,5,7,.04Zm-35.51-28l-2-8.5c-5.5,1-8.81,3.9-11.32,8l-1.68-7.49h-6.49v36h8.5v-20.51c2.91-4.4,7.72-7.17,12.99-7.5Z" fill="#fff"></path><path d="M188.49,24.08l-2-8h-42.49v8h16v40h9V24.08h19.49Z" fill="#fff"></path><path d="M6.12,6.52c.79,.79,1.75,1.59,2.54,2.54,.64,.79,1.59,1.27,2.7,1.11H50.15l.16-.32c-.95-.95-1.91-1.91-2.86-2.86-.48-.64-1.27-.95-1.91-.79H7.23c-.32,0-.79-.16-1.11,.32Z" fill="#fff"></path><path d="M5.32,4.14H44.11l.16-.32c-.64-.79-1.59-1.43-2.23-2.23-.79-.95-2.23-1.59-3.5-1.43H1.99c-.79,.16-1.27,.95-.79,1.43,1.11,1.11,1.91,2.54,4.13,2.54Z" fill="#fff"></path><path d="M12.32,11.93l-.16,.32c.79,.79,1.59,1.43,2.23,2.23,.95,1.27,2.23,1.59,3.66,1.59h20.82c2.23,0,1.91-.16,1.91,1.91v48.8c-.16,1.43,.48,2.86,1.59,3.97l11.92,11.92c.16,.32,.48,.64,.79,.79,.64,.48,1.43,.16,1.59-.64V20.19c0-4.77,.32-3.66-3.02-7.15-.64-.64-1.59-1.11-2.54-1.11H12.32Z" fill="#fff"></path><path d="M65.25,83.94c.95,.32,1.43-.64,1.91-1.11,3.82-3.82,7.63-7.79,11.6-11.6,1.11-1.11,1.75-2.7,1.75-4.29v-16.85c0-.48-.16-.95,.48-1.59,.32,.48,.64,.95,1.11,1.43l28.61,28.61c.95,1.11,2.23,1.59,3.66,1.59h15.42q.16-.16,.32-.16c.16-.16,.32-.16,.32-.16,.16,0,.32-.16,.48-.48,.16-.48,0-.79-.16-1.11-.16-.32-.48-.48-.79-.79l-23.05-23.05c-.32-.48-.79-.95-1.27-1.43l3.02-3.02h-4.45c-1.43,.16-2.23-.64-3.02-1.75,.48-.32,1.11-.16,1.59-.16h7.47c.32,0,.48,0,.64-.16,.64-.48,1.11-.95,1.75-1.59q.16-.16,.32-.32c.64-.64,1.27-1.11,1.75-1.91h-1.91c-4.77,0-9.7-.16-14.47,0-1.43,0-2.23-.64-3.18-1.91h1.75c5.4,0,10.97-.16,16.37,0,2.38,0,4.29-.64,5.88-2.54,.79-.95,1.43-2.07,1.43-3.5V20.04c-.16-4.61,.32-3.5-3.02-6.99-.79-.79-1.75-1.11-2.7-1.11-14.15,0-28.45,.16-42.76,0-.48,0-.95,.16-1.43,.16-.95,0-1.91,.32-2.7,.79s-1.27,.95-1.91,1.59c-.95,1.11-1.43,2.07-1.43,3.66v63.74c0,.79-.32,1.75,.64,2.07Zm15.26-37.51V17.65q0-1.59,1.59-1.59h20.82q1.43,0,1.43,1.43v18.92q0,1.43-1.43,1.43h-10.97c-1.11,0-2.07,.32-2.7,1.11-2.38,2.38-4.77,4.77-7.15,7.31-.48,.48-.79,.95-1.43,1.27-.32-.32-.16-.79-.16-1.11Z" fill="#fff"></path><path d="M108.17,3.82l-3.02-2.86c-.48-.48-1.27-.79-2.07-.79h-21.3c-.48-.16-1.11,0-1.59,.32-1.27,1.11-2.54,2.23-3.66,3.66h31.47l.16-.32Z" fill="#fff"></path><path d="M111.51,7c-.64-.64-1.59-.95-2.54-.95h-33.86c-.48,0-.79,.16-1.11,.48-1.11,1.11-2.23,2.23-3.5,3.34h43.87c-1.11-1.11-2.07-1.91-2.86-2.86Z" fill="#fff"></path></svg> 