<?xml version="1.0" encoding="utf-8"?>
<!-- Generator: Adobe Illustrator 24.0.2, SVG Export Plug-In . SVG Version: 6.00 Build 0)  -->
<svg version="1.1" id="Layer_1" xmlns="http://www.w3.org/2000/svg" xmlns:xlink="http://www.w3.org/1999/xlink" x="0px" y="0px"
	 viewBox="0 0 32 32" style="enable-background:new 0 0 32 32;" xml:space="preserve">
<style type="text/css">
	.st0{fill:#FFFFFF;}
	.st1{fill:none;stroke:#000000;stroke-miterlimit:10;}
</style>
<g transform="translate(1 1)">
	<path class="st0" d="M15,30.8C6.3,30.8-0.8,23.7-0.8,15C-0.8,6.3,6.3-0.8,15-0.8c8.7,0,15.8,7.1,15.8,15.8
		C30.8,23.7,23.7,30.8,15,30.8z M15,0.8C7.1,0.8,0.8,7.1,0.8,15S7.1,29.3,15,29.3S29.3,22.9,29.3,15S22.9,0.8,15,0.8z"/>
	<path class="st0" d="M21.3,12c0,0.1,0,0.3,0,0.4c0,5-4,9-8.9,9.1c0,0-0.1,0-0.1,0l0,0c-1.7,0-3.4-0.5-4.9-1.4c0.3,0,0.5,0,0.8,0
		c1.4,0,2.8-0.5,4-1.4c-1.4,0-2.6-0.9-3-2.2c0.5,0.1,1,0.1,1.4-0.1C9.1,16.1,8,14.8,8,13.3c0,0,0,0,0,0c0.4,0.2,0.9,0.4,1.4,0.4
		c-1.4-0.9-1.8-2.8-1-4.3c1.6,2,4,3.2,6.6,3.3c-0.4-1.7,0.7-3.4,2.4-3.8c1.1-0.3,2.3,0.1,3,0.9c0.7-0.1,1.4-0.4,2-0.8
		c-0.2,0.7-0.7,1.4-1.4,1.8c0.6-0.1,1.2-0.2,1.8-0.5C22.5,10.9,22,11.5,21.3,12L21.3,12z"/>
	<path class="st1" d="M21.8,11.7"/>
</g>
</svg>
