<svg width="172" height="539" viewBox="0 0 172 539" fill="none" xmlns="http://www.w3.org/2000/svg">
<rect width="171.273" height="538.294" fill="#F9F8F7"/>
<rect x="10.8694" y="14.659" width="25.691" height="25.691" rx="6.25806" fill="#A5A0FF" stroke="#A5A0FF" stroke-width="0.658743"/>
<path d="M17.9687 31.3296H16.9955L19.8102 23.6642H20.7683L23.583 31.3296H22.6098L20.3192 24.8769H20.2593L17.9687 31.3296ZM18.328 28.3353H22.2505V29.1587H18.328V28.3353ZM24.7769 31.3296V23.6642H27.4568C27.9908 23.6642 28.4312 23.7565 28.7781 23.9412C29.1249 24.1233 29.3831 24.3691 29.5528 24.6785C29.7225 24.9854 29.8073 25.326 29.8073 25.7003C29.8073 26.0297 29.7487 26.3017 29.6314 26.5163C29.5166 26.7309 29.3644 26.9005 29.1748 27.0253C28.9877 27.1501 28.7843 27.2424 28.5647 27.3023V27.3771C28.7993 27.3921 29.0351 27.4744 29.2721 27.6242C29.5092 27.7739 29.7075 27.9885 29.8672 28.2679C30.0269 28.5474 30.1068 28.8892 30.1068 29.2935C30.1068 29.6777 30.0194 30.0233 29.8448 30.3302C29.6701 30.6372 29.3944 30.8804 29.0176 31.0601C28.6408 31.2398 28.1505 31.3296 27.5467 31.3296H24.7769ZM25.7052 30.5062H27.5467C28.153 30.5062 28.5834 30.3889 28.8379 30.1543C29.0949 29.9173 29.2235 29.6303 29.2235 29.2935C29.2235 29.034 29.1573 28.7944 29.0251 28.5748C28.8928 28.3528 28.7044 28.1756 28.4599 28.0434C28.2154 27.9086 27.9259 27.8412 27.5916 27.8412H25.7052V30.5062ZM25.7052 27.0328H27.4269C27.7063 27.0328 27.9584 26.9779 28.1829 26.8681C28.41 26.7583 28.5897 26.6036 28.7219 26.404C28.8567 26.2044 28.924 25.9698 28.924 25.7003C28.924 25.3635 28.8067 25.0778 28.5722 24.8432C28.3376 24.6062 27.9659 24.4876 27.4568 24.4876H25.7052V27.0328Z" fill="white"/>
<path d="M49.169 20.6876C50.6551 20.6876 51.4772 19.8549 51.7302 19.4439L51.8566 20.54H52.468V16.6297H49.833V17.3465H51.6669C51.6459 18.6639 50.8554 19.9393 49.169 19.9393C47.4404 19.9393 46.2494 18.6429 46.2494 16.8511C46.2494 15.1436 47.4615 13.7629 49.1901 13.7629C50.3494 13.7629 51.0978 14.3742 51.4667 15.3017L52.2255 15.0277C51.7407 13.784 50.634 13.0146 49.169 13.0146C47.0399 13.0146 45.4273 14.6693 45.4273 16.8511C45.4273 19.1277 46.9978 20.6876 49.169 20.6876ZM53.942 20.54H54.743V13.1621H53.942V20.54ZM58.5987 20.6876C60.2851 20.6876 61.2548 19.3069 61.2548 17.9578C61.2548 16.5981 60.2851 15.2279 58.5987 15.2279C56.944 15.2279 55.9637 16.5981 55.9637 17.9578C55.9637 19.3069 56.9018 20.6876 58.5987 20.6876ZM58.5987 19.9603C57.5131 19.9603 56.7648 19.0855 56.7648 17.9578C56.7648 16.8195 57.5131 15.9552 58.5987 15.9552C59.6949 15.9552 60.4537 16.8195 60.4537 17.9578C60.4537 19.0855 59.6949 19.9603 58.5987 19.9603ZM65.0887 20.6771C66.6486 20.6771 67.5444 19.2753 67.5444 17.9472C67.5444 16.6087 66.7434 15.2279 65.0887 15.2279C64.2455 15.2279 63.6552 15.6179 63.2758 16.1238V13.1621H62.4748V20.54H63.1493L63.2547 19.7812C63.592 20.2555 64.1822 20.6771 65.0887 20.6771ZM65.0043 19.9603C63.9609 19.9603 63.2653 19.1066 63.2653 17.9472C63.2653 16.7878 63.9609 15.9446 65.0043 15.9446C66.0372 15.9446 66.7434 16.7773 66.7434 17.9472C66.7434 19.1066 66.0372 19.9603 65.0043 19.9603ZM70.3341 20.6876C71.1563 20.6876 71.6516 20.403 71.9362 20.0025L72.0311 20.54H72.7056V17.083C72.7056 15.8709 71.9046 15.2279 70.6398 15.2279C69.5226 15.2279 68.8269 15.7971 68.6267 16.7773L69.3539 16.967C69.4383 16.3557 69.7755 15.9025 70.6398 15.9025C71.4935 15.9025 71.9046 16.3241 71.9046 17.0935V17.2621L70.5239 17.4624C69.1115 17.6626 68.5424 18.2213 68.5424 19.1277C68.5424 19.9498 69.1431 20.6876 70.3341 20.6876ZM70.5028 19.992C69.7755 19.992 69.3223 19.6441 69.3223 19.0855C69.3223 18.4531 69.8388 18.2213 70.6187 18.1053L71.9046 17.9156V18.6745C71.9046 19.602 71.2195 19.992 70.5028 19.992ZM74.0748 20.54H74.8758V13.1621H74.0748V20.54ZM81.1692 20.54H81.9913V13.9104H84.2679V13.1621H78.9031V13.9104H81.1692V20.54ZM88.9354 18.1791V17.8313C88.9354 16.2503 87.9552 15.2385 86.5112 15.2279C85.0356 15.2279 83.95 16.4716 83.95 17.9578C83.95 19.4544 84.9408 20.6876 86.5218 20.6876C87.7655 20.6876 88.5243 19.9814 88.7878 19.2226L88.0817 19.0012C87.913 19.5282 87.3439 20.0025 86.5218 20.0025C85.4889 20.0025 84.7827 19.2015 84.7405 18.1791H88.9354ZM88.1871 17.5151H84.7511C84.8775 16.6403 85.4994 15.913 86.5218 15.913C87.4598 15.913 88.1238 16.6192 88.1871 17.5151ZM92.513 20.6876C93.6723 20.6876 94.4418 19.9709 94.7685 19.075L94.0412 18.822C93.8094 19.5177 93.2507 19.9603 92.513 19.9603C91.4484 19.9603 90.7106 19.1172 90.7106 17.9578C90.7106 16.7984 91.4484 15.9552 92.513 15.9552C93.2613 15.9552 93.7988 16.3768 94.0307 17.0513L94.758 16.7984C94.4628 15.9236 93.7145 15.2279 92.513 15.2279C90.8687 15.2279 89.9096 16.5665 89.9096 17.9578C89.9096 19.3385 90.8266 20.6876 92.513 20.6876ZM96.0089 20.54H96.8099V17.6099C96.8099 16.577 97.5266 15.9763 98.2855 15.9763C98.9601 15.9763 99.4976 16.2503 99.4976 17.3465V20.54H100.299V17.1567C100.299 15.8076 99.5398 15.2279 98.5279 15.2279C97.8007 15.2279 97.2105 15.5125 96.8099 16.0606V13.1621H96.0089V20.54Z" fill="#423E30"/>
<path d="M45.3483 39.4688H49.4983V38.814H46.3351L47.9767 37.3476C48.7513 36.6651 49.4891 36.0196 49.4891 34.8575C49.4891 33.7232 48.613 32.884 47.3772 32.884C46.2705 32.884 45.2745 33.631 45.2284 34.8391L45.8924 35.0328C45.9016 34.1013 46.5933 33.5387 47.3772 33.5387C48.2072 33.5387 48.7698 34.1105 48.7698 34.8575C48.7698 35.7982 48.115 36.3331 47.4786 36.9049L45.3483 38.8047V39.4688ZM50.297 40.2988L50.6197 40.5847C51.0993 40.1604 51.3299 39.478 51.3299 39.0722C51.3299 38.6572 51.0716 38.4543 50.7857 38.4543C50.5183 38.4543 50.2508 38.6572 50.2508 39.0076C50.2508 39.2566 50.4353 39.4319 50.6566 39.5056C50.6566 39.7731 50.463 40.0959 50.297 40.2988ZM54.1611 39.5979C55.4153 39.5979 56.4113 38.7033 56.4113 37.4306C56.4113 36.1856 55.5075 35.291 54.1887 35.291C53.6354 35.291 53.165 35.5031 52.9622 35.6691L53.1835 33.6679H56.0055V33.0131H52.584L52.2336 36.2317L52.8884 36.4622C53.1005 36.2132 53.5708 35.9273 54.1518 35.9273C55.0741 35.9273 55.7012 36.5729 55.7104 37.4306C55.7012 38.3067 55.0833 38.9431 54.1611 38.9431C53.3403 38.9431 52.6763 38.4266 52.5933 37.6427L51.92 37.8456C52.0122 38.7494 52.9068 39.5979 54.1611 39.5979ZM60.0731 39.4688H60.7925V37.7257H61.7147V37.0986H60.7925V33.0131H60.0455L57.1312 37.1539V37.7257H60.0731V39.4688ZM57.8966 37.1078L60.0731 34.0368V37.0986L57.8966 37.1078ZM64.6345 39.5979C65.9533 39.5979 66.9032 38.6756 66.9032 37.4767C66.9032 36.2686 66.0916 35.4386 64.8281 35.4017L66.479 33.6679V33.0131H62.624V33.6679H65.612L63.7399 35.6322L64.1088 36.0841C64.3117 36.0288 64.4777 36.0011 64.6345 36.0011C65.6028 36.0011 66.1838 36.6467 66.1838 37.4767C66.1838 38.3067 65.5475 38.9431 64.6345 38.9431C63.7768 38.9431 63.1312 38.3159 63.0851 37.5413L62.4303 37.7349C62.4857 38.7494 63.3802 39.5979 64.6345 39.5979ZM67.5439 40.2988L67.8667 40.5847C68.3463 40.1604 68.5768 39.478 68.5768 39.0722C68.5768 38.6572 68.3186 38.4543 68.0327 38.4543C67.7653 38.4543 67.4978 38.6572 67.4978 39.0076C67.4978 39.2566 67.6823 39.4319 67.9036 39.5056C67.9036 39.7731 67.7099 40.0959 67.5439 40.2988ZM69.449 39.4688H73.5991V38.814H70.4358L72.0774 37.3476C72.8521 36.6651 73.5899 36.0196 73.5899 34.8575C73.5899 33.7232 72.7137 32.884 71.4779 32.884C70.3712 32.884 69.3752 33.631 69.3291 34.8391L69.9931 35.0328C70.0023 34.1013 70.694 33.5387 71.4779 33.5387C72.3079 33.5387 72.8705 34.1105 72.8705 34.8575C72.8705 35.7982 72.2157 36.3331 71.5794 36.9049L69.449 38.8047V39.4688ZM76.6668 39.5979C77.9856 39.5979 78.9355 38.6756 78.9355 37.4767C78.9355 36.2686 78.124 35.4386 76.8605 35.4017L78.5113 33.6679V33.0131H74.6563V33.6679H77.6444L75.7723 35.6322L76.1412 36.0841C76.344 36.0288 76.51 36.0011 76.6668 36.0011C77.6352 36.0011 78.2162 36.6467 78.2162 37.4767C78.2162 38.3067 77.5798 38.9431 76.6668 38.9431C75.8091 38.9431 75.1636 38.3159 75.1175 37.5413L74.4627 37.7349C74.518 38.7494 75.4126 39.5979 76.6668 39.5979ZM82.5978 39.4688H83.3171V37.7257H84.2394V37.0986H83.3171V33.0131H82.5701L79.6558 37.1539V37.7257H82.5978V39.4688ZM80.4213 37.1078L82.5978 34.0368V37.0986L80.4213 37.1078ZM85.2166 39.5333C85.521 39.5333 85.7608 39.2935 85.7608 38.9984C85.7608 38.6941 85.521 38.4543 85.2166 38.4543C84.9123 38.4543 84.6817 38.6941 84.6817 38.9984C84.6817 39.2935 84.9123 39.5333 85.2166 39.5333ZM88.6666 39.5979C90.3082 39.5979 90.9907 38.0669 90.9907 36.2132C90.9907 34.4057 90.2805 32.884 88.6666 32.884C87.025 32.884 86.3149 34.4057 86.3149 36.2132C86.3149 38.0669 87.0158 39.5979 88.6666 39.5979ZM88.6666 38.9431C87.5046 38.9431 87.025 37.6796 87.025 36.2409C87.025 34.8114 87.5138 33.5387 88.6666 33.5387C89.801 33.5387 90.2713 34.8114 90.2713 36.2409C90.2713 37.7165 89.8102 38.9431 88.6666 38.9431ZM94.2055 39.5979C95.847 39.5979 96.5295 38.0669 96.5295 36.2132C96.5295 34.4057 95.8194 32.884 94.2055 32.884C92.5639 32.884 91.8537 34.4057 91.8537 36.2132C91.8537 38.0669 92.5547 39.5979 94.2055 39.5979ZM94.2055 38.9431C93.0434 38.9431 92.5639 37.6796 92.5639 36.2409C92.5639 34.8114 93.0527 33.5387 94.2055 33.5387C95.3398 33.5387 95.8102 34.8114 95.8102 36.2409C95.8102 37.7165 95.349 38.9431 94.2055 38.9431ZM100.291 39.4688H104.201V38.8232H101.01V36.5268H103.823V35.8905H101.01V33.6586H104.201V33.0131H100.291V39.4688ZM107.812 39.5979C109.159 39.5979 110.183 38.8416 110.183 37.1447V33.0131H109.463V37.0986C109.463 38.4451 108.753 38.9431 107.812 38.9431C106.863 38.9431 106.171 38.4451 106.171 37.0986V33.0131H105.452V37.1355C105.452 38.7955 106.438 39.5979 107.812 39.5979ZM111.675 39.4688H112.394V36.7297H113.713L115.327 39.4688H116.129L114.46 36.6467C115.152 36.5084 115.88 35.9273 115.88 34.8668C115.88 33.8062 115.198 33.0131 113.787 33.0131H111.675V39.4688ZM112.394 36.0934V33.6586H113.787C114.543 33.6586 115.161 33.9906 115.161 34.8668C115.161 35.7245 114.589 36.0934 113.824 36.0934H112.394Z" fill="#6D6C6B"/>
<g filter="url(#filter0_d_2190_5363)">
<path d="M10.54 69.5008C10.54 67.3179 12.3096 65.5483 14.4925 65.5483H156.122C158.305 65.5483 160.075 67.3179 160.075 69.5008V82.6757C160.075 84.8585 158.305 86.6281 156.122 86.6281H14.4925C12.3096 86.6281 10.54 84.8585 10.54 82.6757V69.5008Z" fill="#420001"/>
<path d="M54.2521 78.7083C55.5801 78.7083 56.6315 77.952 56.6315 76.7716C56.6315 75.6557 55.9213 75.0746 54.4458 74.7795C53.5696 74.5951 53.0901 74.4106 53.0901 73.9034C53.0901 73.3039 53.5696 73.0088 54.2429 73.0088C54.953 73.0088 55.2758 73.3869 55.451 74.051L56.5024 73.7558C56.2257 72.6492 55.4326 71.9944 54.2429 71.9944C52.9056 71.9944 51.9649 72.7783 51.9649 73.9034C51.9649 75.0101 52.7857 75.5727 54.2429 75.8401C55.2389 76.0153 55.5063 76.3381 55.5063 76.7716C55.5063 77.3802 54.9807 77.6938 54.2521 77.6938C53.4313 77.6938 53.0532 77.3157 52.8318 76.5687L51.7805 76.873C52.094 78.0719 52.9794 78.7083 54.2521 78.7083ZM61.8289 76.6517V76.2274C61.8289 74.8256 60.9896 73.8573 59.6524 73.8573C58.3428 73.8573 57.3283 74.8902 57.3283 76.2828C57.3283 77.703 58.3428 78.7175 59.6616 78.7175C60.7867 78.7175 61.4508 78.1273 61.7182 77.3895L60.7867 77.1036C60.6761 77.4171 60.3072 77.8045 59.6616 77.8045C58.933 77.8045 58.435 77.2327 58.3889 76.6517H61.8289ZM60.8513 75.8032H58.3981C58.4996 75.2775 58.9146 74.7703 59.6616 74.7703C60.4547 74.7703 60.8236 75.3882 60.8513 75.8032ZM62.7368 78.5884H63.8435V76.0614C63.8435 75.2775 64.2954 74.881 64.858 74.881C65.3745 74.881 65.7526 75.1392 65.7526 75.9508V78.5884H66.8593V75.8032C66.8593 74.4567 66.2506 73.8573 65.2084 73.8573C64.526 73.8573 64.0925 74.1616 63.8066 74.5397L63.6499 73.9864H62.7368V78.5884ZM69.9984 78.7175C70.7639 78.7175 71.2342 78.3302 71.4648 78.0258L71.6123 78.5884H72.5253V72.1327H71.4187V74.5029C71.1697 74.1801 70.6901 73.8573 69.9892 73.8573C68.6796 73.8573 67.7666 74.9363 67.7666 76.2828C67.7666 77.6292 68.7165 78.7175 69.9984 78.7175ZM70.1552 77.7215C69.4266 77.7215 68.8733 77.122 68.8733 76.2828C68.8733 75.4528 69.4266 74.8533 70.1552 74.8533C70.893 74.8533 71.4279 75.4435 71.4279 76.2828C71.4279 77.122 70.893 77.7215 70.1552 77.7215ZM76.2192 78.5884H77.3259V75.9784C77.3259 75.2406 77.7225 74.881 78.2205 74.881C78.6816 74.881 79.0136 75.1484 79.0136 75.8493V78.5884H80.1203V75.9784C80.1203 75.2499 80.5076 74.881 81.0149 74.881C81.4944 74.881 81.7988 75.1484 81.7988 75.8493V78.5884H82.9054V75.545C82.9054 74.3645 82.2783 73.8573 81.4206 73.8573C80.7105 73.8573 80.231 74.1801 79.9451 74.549C79.7606 74.1893 79.3917 73.8573 78.7 73.8573C78.0452 73.8573 77.5565 74.1616 77.2798 74.5305L77.1322 73.9864H76.2192V78.5884ZM86.1953 78.7175C87.5787 78.7175 88.5931 77.6477 88.5931 76.2828C88.5931 74.9271 87.5787 73.8573 86.1953 73.8573C84.8212 73.8573 83.8067 74.9271 83.8067 76.2828C83.8067 77.6477 84.8027 78.7175 86.1953 78.7175ZM86.1953 77.6938C85.4483 77.6938 84.9134 77.1036 84.9134 76.2828C84.9134 75.4712 85.4483 74.881 86.1953 74.881C86.9331 74.881 87.4865 75.4712 87.4865 76.2828C87.4865 77.1036 86.9331 77.6938 86.1953 77.6938ZM89.4944 78.5884H90.6011V76.0614C90.6011 75.2775 91.053 74.881 91.6156 74.881C92.132 74.881 92.5101 75.1392 92.5101 75.9508V78.5884H93.6168V75.8032C93.6168 74.4567 93.0082 73.8573 91.966 73.8573C91.2836 73.8573 90.8501 74.1616 90.5642 74.5397L90.4074 73.9864H89.4944V78.5884ZM99.0247 76.6517V76.2274C99.0247 74.8256 98.1855 73.8573 96.8482 73.8573C95.5386 73.8573 94.5242 74.8902 94.5242 76.2828C94.5242 77.703 95.5386 78.7175 96.8574 78.7175C97.9826 78.7175 98.6466 78.1273 98.914 77.3895L97.9826 77.1036C97.8719 77.4171 97.503 77.8045 96.8574 77.8045C96.1289 77.8045 95.6309 77.2327 95.5847 76.6517H99.0247ZM98.0471 75.8032H95.594C95.6954 75.2775 96.1104 74.7703 96.8574 74.7703C97.6506 74.7703 98.0195 75.3882 98.0471 75.8032ZM103.031 73.9864V76.3381C103.031 77.1128 102.579 77.5094 101.98 77.5094C101.427 77.5094 101.058 77.2511 101.058 76.4211V73.9864H99.9511V76.6056C99.9511 77.952 100.624 78.5423 101.63 78.5423C102.33 78.5423 102.709 78.284 103.022 77.9059L103.031 77.9336V78.4224C103.031 79.1971 102.616 79.6121 101.943 79.6121C101.362 79.6121 101.058 79.3354 100.966 78.8835L99.9327 79.0956C100.154 79.9164 100.781 80.562 101.943 80.562C103.336 80.562 104.138 79.7043 104.138 78.4132V73.9864H103.031Z" fill="white"/>
<g clip-path="url(#clip0_2190_5363)">
<path d="M115.143 78.2997L118.767 73.6596C118.777 73.6475 118.783 73.6329 118.784 73.6176C118.786 73.6023 118.783 73.5868 118.776 73.5729C118.77 73.559 118.759 73.5473 118.746 73.5392C118.733 73.5311 118.718 73.5268 118.702 73.5269L117.907 73.5269C117.856 73.5269 117.808 73.5505 117.777 73.5896L114.884 77.2951L111.99 73.5896C111.959 73.5495 111.911 73.5269 111.861 73.5269L111.065 73.5269C110.996 73.5269 110.958 73.6061 111 73.6596L114.624 78.2997C114.655 78.3391 114.694 78.371 114.739 78.3929C114.784 78.4149 114.834 78.4263 114.884 78.4263C114.934 78.4263 114.983 78.4149 115.028 78.3929C115.073 78.371 115.112 78.3391 115.143 78.2997Z" fill="white"/>
</g>
<path d="M14.4925 66.2071H156.122V64.8896H14.4925V66.2071ZM159.416 69.5008V82.6757H160.733V69.5008H159.416ZM156.122 85.9694H14.4925V87.2869H156.122V85.9694ZM11.1988 82.6757V69.5008H9.8813V82.6757H11.1988ZM14.4925 85.9694C12.6734 85.9694 11.1988 84.4947 11.1988 82.6757H9.8813C9.8813 85.2224 11.9458 87.2869 14.4925 87.2869V85.9694ZM159.416 82.6757C159.416 84.4947 157.941 85.9694 156.122 85.9694V87.2869C158.669 87.2869 160.733 85.2224 160.733 82.6757H159.416ZM156.122 66.2071C157.941 66.2071 159.416 67.6817 159.416 69.5008H160.733C160.733 66.9541 158.669 64.8896 156.122 64.8896V66.2071ZM14.4925 64.8896C11.9458 64.8896 9.8813 66.9541 9.8813 69.5008H11.1988C11.1988 67.6817 12.6734 66.2071 14.4925 66.2071V64.8896Z" fill="#420001"/>
</g>
<line x1="0.988115" y1="97.168" x2="0.988113" y2="123.518" stroke="#420001" stroke-width="1.97623"/>
<g clip-path="url(#clip1_2190_5363)">
<g clip-path="url(#clip2_2190_5363)">
<path d="M14.657 106.555H11.528C11.4374 106.555 11.3633 106.629 11.3633 106.72V109.849C11.3633 109.939 11.4374 110.014 11.528 110.014H14.657C14.7476 110.014 14.8217 109.939 14.8217 109.849V106.72C14.8217 106.629 14.7476 106.555 14.657 106.555ZM14.1218 109.314H12.0632V107.255H14.1218V109.314ZM18.7741 106.555H15.6451C15.5545 106.555 15.4804 106.629 15.4804 106.72V109.849C15.4804 109.939 15.5545 110.014 15.6451 110.014H18.7741C18.8647 110.014 18.9388 109.939 18.9388 109.849V106.72C18.9388 106.629 18.8647 106.555 18.7741 106.555ZM18.2389 109.314H16.1803V107.255H18.2389V109.314ZM14.657 110.672H11.528C11.4374 110.672 11.3633 110.746 11.3633 110.837V113.966C11.3633 114.057 11.4374 114.131 11.528 114.131H14.657C14.7476 114.131 14.8217 114.057 14.8217 113.966V110.837C14.8217 110.746 14.7476 110.672 14.657 110.672ZM14.1218 113.431H12.0632V111.372H14.1218V113.431ZM18.7741 110.672H15.6451C15.5545 110.672 15.4804 110.746 15.4804 110.837V113.966C15.4804 114.057 15.5545 114.131 15.6451 114.131H18.7741C18.8647 114.131 18.9388 114.057 18.9388 113.966V110.837C18.9388 110.746 18.8647 110.672 18.7741 110.672ZM18.2389 113.431H16.1803V111.372H18.2389V113.431Z" fill="#420001"/>
</g>
<path d="M28.795 112.963C30.8331 112.963 32.0874 111.413 32.0874 109.606C32.0874 107.798 30.8331 106.249 28.795 106.249C26.7291 106.249 25.4933 107.798 25.4933 109.606C25.4933 111.413 26.7384 112.963 28.795 112.963ZM28.795 111.921C27.4485 111.921 26.6185 110.934 26.6185 109.606C26.6185 108.287 27.4577 107.291 28.795 107.291C30.123 107.291 30.9622 108.287 30.9622 109.606C30.9622 110.934 30.123 111.921 28.795 111.921ZM36.1953 108.241L35.0056 111.589L33.8159 108.241H32.6816L34.4246 112.843H35.5866L37.3297 108.241H36.1953ZM42.1047 110.906V110.482C42.1047 109.08 41.2655 108.112 39.9282 108.112C38.6186 108.112 37.6042 109.145 37.6042 110.537C37.6042 111.957 38.6186 112.972 39.9374 112.972C41.0626 112.972 41.7266 112.382 41.994 111.644L41.0626 111.358C40.9519 111.672 40.583 112.059 39.9374 112.059C39.2089 112.059 38.7109 111.487 38.6647 110.906H42.1047ZM41.1271 110.058H38.674C38.7754 109.532 39.1904 109.025 39.9374 109.025C40.7306 109.025 41.0995 109.643 41.1271 110.058ZM43.0127 112.843H44.1194V110.334C44.1194 109.569 44.5528 109.145 45.0877 109.145C45.3552 109.145 45.5488 109.228 45.6411 109.301L46.0376 108.333C45.8901 108.222 45.6134 108.112 45.2445 108.112C44.6635 108.112 44.2761 108.444 44.0825 108.776L43.9257 108.241H43.0127V112.843ZM49.9208 108.241L48.7311 111.589L47.5414 108.241H46.4071L48.1501 112.843H49.3121L51.0552 108.241H49.9208ZM52.3115 107.614C52.6712 107.614 52.9755 107.319 52.9755 106.959C52.9755 106.599 52.6712 106.304 52.3115 106.304C51.9518 106.304 51.666 106.599 51.666 106.959C51.666 107.319 51.9518 107.614 52.3115 107.614ZM51.7766 112.843H52.8833V108.241H51.7766V112.843ZM58.325 110.906V110.482C58.325 109.08 57.4857 108.112 56.1485 108.112C54.8389 108.112 53.8244 109.145 53.8244 110.537C53.8244 111.957 54.8389 112.972 56.1577 112.972C57.2828 112.972 57.9468 112.382 58.2143 111.644L57.2828 111.358C57.1722 111.672 56.8033 112.059 56.1577 112.059C55.4291 112.059 54.9311 111.487 54.885 110.906H58.325ZM57.3474 110.058H54.8942C54.9957 109.532 55.4107 109.025 56.1577 109.025C56.9508 109.025 57.3197 109.643 57.3474 110.058ZM64.4839 108.241L63.5801 111.533L62.6487 108.241H61.6158L60.6843 111.552L59.7713 108.241H58.6646L60.0941 112.843H61.2284L62.1322 109.652L63.036 112.843H64.1612L65.5906 108.241H64.4839Z" fill="#420001"/>
</g>
<g clip-path="url(#clip3_2190_5363)">
<path d="M18.6085 137.516H11.4457C11.4004 137.516 11.3634 137.553 11.3634 137.598V138.216C11.3634 138.261 11.4004 138.298 11.4457 138.298H17.675L16.1897 140.182C16.1475 140.235 16.1856 140.316 16.2546 140.316H17.0008C17.0512 140.316 17.0986 140.293 17.1305 140.253L18.8679 138.049C19.0378 137.833 18.8844 137.516 18.6085 137.516ZM18.8566 135.087H12.6274L14.1126 133.203C14.1548 133.15 14.1167 133.069 14.0478 133.069H13.3015C13.2511 133.069 13.2038 133.092 13.1718 133.132L11.4344 135.336C11.2646 135.552 11.4179 135.869 11.6928 135.869H18.8566C18.9019 135.869 18.9389 135.832 18.9389 135.787V135.169C18.9389 135.124 18.9019 135.087 18.8566 135.087Z" fill="#423E30"/>
<path d="M27.3102 139.192H28.0295V133.391H30.0215V132.737H25.3273V133.391H27.3102V139.192ZM30.1899 139.192H30.8908V136.656C30.8908 135.78 31.4073 135.208 32.0344 135.208C32.3387 135.208 32.5693 135.31 32.6615 135.384L32.9474 134.784C32.8183 134.673 32.514 134.544 32.1174 134.544C31.5272 134.544 31.0937 134.895 30.8816 135.273L30.7802 134.673H30.1899V139.192ZM34.8874 139.321C35.6067 139.321 36.0402 139.072 36.2892 138.722L36.3722 139.192H36.9624V136.167C36.9624 135.107 36.2615 134.544 35.1548 134.544C34.1772 134.544 33.5686 135.042 33.3933 135.9L34.0297 136.066C34.1035 135.531 34.3986 135.135 35.1548 135.135C35.9018 135.135 36.2615 135.503 36.2615 136.177V136.324L35.0534 136.499C33.8176 136.675 33.3196 137.163 33.3196 137.957C33.3196 138.676 33.8452 139.321 34.8874 139.321ZM35.0349 138.713C34.3986 138.713 34.002 138.408 34.002 137.92C34.002 137.366 34.4539 137.163 35.1364 137.062L36.2615 136.896V137.56C36.2615 138.372 35.6621 138.713 35.0349 138.713ZM38.1605 139.192H38.8614V136.619C38.8614 135.725 39.4885 135.199 40.1525 135.199C40.7427 135.199 41.2223 135.439 41.2223 136.398V139.192H41.9232V136.232C41.9232 135.052 41.2592 134.544 40.3646 134.544C39.719 134.544 39.2118 134.793 38.8521 135.282L38.7507 134.673H38.1605V139.192ZM44.8453 139.321C45.7952 139.321 46.5884 138.796 46.5884 137.966C46.5884 137.08 45.9059 136.748 44.9744 136.582C44.3381 136.463 43.8493 136.315 43.8493 135.863C43.8493 135.55 44.0614 135.162 44.8453 135.162C45.5001 135.162 45.8045 135.577 45.8967 136.048L46.5423 135.882C46.3486 135.052 45.786 134.544 44.8453 134.544C43.9508 134.544 43.1761 135.005 43.1761 135.872C43.1761 136.776 43.9508 137.071 44.8546 137.228C45.8506 137.394 45.9059 137.717 45.9059 137.975C45.9059 138.455 45.454 138.704 44.8453 138.704C43.9877 138.704 43.7571 138.159 43.628 137.735L42.9916 137.938C43.2591 138.87 43.8954 139.321 44.8453 139.321ZM49.0362 139.321C49.7555 139.321 50.189 139.072 50.438 138.722L50.521 139.192H51.1112V136.167C51.1112 135.107 50.4103 134.544 49.3036 134.544C48.3261 134.544 47.7174 135.042 47.5422 135.9L48.1785 136.066C48.2523 135.531 48.5474 135.135 49.3036 135.135C50.0507 135.135 50.4103 135.503 50.4103 136.177V136.324L49.2022 136.499C47.9664 136.675 47.4684 137.163 47.4684 137.957C47.4684 138.676 47.9941 139.321 49.0362 139.321ZM49.1838 138.713C48.5474 138.713 48.1508 138.408 48.1508 137.92C48.1508 137.366 48.6027 137.163 49.2852 137.062L50.4103 136.896V137.56C50.4103 138.372 49.8109 138.713 49.1838 138.713ZM54.3659 139.321C55.3803 139.321 56.0536 138.694 56.3395 137.91L55.7031 137.689C55.5002 138.298 55.0115 138.685 54.3659 138.685C53.4344 138.685 52.7889 137.947 52.7889 136.933C52.7889 135.918 53.4344 135.181 54.3659 135.181C55.0207 135.181 55.491 135.55 55.6939 136.14L56.3303 135.918C56.072 135.153 55.4172 134.544 54.3659 134.544C52.9272 134.544 52.0879 135.716 52.0879 136.933C52.0879 138.141 52.8903 139.321 54.3659 139.321ZM58.8288 139.321C59.3453 139.321 59.6588 139.119 59.7695 138.98L59.4098 138.491C59.3268 138.565 59.1608 138.667 58.9395 138.667C58.6075 138.667 58.4138 138.51 58.4138 138.086V135.31H59.7142V134.673H58.4138V133.493H57.7129V134.673H56.8737V135.31H57.7129V138.15C57.7129 138.888 58.1556 139.321 58.8288 139.321ZM61.0731 133.945C61.359 133.945 61.5895 133.714 61.5895 133.419C61.5895 133.124 61.359 132.893 61.0731 132.893C60.7688 132.893 60.5382 133.124 60.5382 133.419C60.5382 133.714 60.7688 133.945 61.0731 133.945ZM60.7226 139.192H61.4235V134.673H60.7226V139.192ZM64.8498 139.321C66.3254 139.321 67.1739 138.113 67.1739 136.933C67.1739 135.743 66.3254 134.544 64.8498 134.544C63.4019 134.544 62.5442 135.743 62.5442 136.933C62.5442 138.113 63.365 139.321 64.8498 139.321ZM64.8498 138.685C63.8999 138.685 63.2451 137.92 63.2451 136.933C63.2451 135.937 63.8999 135.181 64.8498 135.181C65.8089 135.181 66.473 135.937 66.473 136.933C66.473 137.92 65.8089 138.685 64.8498 138.685ZM68.2413 139.192H68.9423V136.619C68.9423 135.725 69.5694 135.199 70.2334 135.199C70.8236 135.199 71.3032 135.439 71.3032 136.398V139.192H72.0041V136.232C72.0041 135.052 71.3401 134.544 70.4455 134.544C69.7999 134.544 69.2927 134.793 68.933 135.282L68.8316 134.673H68.2413V139.192ZM74.9262 139.321C75.8761 139.321 76.6693 138.796 76.6693 137.966C76.6693 137.08 75.9868 136.748 75.0553 136.582C74.419 136.463 73.9302 136.315 73.9302 135.863C73.9302 135.55 74.1423 135.162 74.9262 135.162C75.581 135.162 75.8854 135.577 75.9776 136.048L76.6231 135.882C76.4295 135.052 75.8669 134.544 74.9262 134.544C74.0316 134.544 73.257 135.005 73.257 135.872C73.257 136.776 74.0316 137.071 74.9354 137.228C75.9315 137.394 75.9868 137.717 75.9868 137.975C75.9868 138.455 75.5349 138.704 74.9262 138.704C74.0685 138.704 73.838 138.159 73.7089 137.735L73.0725 137.938C73.34 138.87 73.9763 139.321 74.9262 139.321Z" fill="#423E30"/>
</g>
<g clip-path="url(#clip4_2190_5363)">
<g clip-path="url(#clip5_2190_5363)">
<path d="M18.9567 158.943H11.3811C11.1989 158.943 11.0518 159.091 11.0518 159.273V166.848C11.0518 167.03 11.1989 167.178 11.3811 167.178H18.9567C19.1389 167.178 19.286 167.03 19.286 166.848V159.273C19.286 159.091 19.1389 158.943 18.9567 158.943ZM18.545 163.719H15.3336V162.402H18.545V163.719ZM18.545 166.437H11.7928V159.684H18.545V161.743H15.0042C14.822 161.743 14.6748 161.89 14.6748 162.072V164.049C14.6748 164.231 14.822 164.378 15.0042 164.378H18.545V166.437ZM15.8688 163.061C15.8688 163.17 15.9122 163.274 15.9894 163.352C16.0666 163.429 16.1713 163.472 16.2805 163.472C16.3897 163.472 16.4944 163.429 16.5717 163.352C16.6489 163.274 16.6922 163.17 16.6922 163.061C16.6922 162.951 16.6489 162.847 16.5717 162.769C16.4944 162.692 16.3897 162.649 16.2805 162.649C16.1713 162.649 16.0666 162.692 15.9894 162.769C15.9122 162.847 15.8688 162.951 15.8688 163.061Z" fill="#423E30"/>
</g>
<path d="M30.0861 165.542H30.8331L28.4168 159.086H27.6791L25.272 165.542H26.0098L26.683 163.734H29.4129L30.0861 165.542ZM26.9228 163.089L28.048 160.055L29.1731 163.089H26.9228ZM33.4984 165.671C34.5129 165.671 35.1861 165.044 35.472 164.26L34.8356 164.039C34.6327 164.647 34.144 165.035 33.4984 165.035C32.5669 165.035 31.9214 164.297 31.9214 163.283C31.9214 162.268 32.5669 161.53 33.4984 161.53C34.1532 161.53 34.6235 161.899 34.8264 162.489L35.4628 162.268C35.2045 161.503 34.5497 160.894 33.4984 160.894C32.0597 160.894 31.2205 162.065 31.2205 163.283C31.2205 164.491 32.0228 165.671 33.4984 165.671ZM38.6139 165.671C39.6284 165.671 40.3016 165.044 40.5875 164.26L39.9512 164.039C39.7483 164.647 39.2595 165.035 38.6139 165.035C37.6825 165.035 37.0369 164.297 37.0369 163.283C37.0369 162.268 37.6825 161.53 38.6139 161.53C39.2687 161.53 39.7391 161.899 39.942 162.489L40.5783 162.268C40.3201 161.503 39.6653 160.894 38.6139 160.894C37.1753 160.894 36.336 162.065 36.336 163.283C36.336 164.491 37.1384 165.671 38.6139 165.671ZM43.7572 165.671C45.2327 165.671 46.0812 164.463 46.0812 163.283C46.0812 162.093 45.2327 160.894 43.7572 160.894C42.3092 160.894 41.4516 162.093 41.4516 163.283C41.4516 164.463 42.2724 165.671 43.7572 165.671ZM43.7572 165.035C42.8073 165.035 42.1525 164.269 42.1525 163.283C42.1525 162.286 42.8073 161.53 43.7572 161.53C44.7163 161.53 45.3803 162.286 45.3803 163.283C45.3803 164.269 44.7163 165.035 43.7572 165.035ZM50.9114 161.023H50.2105V163.596C50.2105 164.491 49.5742 165.016 48.9194 165.016C48.3292 165.016 47.8496 164.777 47.8496 163.817V161.023H47.1487V163.983C47.1487 165.164 47.8127 165.671 48.6981 165.671C49.3436 165.671 49.8509 165.422 50.2105 164.933L50.3212 165.542H50.9114V161.023ZM52.2012 165.542H52.9021V162.969C52.9021 162.074 53.5292 161.549 54.1933 161.549C54.7835 161.549 55.263 161.788 55.263 162.748V165.542H55.964V162.582C55.964 161.401 55.2999 160.894 54.4054 160.894C53.7598 160.894 53.2526 161.143 52.8929 161.632L52.7914 161.023H52.2012V165.542ZM58.6757 165.671C59.1922 165.671 59.5057 165.468 59.6164 165.33L59.2567 164.841C59.1737 164.915 59.0077 165.016 58.7864 165.016C58.4544 165.016 58.2607 164.86 58.2607 164.435V161.659H59.5611V161.023H58.2607V159.843H57.5598V161.023H56.7206V161.659H57.5598V164.5C57.5598 165.238 58.0025 165.671 58.6757 165.671ZM62.0653 165.671C63.0152 165.671 63.8083 165.145 63.8083 164.315C63.8083 163.43 63.1259 163.098 62.1944 162.932C61.5581 162.812 61.0693 162.665 61.0693 162.213C61.0693 161.899 61.2814 161.512 62.0653 161.512C62.7201 161.512 63.0244 161.927 63.1166 162.397L63.7622 162.231C63.5685 161.401 63.006 160.894 62.0653 160.894C61.1707 160.894 60.396 161.355 60.396 162.222C60.396 163.126 61.1707 163.421 62.0745 163.578C63.0705 163.744 63.1259 164.066 63.1259 164.325C63.1259 164.804 62.674 165.053 62.0653 165.053C61.2076 165.053 60.977 164.509 60.8479 164.085L60.2116 164.288C60.479 165.219 61.1154 165.671 62.0653 165.671Z" fill="#423E30"/>
</g>
<g clip-path="url(#clip6_2190_5363)">
<g clip-path="url(#clip7_2190_5363)">
<path d="M19.4331 185.767H10.8694C10.6872 185.767 10.54 185.914 10.54 186.096V192.684C10.54 192.866 10.6872 193.013 10.8694 193.013H19.4331C19.6153 193.013 19.7624 192.866 19.7624 192.684V186.096C19.7624 185.914 19.6153 185.767 19.4331 185.767ZM11.2811 186.508H19.0214V187.743H11.2811V186.508ZM19.0214 192.272H11.2811V188.649H19.0214V192.272ZM16.5819 191.613H18.2803C18.3256 191.613 18.3626 191.576 18.3626 191.531V190.79C18.3626 190.745 18.3256 190.708 18.2803 190.708H16.5819C16.5367 190.708 16.4996 190.745 16.4996 190.79V191.531C16.4996 191.576 16.5367 191.613 16.5819 191.613Z" fill="#423E30"/>
</g>
<path d="M28.8411 192.021C30.2429 192.021 31.202 191.283 31.617 190.14L30.9438 189.918C30.6394 190.776 29.9478 191.366 28.8411 191.366C27.3471 191.366 26.3049 190.26 26.3049 188.664C26.3049 187.115 27.3747 185.962 28.8226 185.962C29.8648 185.962 30.621 186.515 30.9622 187.539L31.6447 187.309C31.2297 186.091 30.2244 185.307 28.8226 185.307C26.9597 185.307 25.5856 186.737 25.5856 188.664C25.5856 190.629 26.9136 192.021 28.8411 192.021ZM34.1218 192.021C34.8412 192.021 35.2746 191.772 35.5236 191.422L35.6066 191.892H36.1969V188.867C36.1969 187.807 35.496 187.244 34.3893 187.244C33.4117 187.244 32.803 187.742 32.6278 188.6L33.2642 188.766C33.3379 188.231 33.6331 187.834 34.3893 187.834C35.1363 187.834 35.496 188.203 35.496 188.876V189.024L34.2878 189.199C33.052 189.374 32.554 189.863 32.554 190.656C32.554 191.376 33.0797 192.021 34.1218 192.021ZM34.2694 191.413C33.6331 191.413 33.2365 191.108 33.2365 190.619C33.2365 190.066 33.6884 189.863 34.3708 189.762L35.496 189.596V190.26C35.496 191.071 34.8965 191.413 34.2694 191.413ZM37.3949 191.892H38.0958V189.356C38.0958 188.48 38.6123 187.908 39.2394 187.908C39.5438 187.908 39.7743 188.009 39.8665 188.083L40.1524 187.484C40.0233 187.373 39.719 187.244 39.3224 187.244C38.7322 187.244 38.2987 187.594 38.0866 187.973L37.9852 187.373H37.3949V191.892ZM42.6007 192.012C43.3938 192.012 43.9103 191.643 44.2146 191.228L44.3068 191.892H44.8878V185.436H44.1869V188.028C43.8642 187.585 43.3385 187.244 42.6007 187.244C41.1528 187.244 40.4519 188.452 40.4519 189.623C40.4519 190.785 41.245 192.012 42.6007 192.012ZM42.6745 191.385C41.7707 191.385 41.1528 190.638 41.1528 189.623C41.1528 188.6 41.7707 187.871 42.6745 187.871C43.5875 187.871 44.1962 188.609 44.1962 189.623C44.1962 190.638 43.5875 191.385 42.6745 191.385ZM47.8084 192.021C48.7583 192.021 49.5514 191.496 49.5514 190.666C49.5514 189.78 48.869 189.448 47.9375 189.282C47.3012 189.162 46.8124 189.015 46.8124 188.563C46.8124 188.249 47.0245 187.862 47.8084 187.862C48.4632 187.862 48.7675 188.277 48.8597 188.747L49.5053 188.581C49.3116 187.751 48.7491 187.244 47.8084 187.244C46.9138 187.244 46.1391 187.705 46.1391 188.572C46.1391 189.476 46.9138 189.771 47.8176 189.928C48.8136 190.094 48.869 190.417 48.869 190.675C48.869 191.154 48.4171 191.403 47.8084 191.403C46.9507 191.403 46.7202 190.859 46.591 190.435L45.9547 190.638C46.2221 191.569 46.8585 192.021 47.8084 192.021Z" fill="#423E30"/>
</g>
<g clip-path="url(#clip8_2190_5363)">
<g clip-path="url(#clip9_2190_5363)">
<path d="M19.3257 212.005L18.8893 211.569C18.8728 211.552 18.8522 211.545 18.8306 211.545C18.809 211.545 18.7884 211.553 18.7719 211.569L17.9886 212.352C17.6481 212.121 17.2461 211.998 16.8348 211.999C16.3078 211.999 15.7808 212.2 15.3784 212.602L14.3295 213.651C14.3142 213.666 14.3056 213.687 14.3056 213.709C14.3056 213.731 14.3142 213.752 14.3295 213.767L17.1261 216.564C17.1426 216.58 17.1632 216.587 17.1848 216.587C17.2054 216.587 17.227 216.579 17.2434 216.564L18.2923 215.515C19.0015 214.805 19.0848 213.706 18.5424 212.906L19.3257 212.122C19.3576 212.089 19.3576 212.037 19.3257 212.005ZM17.7962 215.02L17.1848 215.631L15.2621 213.708L15.8735 213.097C16.1298 212.841 16.4715 212.699 16.8348 212.699C17.1982 212.699 17.5388 212.84 17.7962 213.097C18.0525 213.353 18.1945 213.695 18.1945 214.058C18.1945 214.422 18.0525 214.762 17.7962 215.02ZM15.8385 216.101C15.823 216.085 15.8021 216.077 15.7803 216.077C15.7585 216.077 15.7376 216.085 15.7222 216.101L15.0367 216.786L14.1072 215.857L14.7937 215.17C14.8257 215.138 14.8257 215.086 14.7937 215.054L14.4191 214.679C14.4036 214.664 14.3827 214.655 14.3609 214.655C14.3391 214.655 14.3183 214.664 14.3028 214.679L13.6162 215.366L13.1736 214.923C13.166 214.915 13.1568 214.909 13.1467 214.905C13.1366 214.901 13.1258 214.899 13.115 214.899C13.0944 214.899 13.0728 214.908 13.0563 214.923L12.0085 215.972C11.2993 216.682 11.2159 217.78 11.7584 218.581L10.9751 219.364C10.9598 219.38 10.9512 219.401 10.9512 219.423C10.9512 219.444 10.9598 219.465 10.9751 219.481L11.4115 219.917C11.428 219.934 11.4486 219.941 11.4702 219.941C11.4918 219.941 11.5124 219.933 11.5288 219.917L12.3121 219.134C12.659 219.37 13.0625 219.487 13.466 219.487C13.993 219.487 14.52 219.286 14.9224 218.884L15.9712 217.835C16.0032 217.803 16.0032 217.75 15.9712 217.719L15.5287 217.276L16.2152 216.589C16.2471 216.558 16.2471 216.505 16.2152 216.473L15.8385 216.101ZM14.4263 218.39C14.3003 218.516 14.1505 218.617 13.9855 218.685C13.8205 218.753 13.6435 218.788 13.4649 218.788C13.1016 218.788 12.7609 218.647 12.5036 218.39C12.377 218.264 12.2766 218.114 12.2082 217.949C12.1398 217.784 12.1048 217.607 12.1052 217.428C12.1052 217.065 12.2463 216.724 12.5036 216.467L13.115 215.856L15.0377 217.778L14.4263 218.39Z" fill="#423E30"/>
</g>
<path d="M25.7792 218.242H26.4986V211.787H25.7792V218.242ZM27.8933 218.242H28.5942V215.669C28.5942 214.775 29.2214 214.249 29.8854 214.249C30.4756 214.249 30.9552 214.489 30.9552 215.448V218.242H31.6561V215.282C31.6561 214.101 30.9921 213.594 30.0975 213.594C29.4519 213.594 28.9447 213.843 28.585 214.332L28.4836 213.723H27.8933V218.242ZM34.3678 218.371C34.8843 218.371 35.1978 218.168 35.3085 218.03L34.9488 217.541C34.8658 217.615 34.6998 217.717 34.4785 217.717C34.1465 217.717 33.9528 217.56 33.9528 217.135V214.36H35.2532V213.723H33.9528V212.543H33.2519V213.723H32.4127V214.36H33.2519V217.2C33.2519 217.938 33.6946 218.371 34.3678 218.371ZM40.0768 216.176V215.872C40.0768 214.489 39.2191 213.603 37.9556 213.594C36.6645 213.594 35.7146 214.682 35.7146 215.983C35.7146 217.292 36.5815 218.371 37.9648 218.371C39.0531 218.371 39.7171 217.753 39.9477 217.089L39.3298 216.896C39.1822 217.357 38.6842 217.772 37.9648 217.772C37.0611 217.772 36.4431 217.071 36.4063 216.176H40.0768ZM39.422 215.595H36.4155C36.5262 214.83 37.0703 214.194 37.9648 214.194C38.7856 214.194 39.3667 214.811 39.422 215.595ZM43.1426 220.29C44.7749 220.29 45.3467 219.247 45.3467 218.251V213.723H44.7565L44.6458 214.369C44.3507 213.945 43.8527 213.594 43.0688 213.594C41.6947 213.594 40.9292 214.802 40.9292 215.955C40.9292 217.108 41.6393 218.288 43.078 218.288C43.8527 218.288 44.3876 217.892 44.6458 217.458V218.27C44.6458 219.118 44.1755 219.681 43.1426 219.681C42.3679 219.681 41.9621 219.294 41.8053 218.685L41.1413 218.842C41.3719 219.672 41.9806 220.29 43.1426 220.29ZM43.161 217.661C42.2572 217.661 41.6301 216.969 41.6301 215.955C41.6301 214.931 42.2296 214.221 43.1426 214.221C44.0279 214.221 44.6458 214.931 44.6458 215.955C44.6458 216.969 44.0372 217.661 43.161 217.661ZM46.6353 218.242H47.3362V215.706C47.3362 214.83 47.8527 214.258 48.4798 214.258C48.7842 214.258 49.0147 214.36 49.107 214.433L49.3928 213.834C49.2637 213.723 48.9594 213.594 48.5628 213.594C47.9726 213.594 47.5391 213.945 47.327 214.323L47.2256 213.723H46.6353V218.242ZM51.3328 218.371C52.0521 218.371 52.4856 218.122 52.7346 217.772L52.8176 218.242H53.4078V215.217C53.4078 214.157 52.7069 213.594 51.6002 213.594C50.6227 213.594 50.014 214.092 49.8388 214.95L50.4751 215.116C50.5489 214.581 50.844 214.184 51.6002 214.184C52.3473 214.184 52.7069 214.553 52.7069 215.226V215.374L51.4988 215.549C50.263 215.724 49.765 216.213 49.765 217.006C49.765 217.726 50.2907 218.371 51.3328 218.371ZM51.4804 217.763C50.844 217.763 50.4474 217.458 50.4474 216.969C50.4474 216.416 50.8993 216.213 51.5818 216.112L52.7069 215.946V216.61C52.7069 217.421 52.1075 217.763 51.4804 217.763ZM56.0999 218.371C56.6164 218.371 56.9299 218.168 57.0406 218.03L56.6809 217.541C56.5979 217.615 56.4319 217.717 56.2106 217.717C55.8786 217.717 55.6849 217.56 55.6849 217.135V214.36H56.9853V213.723H55.6849V212.543H54.984V213.723H54.1448V214.36H54.984V217.2C54.984 217.938 55.4267 218.371 56.0999 218.371ZM58.3442 212.995C58.6301 212.995 58.8606 212.764 58.8606 212.469C58.8606 212.174 58.6301 211.943 58.3442 211.943C58.0399 211.943 57.8093 212.174 57.8093 212.469C57.8093 212.764 58.0399 212.995 58.3442 212.995ZM57.9937 218.242H58.6946V213.723H57.9937V218.242ZM62.1209 218.371C63.5965 218.371 64.445 217.163 64.445 215.983C64.445 214.793 63.5965 213.594 62.1209 213.594C60.673 213.594 59.8153 214.793 59.8153 215.983C59.8153 217.163 60.6361 218.371 62.1209 218.371ZM62.1209 217.735C61.171 217.735 60.5162 216.969 60.5162 215.983C60.5162 214.987 61.171 214.23 62.1209 214.23C63.08 214.23 63.7441 214.987 63.7441 215.983C63.7441 216.969 63.08 217.735 62.1209 217.735ZM65.5125 218.242H66.2134V215.669C66.2134 214.775 66.8405 214.249 67.5045 214.249C68.0947 214.249 68.5743 214.489 68.5743 215.448V218.242H69.2752V215.282C69.2752 214.101 68.6112 213.594 67.7166 213.594C67.071 213.594 66.5638 213.843 66.2041 214.332L66.1027 213.723H65.5125V218.242ZM72.1973 218.371C73.1472 218.371 73.9404 217.846 73.9404 217.016C73.9404 216.13 73.2579 215.798 72.3264 215.632C71.6901 215.512 71.2013 215.365 71.2013 214.913C71.2013 214.599 71.4134 214.212 72.1973 214.212C72.8521 214.212 73.1565 214.627 73.2487 215.097L73.8943 214.931C73.7006 214.101 73.138 213.594 72.1973 213.594C71.3028 213.594 70.5281 214.055 70.5281 214.922C70.5281 215.826 71.3028 216.121 72.2066 216.278C73.2026 216.444 73.2579 216.767 73.2579 217.025C73.2579 217.504 72.806 217.753 72.1973 217.753C71.3396 217.753 71.1091 217.209 70.98 216.785L70.3436 216.988C70.6111 217.919 71.2474 218.371 72.1973 218.371Z" fill="#423E30"/>
</g>
<line x1="-2.87946e-08" y1="391.723" x2="171.273" y2="391.723" stroke="#E5E4E1" stroke-width="0.658743"/>
<g clip-path="url(#clip10_2190_5363)">
<g clip-path="url(#clip11_2190_5363)">
<path d="M18.7452 413.085C18.551 412.625 18.2693 412.207 17.9156 411.855C17.563 411.501 17.1453 411.22 16.6856 411.025C16.6815 411.023 16.6774 411.022 16.6733 411.02C17.3145 410.557 17.7314 409.802 17.7314 408.951C17.7314 407.541 16.5889 406.398 15.1787 406.398C13.7686 406.398 12.6261 407.541 12.6261 408.951C12.6261 409.802 13.043 410.557 13.6842 411.021C13.6801 411.023 13.676 411.024 13.6719 411.026C13.2107 411.221 12.797 411.5 12.4419 411.856C12.0885 412.208 11.8068 412.626 11.6123 413.086C11.4211 413.536 11.3181 414.018 11.3086 414.507C11.3083 414.518 11.3103 414.529 11.3143 414.539C11.3183 414.55 11.3243 414.559 11.332 414.567C11.3397 414.575 11.3488 414.581 11.359 414.585C11.3691 414.589 11.38 414.592 11.391 414.592H12.0085C12.0538 414.592 12.0898 414.556 12.0909 414.511C12.1115 413.717 12.4305 412.972 12.9946 412.408C13.5782 411.825 14.3532 411.504 15.1787 411.504C16.0042 411.504 16.7793 411.825 17.3629 412.408C17.9269 412.972 18.246 413.717 18.2666 414.511C18.2676 414.557 18.3036 414.592 18.3489 414.592H18.9665C18.9775 414.592 18.9884 414.589 18.9985 414.585C19.0086 414.581 19.0178 414.575 19.0255 414.567C19.0331 414.559 19.0392 414.55 19.0432 414.539C19.0472 414.529 19.0491 414.518 19.0488 414.507C19.0386 414.015 18.9367 413.537 18.7452 413.085ZM15.1787 410.721C14.7063 410.721 14.2616 410.537 13.9271 410.203C13.5926 409.868 13.4084 409.424 13.4084 408.951C13.4084 408.479 13.5926 408.034 13.9271 407.699C14.2616 407.365 14.7063 407.181 15.1787 407.181C15.6512 407.181 16.0958 407.365 16.4303 407.699C16.7649 408.034 16.9491 408.479 16.9491 408.951C16.9491 409.424 16.7649 409.868 16.4303 410.203C16.0958 410.537 15.6512 410.721 15.1787 410.721Z" fill="#423E30"/>
</g>
<path d="M32.1888 406.542H31.3404L29.0071 412.048L26.6646 406.542H25.8161V412.998H26.517L26.5355 407.861L28.712 412.998H29.2838L31.4787 407.842V412.998H32.1888V406.542ZM34.0363 407.75C34.3222 407.75 34.5528 407.519 34.5528 407.224C34.5528 406.929 34.3222 406.699 34.0363 406.699C33.732 406.699 33.5014 406.929 33.5014 407.224C33.5014 407.519 33.732 407.75 34.0363 407.75ZM33.6859 412.998H34.3868V408.479H33.6859V412.998ZM37.7854 413.127C38.7998 413.127 39.4731 412.5 39.759 411.716L39.1226 411.494C38.9197 412.103 38.4309 412.49 37.7854 412.49C36.8539 412.49 36.2083 411.753 36.2083 410.738C36.2083 409.724 36.8539 408.986 37.7854 408.986C38.4402 408.986 38.9105 409.355 39.1134 409.945L39.7497 409.724C39.4915 408.958 38.8367 408.349 37.7854 408.349C36.3467 408.349 35.5074 409.521 35.5074 410.738C35.5074 411.946 36.3098 413.127 37.7854 413.127ZM40.8443 412.998H41.5452V410.434C41.5452 409.53 42.1724 409.004 42.8364 409.004C43.4266 409.004 43.8969 409.244 43.8969 410.203V412.998H44.5978V410.037C44.5978 408.857 43.9338 408.349 43.0485 408.349C42.4121 408.349 41.8957 408.598 41.5452 409.078V406.542H40.8443V412.998ZM47.262 413.127C47.9813 413.127 48.4148 412.878 48.6638 412.527L48.7468 412.998H49.337V409.973C49.337 408.912 48.6361 408.349 47.5294 408.349C46.5518 408.349 45.9432 408.847 45.7679 409.705L46.4043 409.871C46.4781 409.336 46.7732 408.94 47.5294 408.94C48.2764 408.94 48.6361 409.309 48.6361 409.982V410.129L47.428 410.305C46.1922 410.48 45.6942 410.969 45.6942 411.762C45.6942 412.481 46.2198 413.127 47.262 413.127ZM47.4095 412.518C46.7732 412.518 46.3766 412.214 46.3766 411.725C46.3766 411.172 46.8285 410.969 47.511 410.867L48.6361 410.701V411.365C48.6361 412.177 48.0366 412.518 47.4095 412.518ZM54.6759 410.932V410.627C54.6759 409.244 53.8182 408.359 52.5548 408.349C51.2636 408.349 50.3137 409.438 50.3137 410.738C50.3137 412.048 51.1806 413.127 52.564 413.127C53.6522 413.127 54.3162 412.509 54.5468 411.845L53.9289 411.651C53.7813 412.112 53.2833 412.527 52.564 412.527C51.6602 412.527 51.0423 411.826 51.0054 410.932H54.6759ZM54.0211 410.351H51.0146C51.1253 409.585 51.6694 408.949 52.564 408.949C53.3848 408.949 53.9658 409.567 54.0211 410.351ZM55.7497 412.998H56.4506V406.542H55.7497V412.998Z" fill="#423E30"/>
</g>
<g clip-path="url(#clip12_2190_5363)">
<g clip-path="url(#clip13_2190_5363)">
<path d="M19.4003 438.019L18.7261 437.443C18.758 437.247 18.7745 437.048 18.7745 436.848C18.7745 436.648 18.758 436.449 18.7261 436.253L19.4003 435.677C19.4511 435.633 19.4875 435.575 19.5046 435.51C19.5217 435.446 19.5187 435.377 19.496 435.314L19.4867 435.288C19.3011 434.769 19.0232 434.288 18.6664 433.868L18.6479 433.847C18.6046 433.796 18.5469 433.759 18.4824 433.742C18.4179 433.724 18.3496 433.727 18.2866 433.749L17.4498 434.046C17.141 433.793 16.7962 433.593 16.4236 433.453L16.262 432.579C16.2498 432.513 16.2179 432.452 16.1704 432.405C16.123 432.358 16.0623 432.326 15.9964 432.314L15.9686 432.309C15.4324 432.212 14.8683 432.212 14.3321 432.309L14.3043 432.314C14.2384 432.326 14.1777 432.358 14.1303 432.405C14.0829 432.452 14.0509 432.513 14.0387 432.579L13.8761 433.458C13.5065 433.598 13.1623 433.797 12.8571 434.048L12.0141 433.749C11.9511 433.727 11.8828 433.724 11.8182 433.741C11.7537 433.759 11.696 433.796 11.6528 433.847L11.6343 433.868C11.2779 434.288 11 434.769 10.814 435.288L10.8047 435.314C10.7584 435.443 10.7965 435.587 10.9004 435.677L11.5829 436.259C11.5509 436.453 11.5355 436.65 11.5355 436.847C11.5355 437.045 11.5509 437.242 11.5829 437.435L10.9004 438.017C10.8496 438.061 10.8132 438.119 10.7961 438.184C10.779 438.248 10.782 438.317 10.8047 438.38L10.814 438.406C11.0003 438.925 11.2761 439.404 11.6343 439.826L11.6528 439.847C11.6961 439.898 11.7538 439.935 11.8183 439.952C11.8828 439.97 11.9511 439.967 12.0141 439.945L12.8571 439.646C13.1638 439.898 13.5066 440.098 13.8761 440.236L14.0387 441.115C14.0509 441.181 14.0829 441.242 14.1303 441.289C14.1777 441.336 14.2384 441.368 14.3043 441.38L14.3321 441.385C14.8733 441.482 15.4275 441.482 15.9686 441.385L15.9964 441.38C16.0623 441.368 16.123 441.336 16.1704 441.289C16.2179 441.242 16.2498 441.181 16.262 441.115L16.4236 440.241C16.796 440.101 17.1428 439.901 17.4498 439.648L18.2866 439.945C18.3496 439.967 18.4179 439.97 18.4825 439.953C18.547 439.935 18.6047 439.898 18.6479 439.847L18.6664 439.826C19.0246 439.403 19.3004 438.925 19.4867 438.406L19.496 438.38C19.5423 438.253 19.5042 438.109 19.4003 438.019ZM17.9953 436.375C18.021 436.53 18.0344 436.69 18.0344 436.849C18.0344 437.009 18.021 437.168 17.9953 437.324L17.9274 437.736L18.6963 438.394C18.5797 438.663 18.4326 438.917 18.2578 439.152L17.3026 438.813L16.9794 439.079C16.7334 439.28 16.4596 439.439 16.1632 439.55L15.771 439.697L15.5868 440.696C15.2961 440.728 15.0026 440.728 14.7119 440.696L14.5276 439.695L14.1386 439.546C13.8452 439.435 13.5725 439.276 13.3285 439.075L13.0053 438.809L12.044 439.151C11.869 438.915 11.7228 438.661 11.6055 438.393L12.3826 437.729L12.3157 437.317C12.291 437.164 12.2776 437.006 12.2776 436.849C12.2776 436.692 12.29 436.534 12.3157 436.381L12.3826 435.969L11.6055 435.305C11.7218 435.037 11.869 434.783 12.044 434.548L13.0053 434.889L13.3285 434.623C13.5725 434.422 13.8452 434.264 14.1386 434.152L14.5287 434.005L14.7129 433.005C15.0021 432.972 15.2975 432.972 15.5878 433.005L15.772 434.003L16.1642 434.15C16.4596 434.261 16.7344 434.42 16.9804 434.622L17.3036 434.887L18.2588 434.549C18.4338 434.784 18.5799 435.039 18.6973 435.306L17.9284 435.964L17.9953 436.375ZM15.1514 434.935C14.1509 434.935 13.3398 435.746 13.3398 436.746C13.3398 437.747 14.1509 438.558 15.1514 438.558C16.1519 438.558 16.9629 437.747 16.9629 436.746C16.9629 435.746 16.1519 434.935 15.1514 434.935ZM15.9666 437.561C15.8597 437.669 15.7326 437.754 15.5927 437.812C15.4528 437.869 15.3028 437.899 15.1514 437.899C14.8436 437.899 14.5544 437.779 14.3362 437.561C14.229 437.454 14.1439 437.327 14.086 437.187C14.0281 437.048 13.9984 436.898 13.9986 436.746C13.9986 436.438 14.119 436.149 14.3362 435.931C14.5544 435.713 14.8436 435.593 15.1514 435.593C15.4591 435.593 15.7484 435.713 15.9666 435.931C16.0738 436.038 16.1588 436.165 16.2168 436.305C16.2747 436.445 16.3044 436.595 16.3042 436.746C16.3042 437.054 16.1838 437.343 15.9666 437.561Z" fill="#423E30"/>
</g>
<path d="M27.8819 439.468C29.1639 439.468 30.1691 438.748 30.1691 437.614C30.1691 436.516 29.4405 435.991 28.0387 435.714C26.9874 435.511 26.4064 435.271 26.4064 434.57C26.4064 433.823 27.015 433.399 27.8727 433.399C28.7765 433.399 29.2008 433.934 29.3852 434.718L30.0584 434.524C29.7725 433.427 29.0809 432.754 27.8727 432.754C26.6646 432.754 25.687 433.436 25.687 434.57C25.687 435.686 26.6 436.166 27.9096 436.406C29.3483 436.673 29.4498 437.18 29.4498 437.614C29.4498 438.425 28.7581 438.822 27.8819 438.822C26.9136 438.822 26.3695 438.361 26.1297 437.42L25.4565 437.614C25.7792 438.868 26.6277 439.468 27.8819 439.468ZM35.3755 437.282V436.977C35.3755 435.594 34.5178 434.709 33.2544 434.7C31.9632 434.7 31.0133 435.788 31.0133 437.088C31.0133 438.398 31.8802 439.477 33.2636 439.477C34.3518 439.477 35.0158 438.859 35.2464 438.195L34.6285 438.001C34.4809 438.462 33.9829 438.877 33.2636 438.877C32.3598 438.877 31.7419 438.176 31.705 437.282H35.3755ZM34.7207 436.701H31.7142C31.8249 435.935 32.369 435.299 33.2636 435.299C34.0844 435.299 34.6654 435.917 34.7207 436.701ZM37.8532 439.477C38.3697 439.477 38.6833 439.274 38.7939 439.136L38.4343 438.647C38.3513 438.721 38.1852 438.822 37.9639 438.822C37.6319 438.822 37.4382 438.665 37.4382 438.241V435.465H38.7386V434.829H37.4382V433.648H36.7373V434.829H35.8981V435.465H36.7373V438.306C36.7373 439.043 37.18 439.477 37.8532 439.477ZM41.2486 439.477C41.7651 439.477 42.0786 439.274 42.1893 439.136L41.8296 438.647C41.7466 438.721 41.5806 438.822 41.3593 438.822C41.0273 438.822 40.8336 438.665 40.8336 438.241V435.465H42.1339V434.829H40.8336V433.648H40.1327V434.829H39.2934V435.465H40.1327V438.306C40.1327 439.043 40.5754 439.477 41.2486 439.477ZM43.4929 434.1C43.7788 434.1 44.0093 433.87 44.0093 433.574C44.0093 433.279 43.7788 433.049 43.4929 433.049C43.1885 433.049 42.958 433.279 42.958 433.574C42.958 433.87 43.1885 434.1 43.4929 434.1ZM43.1424 439.348H43.8433V434.829H43.1424V439.348ZM45.1853 439.348H45.8862V436.775C45.8862 435.88 46.5134 435.354 47.1774 435.354C47.7676 435.354 48.2472 435.594 48.2472 436.553V439.348H48.9481V436.387C48.9481 435.207 48.2841 434.7 47.3895 434.7C46.7439 434.7 46.2367 434.949 45.877 435.437L45.7756 434.829H45.1853V439.348ZM52.2299 441.395C53.8623 441.395 54.434 440.353 54.434 439.357V434.829H53.8438L53.7331 435.474C53.438 435.05 52.94 434.7 52.1561 434.7C50.782 434.7 50.0165 435.908 50.0165 437.061C50.0165 438.213 50.7266 439.394 52.1653 439.394C52.94 439.394 53.4749 438.997 53.7331 438.564V439.375C53.7331 440.224 53.2628 440.786 52.2299 440.786C51.4552 440.786 51.0494 440.399 50.8926 439.79L50.2286 439.947C50.4592 440.777 51.0679 441.395 52.2299 441.395ZM52.2483 438.767C51.3445 438.767 50.7174 438.075 50.7174 437.061C50.7174 436.037 51.3169 435.327 52.2299 435.327C53.1152 435.327 53.7331 436.037 53.7331 437.061C53.7331 438.075 53.1245 438.767 52.2483 438.767ZM57.355 439.477C58.3049 439.477 59.0981 438.951 59.0981 438.121C59.0981 437.236 58.4156 436.904 57.4841 436.738C56.8478 436.618 56.359 436.47 56.359 436.018C56.359 435.705 56.5711 435.317 57.355 435.317C58.0098 435.317 58.3142 435.732 58.4064 436.203L59.0519 436.037C58.8583 435.207 58.2957 434.7 57.355 434.7C56.4604 434.7 55.6858 435.161 55.6858 436.028C55.6858 436.931 56.4604 437.227 57.3642 437.383C58.3603 437.549 58.4156 437.872 58.4156 438.13C58.4156 438.61 57.9637 438.859 57.355 438.859C56.4973 438.859 56.2668 438.315 56.1377 437.891L55.5013 438.093C55.7688 439.025 56.4051 439.477 57.355 439.477Z" fill="#423E30"/>
</g>
<g clip-path="url(#clip14_2190_5363)">
<g clip-path="url(#clip15_2190_5363)">
<path d="M19.4331 459.585H17.0781C16.5727 459.585 16.0786 459.73 15.6535 460.004L15.1512 460.326L14.6489 460.004C14.2243 459.73 13.7297 459.585 13.2244 459.585H10.8694C10.6872 459.585 10.54 459.732 10.54 459.914V465.761C10.54 465.943 10.6872 466.09 10.8694 466.09H13.2244C13.7298 466.09 14.2239 466.235 14.6489 466.509L15.106 466.803C15.1193 466.812 15.1348 466.817 15.1502 466.817C15.1657 466.817 15.1811 466.813 15.1945 466.803L15.6515 466.509C16.0776 466.235 16.5727 466.09 17.0781 466.09H19.4331C19.6153 466.09 19.7624 465.943 19.7624 465.761V459.914C19.7624 459.732 19.6153 459.585 19.4331 459.585ZM13.2244 465.349H11.2811V460.326H13.2244C13.5888 460.326 13.9429 460.43 14.2486 460.627L14.7508 460.949L14.8219 460.995V465.75C14.3319 465.487 13.7843 465.349 13.2244 465.349ZM19.0214 465.349H17.0781C16.5181 465.349 15.9706 465.487 15.4806 465.75V460.995L15.5516 460.949L16.0539 460.627C16.3596 460.43 16.7137 460.326 17.0781 460.326H19.0214V465.349ZM13.9665 461.644H12.0541C12.014 461.644 11.981 461.679 11.981 461.721V462.184C11.981 462.226 12.014 462.261 12.0541 462.261H13.9655C14.0056 462.261 14.0386 462.226 14.0386 462.184V461.721C14.0396 461.679 14.0067 461.644 13.9665 461.644ZM16.2629 461.721V462.184C16.2629 462.226 16.2958 462.261 16.3359 462.261H18.2473C18.2875 462.261 18.3204 462.226 18.3204 462.184V461.721C18.3204 461.679 18.2875 461.644 18.2473 461.644H16.3359C16.2958 461.644 16.2629 461.679 16.2629 461.721ZM13.9665 463.085H12.0541C12.014 463.085 11.981 463.12 11.981 463.162V463.625C11.981 463.667 12.014 463.702 12.0541 463.702H13.9655C14.0056 463.702 14.0386 463.667 14.0386 463.625V463.162C14.0396 463.12 14.0067 463.085 13.9665 463.085ZM18.2484 463.085H16.3359C16.2958 463.085 16.2629 463.12 16.2629 463.162V463.625C16.2629 463.667 16.2958 463.702 16.3359 463.702H18.2473C18.2875 463.702 18.3204 463.667 18.3204 463.625V463.162C18.3214 463.12 18.2885 463.085 18.2484 463.085Z" fill="#423E30"/>
</g>
<path d="M25.7792 465.697H26.4986V462.718H29.8279V465.697H30.5472V459.241H29.8279V462.063H26.4986V459.241H25.7792V465.697ZM36.078 463.631V463.327C36.078 461.943 35.2203 461.058 33.9568 461.049C32.6657 461.049 31.7158 462.137 31.7158 463.437C31.7158 464.747 32.5827 465.826 33.9661 465.826C35.0543 465.826 35.7183 465.208 35.9489 464.544L35.331 464.35C35.1834 464.811 34.6854 465.226 33.9661 465.226C33.0623 465.226 32.4444 464.526 32.4075 463.631H36.078ZM35.4232 463.05H32.4167C32.5274 462.284 33.0715 461.648 33.9661 461.648C34.7869 461.648 35.3679 462.266 35.4232 463.05ZM37.1518 465.697H37.8527V459.241H37.1518V465.697ZM41.4293 461.058C40.6362 461.058 40.1197 461.427 39.8246 461.851L39.7324 461.178H39.1421V467.633H39.843V465.042C40.1751 465.494 40.6915 465.826 41.4293 465.826C42.8772 465.826 43.5781 464.618 43.5781 463.447C43.5781 462.284 42.7942 461.058 41.4293 461.058ZM41.3555 461.685C42.2593 461.685 42.8772 462.432 42.8772 463.447C42.8772 464.47 42.2593 465.199 41.3555 465.199C40.4425 465.199 39.8338 464.47 39.8338 463.447C39.8338 462.432 40.4425 461.685 41.3555 461.685ZM50.393 465.826C51.7948 465.826 52.754 465.088 53.169 463.945L52.4958 463.723C52.1914 464.581 51.4997 465.171 50.393 465.171C48.899 465.171 47.8569 464.064 47.8569 462.469C47.8569 460.92 48.9267 459.767 50.3746 459.767C51.4167 459.767 52.173 460.32 52.5142 461.344L53.1967 461.113C52.7816 459.896 51.7764 459.112 50.3746 459.112C48.5117 459.112 47.1375 460.541 47.1375 462.469C47.1375 464.433 48.4656 465.826 50.393 465.826ZM58.4405 463.631V463.327C58.4405 461.943 57.5828 461.058 56.3194 461.049C55.0282 461.049 54.0783 462.137 54.0783 463.437C54.0783 464.747 54.9452 465.826 56.3286 465.826C57.4168 465.826 58.0809 465.208 58.3114 464.544L57.6935 464.35C57.546 464.811 57.0479 465.226 56.3286 465.226C55.4248 465.226 54.8069 464.526 54.77 463.631H58.4405ZM57.7857 463.05H54.7792C54.8899 462.284 55.434 461.648 56.3286 461.648C57.1494 461.648 57.7304 462.266 57.7857 463.05ZM59.5143 465.697H60.2152V463.124C60.2152 462.229 60.8423 461.703 61.5063 461.703C62.0966 461.703 62.5761 461.943 62.5761 462.902V465.697H63.277V462.736C63.277 461.556 62.613 461.049 61.7184 461.049C61.0729 461.049 60.5656 461.298 60.206 461.786L60.1045 461.178H59.5143V465.697ZM65.9888 465.826C66.5052 465.826 66.8188 465.623 66.9295 465.485L66.5698 464.996C66.4868 465.07 66.3208 465.171 66.0994 465.171C65.7674 465.171 65.5738 465.014 65.5738 464.59V461.814H66.8741V461.178H65.5738V459.997H64.8729V461.178H64.0336V461.814H64.8729V464.655C64.8729 465.392 65.3155 465.826 65.9888 465.826ZM67.8181 465.697H68.519V463.161C68.519 462.284 69.0354 461.713 69.6625 461.713C69.9669 461.713 70.1974 461.814 70.2897 461.888L70.5756 461.288C70.4464 461.178 70.1421 461.049 69.7455 461.049C69.1553 461.049 68.7218 461.399 68.5097 461.777L68.4083 461.178H67.8181V465.697ZM75.2372 463.631V463.327C75.2372 461.943 74.3795 461.058 73.116 461.049C71.8249 461.049 70.875 462.137 70.875 463.437C70.875 464.747 71.7419 465.826 73.1253 465.826C74.2135 465.826 74.8775 465.208 75.1081 464.544L74.4902 464.35C74.3426 464.811 73.8446 465.226 73.1253 465.226C72.2215 465.226 71.6036 464.526 71.5667 463.631H75.2372ZM74.5824 463.05H71.5759C71.6866 462.284 72.2307 461.648 73.1253 461.648C73.9461 461.648 74.5271 462.266 74.5824 463.05Z" fill="#423E30"/>
</g>
<g clip-path="url(#clip16_2190_5363)">
<g clip-path="url(#clip17_2190_5363)">
<path d="M18.9391 487.469H17.4199C17.5599 487.249 17.6422 486.987 17.6422 486.708C17.6422 485.924 17.0051 485.287 16.2218 485.287C15.7957 485.287 15.4117 485.476 15.1513 485.775C14.8909 485.476 14.507 485.287 14.0809 485.287C13.2976 485.287 12.6605 485.924 12.6605 486.708C12.6605 486.987 12.7418 487.249 12.8828 487.469H11.3636C11.1814 487.469 11.0342 487.616 11.0342 487.799V489.857C11.0342 489.902 11.0712 489.939 11.1165 489.939H11.5282V493.48C11.5282 493.662 11.6754 493.81 11.8576 493.81H18.445C18.6272 493.81 18.7744 493.662 18.7744 493.48V489.939H19.1861C19.2314 489.939 19.2685 489.902 19.2685 489.857V487.799C19.2685 487.616 19.1213 487.469 18.9391 487.469ZM15.5013 486.708C15.5013 486.31 15.8245 485.987 16.2218 485.987C16.6191 485.987 16.9423 486.31 16.9423 486.708C16.9423 487.105 16.6191 487.428 16.2218 487.428H15.5013V486.708ZM14.0809 485.987C14.4782 485.987 14.8014 486.31 14.8014 486.708V487.428H14.0809C13.6836 487.428 13.3604 487.105 13.3604 486.708C13.3604 486.31 13.6836 485.987 14.0809 485.987ZM11.7341 489.24V488.169H14.8014V489.24H11.7341ZM12.2282 489.939H14.8014V493.11H12.2282V489.939ZM18.0745 493.11H15.5013V489.939H18.0745V493.11ZM18.5686 489.24H15.5013V488.169H18.5686V489.24Z" fill="#423E30"/>
</g>
<path d="M25.7792 492.047H29.6895V491.401H26.4986V489.105H29.3114V488.469H26.4986V486.237H29.6895V485.591H25.7792V492.047ZM32.1405 492.176C32.8598 492.176 33.2933 491.927 33.5423 491.577L33.6253 492.047H34.2155V489.022C34.2155 487.961 33.5146 487.399 32.4079 487.399C31.4303 487.399 30.8217 487.897 30.6464 488.754L31.2828 488.92C31.3566 488.386 31.6517 487.989 32.4079 487.989C33.1549 487.989 33.5146 488.358 33.5146 489.031V489.179L32.3065 489.354C31.0707 489.529 30.5727 490.018 30.5727 490.811C30.5727 491.53 31.0983 492.176 32.1405 492.176ZM32.288 491.567C31.6517 491.567 31.2551 491.263 31.2551 490.774C31.2551 490.221 31.707 490.018 32.3895 489.916L33.5146 489.75V490.415C33.5146 491.226 32.9151 491.567 32.288 491.567ZM35.4136 492.047H36.1145V489.511C36.1145 488.635 36.6309 488.063 37.258 488.063C37.5624 488.063 37.7929 488.164 37.8852 488.238L38.1711 487.639C38.0419 487.528 37.7376 487.399 37.341 487.399C36.7508 487.399 36.3174 487.749 36.1052 488.127L36.0038 487.528H35.4136V492.047ZM38.899 492.047H39.5999V489.474C39.5999 488.579 40.227 488.054 40.891 488.054C41.4812 488.054 41.9608 488.293 41.9608 489.252V492.047H42.6617V489.086C42.6617 487.906 41.9977 487.399 41.1031 487.399C40.4576 487.399 39.9503 487.648 39.5907 488.137L39.4892 487.528H38.899V492.047ZM51.71 490.83C51.3596 491.217 50.8708 491.53 50.0408 491.53C48.9064 491.53 48.058 490.903 47.7167 489.898H49.5612L49.7365 489.299H47.5784C47.56 489.142 47.5507 488.985 47.5507 488.819C47.5507 488.653 47.56 488.487 47.5876 488.33H49.9855L50.1607 487.731H47.7444C48.1133 486.762 48.971 486.117 50.0408 486.117C50.797 486.117 51.3411 486.412 51.6824 486.809L52.1988 486.384C51.71 485.849 51.0184 485.462 50.0408 485.462C48.5744 485.462 47.4032 486.384 46.9882 487.731H46.2412L46.0752 488.33H46.8591C46.8406 488.487 46.8314 488.653 46.8314 488.819C46.8314 488.985 46.8406 489.142 46.8591 489.299H46.2412L46.0752 489.898H46.9697C47.3571 491.291 48.5099 492.176 50.0408 492.176C51.0829 492.176 51.7562 491.779 52.2357 491.245L51.71 490.83ZM53.2528 492.047H57.4029V491.392H54.2396L55.8812 489.926C56.6558 489.243 57.3936 488.598 57.3936 487.436C57.3936 486.301 56.5175 485.462 55.2817 485.462C54.175 485.462 53.179 486.209 53.1329 487.417L53.7969 487.611C53.8061 486.679 54.4978 486.117 55.2817 486.117C56.1117 486.117 56.6743 486.689 56.6743 487.436C56.6743 488.376 56.0195 488.911 55.3832 489.483L53.2528 491.383V492.047ZM58.3863 492.047H62.5364V491.392H59.3731L61.0147 489.926C61.7894 489.243 62.5272 488.598 62.5272 487.436C62.5272 486.301 61.6511 485.462 60.4153 485.462C59.3086 485.462 58.3126 486.209 58.2665 487.417L58.9305 487.611C58.9397 486.679 59.6314 486.117 60.4153 486.117C61.2453 486.117 61.8079 486.689 61.8079 487.436C61.8079 488.376 61.1531 488.911 60.5167 489.483L58.3863 491.383V492.047ZM65.6411 492.176C66.8953 492.176 67.8913 491.281 67.8913 490.009C67.8913 488.764 66.9875 487.869 65.6687 487.869C65.1154 487.869 64.645 488.081 64.4422 488.247L64.6635 486.246H67.4855V485.591H64.064L63.7136 488.81L64.3684 489.04C64.5805 488.791 65.0508 488.505 65.6318 488.505C66.5541 488.505 67.1812 489.151 67.1904 490.009C67.1812 490.885 66.5633 491.521 65.6411 491.521C64.8203 491.521 64.1563 491.005 64.0733 490.221L63.4 490.424C63.4922 491.328 64.3868 492.176 65.6411 492.176Z" fill="#423E30"/>
</g>
<g clip-path="url(#clip18_2190_5363)">
<path d="M74.6262 513.262H61.9885V516.065H66.7542V524.46H61.9885V527.263H74.6262V524.434H69.6667V516.039H74.6262V513.262ZM47.9107 527.237V518.842L56.4026 525.513V527.237H59.315V513.262H56.4026V521.657L47.9107 514.986V513.262H44.9983V527.237H47.9107ZM39.1089 521.632L37.6882 523.737L34.8855 524.641L32.0829 523.737L30.6622 521.606V513.21H27.7304V522.49L30.165 526.198L34.8662 527.754L39.5674 526.198L42.0019 522.49V513.262H39.1089V521.632ZM24.818 513.236H14.1241V516.039H21.9185V521.606L20.4849 523.737L17.6822 524.641L14.8796 523.737L13.0456 520.979L10.54 522.465L12.981 526.172L17.6822 527.728L22.377 526.172L24.818 522.465V513.236Z" fill="#FF3C19"/>
</g>
<defs>
<filter id="filter0_d_2190_5363" x="10.54" y="65.5483" width="149.535" height="23.0796" filterUnits="userSpaceOnUse" color-interpolation-filters="sRGB">
<feFlood flood-opacity="0" result="BackgroundImageFix"/>
<feColorMatrix in="SourceAlpha" type="matrix" values="0 0 0 0 0 0 0 0 0 0 0 0 0 0 0 0 0 0 127 0" result="hardAlpha"/>
<feOffset dy="2"/>
<feColorMatrix type="matrix" values="0 0 0 0 0 0 0 0 0 0 0 0 0 0 0 0 0 0 0.043 0"/>
<feBlend mode="normal" in2="BackgroundImageFix" result="effect1_dropShadow_2190_5363"/>
<feBlend mode="normal" in="SourceGraphic" in2="effect1_dropShadow_2190_5363" result="shape"/>
</filter>
<clipPath id="clip0_2190_5363">
<rect width="9.2224" height="9.2224" fill="white" transform="translate(110.331 71.4771)"/>
</clipPath>
<clipPath id="clip1_2190_5363">
<rect width="66.0322" height="15" fill="white" transform="translate(0 102.843)"/>
</clipPath>
<clipPath id="clip2_2190_5363">
<rect width="9.2224" height="9.2224" fill="white" transform="translate(10.54 105.731)"/>
</clipPath>
<clipPath id="clip3_2190_5363">
<rect width="67.4923" height="15" fill="white" transform="translate(10.54 129.192)"/>
</clipPath>
<clipPath id="clip4_2190_5363">
<rect width="54.4923" height="15" fill="white" transform="translate(10.54 155.542)"/>
</clipPath>
<clipPath id="clip5_2190_5363">
<rect width="9.2224" height="9.2224" fill="white" transform="translate(10.54 158.431)"/>
</clipPath>
<clipPath id="clip6_2190_5363">
<rect width="39.4923" height="15" fill="white" transform="translate(10.54 181.892)"/>
</clipPath>
<clipPath id="clip7_2190_5363">
<rect width="9.2224" height="9.2224" fill="white" transform="translate(10.54 184.781)"/>
</clipPath>
<clipPath id="clip8_2190_5363">
<rect width="64.4923" height="15" fill="white" transform="translate(10.54 208.242)"/>
</clipPath>
<clipPath id="clip9_2190_5363">
<rect width="9.2224" height="9.2224" fill="white" transform="translate(10.54 211.131)"/>
</clipPath>
<clipPath id="clip10_2190_5363">
<rect width="47.4923" height="15" fill="white" transform="translate(10.54 402.998)"/>
</clipPath>
<clipPath id="clip11_2190_5363">
<rect width="9.2224" height="9.2224" fill="white" transform="translate(10.54 405.886)"/>
</clipPath>
<clipPath id="clip12_2190_5363">
<rect width="49.4923" height="15" fill="white" transform="translate(10.54 429.348)"/>
</clipPath>
<clipPath id="clip13_2190_5363">
<rect width="9.2224" height="9.2224" fill="white" transform="translate(10.54 432.236)"/>
</clipPath>
<clipPath id="clip14_2190_5363">
<rect width="65.4923" height="15" fill="white" transform="translate(10.54 455.697)"/>
</clipPath>
<clipPath id="clip15_2190_5363">
<rect width="9.2224" height="9.2224" fill="white" transform="translate(10.54 458.585)"/>
</clipPath>
<clipPath id="clip16_2190_5363">
<rect width="58.4923" height="15" fill="white" transform="translate(10.54 482.047)"/>
</clipPath>
<clipPath id="clip17_2190_5363">
<rect width="9.2224" height="9.2224" fill="white" transform="translate(10.54 484.936)"/>
</clipPath>
<clipPath id="clip18_2190_5363">
<rect width="64.0797" height="14.4923" fill="white" transform="translate(10.54 513.262)"/>
</clipPath>
</defs>
</svg>
