<svg width="247" height="266" viewBox="0 0 247 266" fill="none" xmlns="http://www.w3.org/2000/svg">
<rect x="0.343218" y="0.574175" width="245.953" height="289.95" rx="2.90145" fill="white"/>
<path d="M10.6567 15.0394C11.7423 15.0394 12.485 14.4681 12.8064 13.5825L12.2851 13.4111C12.0494 14.0753 11.5137 14.5324 10.6567 14.5324C9.49968 14.5324 8.69263 13.6753 8.69263 12.4397C8.69263 11.2399 9.5211 10.3471 10.6424 10.3471C11.4494 10.3471 12.0351 10.7757 12.2993 11.5684L12.8279 11.3899C12.5065 10.4471 11.728 9.84005 10.6424 9.84005C9.19971 9.84005 8.13555 10.9471 8.13555 12.4397C8.13555 13.961 9.164 15.0394 10.6567 15.0394ZM14.7462 15.0394C15.3033 15.0394 15.639 14.8466 15.8318 14.5752L15.8961 14.9395H16.3532V12.5969C16.3532 11.7755 15.8104 11.3399 14.9533 11.3399C14.1963 11.3399 13.7249 11.7255 13.5892 12.3898L14.082 12.5183C14.1391 12.1041 14.3677 11.797 14.9533 11.797C15.5318 11.797 15.8104 12.0826 15.8104 12.604V12.7183L14.8748 12.854C13.9177 12.9897 13.5321 13.3682 13.5321 13.9824C13.5321 14.5395 13.9392 15.0394 14.7462 15.0394ZM14.8605 14.5681C14.3677 14.5681 14.0606 14.3324 14.0606 13.9539C14.0606 13.5253 14.4105 13.3682 14.9391 13.2896L15.8104 13.1611V13.6753C15.8104 14.3038 15.3461 14.5681 14.8605 14.5681ZM18.5451 15.0394C19.2807 15.0394 19.8949 14.6323 19.8949 13.9896C19.8949 13.3039 19.3664 13.0468 18.6451 12.9183C18.1523 12.8254 17.7738 12.7111 17.7738 12.3612C17.7738 12.1184 17.938 11.8184 18.5451 11.8184C19.0522 11.8184 19.2879 12.1398 19.3593 12.504L19.8592 12.3755C19.7093 11.7327 19.2736 11.3399 18.5451 11.3399C17.8523 11.3399 17.2524 11.697 17.2524 12.3683C17.2524 13.0682 17.8523 13.2968 18.5522 13.4182C19.3236 13.5468 19.3664 13.7967 19.3664 13.9967C19.3664 14.3681 19.0165 14.5609 18.5451 14.5609C17.8809 14.5609 17.7023 14.1395 17.6024 13.811L17.1096 13.9681C17.3167 14.6895 17.8095 15.0394 18.5451 15.0394ZM20.7264 14.9395H21.2692V12.954C21.2692 12.2541 21.7549 11.847 22.2691 11.847C22.7262 11.847 23.0904 12.0327 23.0904 12.7754V14.9395H23.6332V12.6469C23.6332 11.7327 23.119 11.3399 22.4334 11.3399C21.9406 11.3399 21.5406 11.5327 21.2692 11.9041V9.94004H20.7264V14.9395ZM26.4034 15.0323C27.4605 15.0323 28.0675 14.0824 28.0675 13.1825C28.0675 12.2755 27.5247 11.3399 26.4034 11.3399C25.8321 11.3399 25.4321 11.6041 25.175 11.9469V9.94004H24.6322V14.9395H25.0893L25.1607 14.4252C25.3893 14.7466 25.7892 15.0323 26.4034 15.0323ZM26.3463 14.5466C25.6392 14.5466 25.1679 13.9681 25.1679 13.1825C25.1679 12.3969 25.6392 11.8255 26.3463 11.8255C27.0462 11.8255 27.5247 12.3898 27.5247 13.1825C27.5247 13.9681 27.0462 14.5466 26.3463 14.5466ZM29.9579 15.0394C30.515 15.0394 30.8506 14.8466 31.0435 14.5752L31.1077 14.9395H31.5648V12.5969C31.5648 11.7755 31.022 11.3399 30.165 11.3399C29.4079 11.3399 28.9366 11.7255 28.8009 12.3898L29.2937 12.5183C29.3508 12.1041 29.5794 11.797 30.165 11.797C30.7435 11.797 31.022 12.0826 31.022 12.604V12.7183L30.0864 12.854C29.1294 12.9897 28.7437 13.3682 28.7437 13.9824C28.7437 14.5395 29.1508 15.0394 29.9579 15.0394ZM30.0722 14.5681C29.5794 14.5681 29.2722 14.3324 29.2722 13.9539C29.2722 13.5253 29.6222 13.3682 30.1507 13.2896L31.022 13.1611V13.6753C31.022 14.3038 30.5578 14.5681 30.0722 14.5681ZM34.0853 15.0394C34.8709 15.0394 35.3923 14.5538 35.6137 13.9467L35.1209 13.7753C34.9638 14.2467 34.5852 14.5466 34.0853 14.5466C33.364 14.5466 32.864 13.9753 32.864 13.1897C32.864 12.404 33.364 11.8327 34.0853 11.8327C34.5924 11.8327 34.9566 12.1184 35.1137 12.5754L35.6065 12.404C35.4066 11.8112 34.8995 11.3399 34.0853 11.3399C32.9711 11.3399 32.3212 12.2469 32.3212 13.1897C32.3212 14.1253 32.9426 15.0394 34.0853 15.0394ZM38.6968 14.9395H39.3253L37.8183 12.8183L39.1539 11.4327H38.4826L36.997 12.9611V9.94004H36.4542V14.9395H36.997V13.6682L37.4541 13.1968L38.6968 14.9395Z" fill="#423E30"/>
<path d="M16.7787 32.8581C17.6473 32.8581 18.3285 32.3707 18.3285 31.602C18.3285 30.8583 17.8348 30.5021 16.8849 30.3146C16.1725 30.1772 15.7788 30.0147 15.7788 29.5397C15.7788 29.0335 16.1912 28.7461 16.7724 28.7461C17.3849 28.7461 17.6723 29.1085 17.7973 29.6397L18.2535 29.5085C18.0598 28.7648 17.5911 28.3086 16.7724 28.3086C15.9538 28.3086 15.2914 28.7711 15.2914 29.5397C15.2914 30.2959 15.91 30.6209 16.7974 30.7833C17.7723 30.9646 17.8411 31.3083 17.8411 31.602C17.8411 32.1519 17.3724 32.4206 16.7787 32.4206C16.1225 32.4206 15.7538 32.1082 15.5913 31.4708L15.1351 31.602C15.3538 32.4519 15.9288 32.8581 16.7787 32.8581ZM21.6002 29.7147H21.1253V31.4583C21.1253 32.0644 20.6941 32.4206 20.2504 32.4206C19.8504 32.4206 19.5255 32.2582 19.5255 31.6082V29.7147H19.0505V31.7207C19.0505 32.5206 19.5005 32.8643 20.1004 32.8643C20.5379 32.8643 20.8816 32.6956 21.1253 32.3644L21.2003 32.7769H21.6002V29.7147ZM22.4742 32.7769H22.9491V31.0396C22.9491 30.4021 23.3491 30.0709 23.7741 30.0709C24.1365 30.0709 24.449 30.2522 24.449 30.9021V32.7769H24.9239V31.0396C24.9239 30.4084 25.3114 30.0709 25.7426 30.0709C26.1363 30.0709 26.4237 30.2522 26.4237 30.9021V32.7769H26.8987V30.7208C26.8987 29.9584 26.4362 29.6272 25.8926 29.6272C25.4114 29.6272 25.0614 29.8335 24.8239 30.1584C24.6802 29.8397 24.374 29.6272 23.9365 29.6272C23.5053 29.6272 23.1741 29.8022 22.9366 30.1334L22.8742 29.7147H22.4742V32.7769ZM27.7714 32.7769H28.2464V31.0396C28.2464 30.4021 28.6463 30.0709 29.0713 30.0709C29.4337 30.0709 29.7462 30.2522 29.7462 30.9021V32.7769H30.2211V31.0396C30.2211 30.4084 30.6086 30.0709 31.0398 30.0709C31.4335 30.0709 31.721 30.2522 31.721 30.9021V32.7769H32.1959V30.7208C32.1959 29.9584 31.7335 29.6272 31.1898 29.6272C30.7086 29.6272 30.3586 29.8335 30.1212 30.1584C29.9774 29.8397 29.6712 29.6272 29.2338 29.6272C28.8026 29.6272 28.4714 29.8022 28.2339 30.1334L28.1714 29.7147H27.7714V32.7769ZM33.9998 32.8643C34.4872 32.8643 34.781 32.6956 34.9497 32.4581L35.0059 32.7769H35.4059V30.7271C35.4059 30.0084 34.9309 29.6272 34.181 29.6272C33.5186 29.6272 33.1062 29.9647 32.9874 30.5459L33.4186 30.6584C33.4686 30.2959 33.6686 30.0272 34.181 30.0272C34.6872 30.0272 34.9309 30.2771 34.9309 30.7333V30.8333L34.1123 30.9521C33.2749 31.0708 32.9374 31.402 32.9374 31.9395C32.9374 32.4269 33.2936 32.8643 33.9998 32.8643ZM34.0998 32.4519C33.6686 32.4519 33.3999 32.2457 33.3999 31.9145C33.3999 31.5395 33.7061 31.402 34.1685 31.3333L34.9309 31.2208V31.6707C34.9309 32.2207 34.5247 32.4519 34.0998 32.4519ZM36.2177 32.7769H36.6927V31.0583C36.6927 30.4646 37.0426 30.0772 37.4676 30.0772C37.6738 30.0772 37.83 30.1459 37.8925 30.1959L38.0862 29.7897C37.9988 29.7147 37.7925 29.6272 37.5238 29.6272C37.1239 29.6272 36.8301 29.8647 36.6864 30.1209L36.6177 29.7147H36.2177V32.7769ZM40.748 29.7147V31.3833C40.748 31.9957 40.3293 32.3519 39.8231 32.3519C39.3856 32.3519 39.0607 32.1644 39.0607 31.5145V29.7147H38.5857V31.6707C38.5857 32.4706 39.1294 32.7956 39.6856 32.7956C40.1918 32.7956 40.4793 32.6331 40.7417 32.3019L40.748 32.3332V32.7956C40.748 33.358 40.4793 33.7392 39.8793 33.7392C39.3919 33.7392 39.1357 33.5018 39.0357 33.0831L38.5795 33.1893C38.7357 33.758 39.1357 34.1642 39.8793 34.1642C40.873 34.1642 41.2229 33.458 41.2229 32.7831V29.7147H40.748Z" fill="#423E30"/>
<path d="M48.9911 40.5972H7.70703V41.4899H48.9911V40.5972Z" fill="#E5E4E1" mask="url(#path-3-inside-1_5704_3609)"/>
<path d="M56.614 32.7769H57.2389V31.1146H58.1138C58.92 31.1146 59.5699 30.6521 59.5699 29.7585C59.5699 28.8398 58.9325 28.4024 58.0888 28.4024H56.614V32.7769ZM57.2389 30.5521V28.9648H58.0451C58.6075 28.9648 58.945 29.2398 58.945 29.7522C58.945 30.2771 58.6138 30.5521 58.0451 30.5521H57.2389ZM60.973 32.8643C61.4667 32.8643 61.7354 32.6831 61.8854 32.4769L61.9479 32.7769H62.4666V30.7271C62.4666 29.9647 61.9292 29.6022 61.2042 29.6022C60.5043 29.6022 60.0981 29.9334 59.9544 30.5334L60.4981 30.6646C60.5543 30.3271 60.7418 30.1022 61.1917 30.1022C61.6479 30.1022 61.8542 30.3271 61.8542 30.7333V30.8021L61.1105 30.9083C60.1919 31.0396 59.9044 31.427 59.9044 31.9207C59.9044 32.4581 60.3231 32.8643 60.973 32.8643ZM61.123 32.3582C60.7355 32.3582 60.4981 32.1707 60.4981 31.8895C60.4981 31.5707 60.7418 31.4395 61.1605 31.377L61.8542 31.2708V31.677C61.8542 32.1394 61.5042 32.3582 61.123 32.3582ZM65.3465 29.6835V31.3145C65.3465 31.8895 64.9903 32.2019 64.5341 32.2019C64.1279 32.2019 63.8404 32.0144 63.8404 31.4145V29.6835H63.228V31.552C63.228 32.4081 63.7279 32.7706 64.3466 32.7706C64.834 32.7706 65.109 32.6019 65.3465 32.3082V32.7331C65.3465 33.2768 65.0778 33.608 64.5466 33.608C64.1091 33.608 63.8779 33.3893 63.7904 33.0268L63.2155 33.1518C63.3717 33.7205 63.7842 34.1392 64.5466 34.1392C65.5152 34.1392 65.9589 33.4955 65.9589 32.7206V29.6835H65.3465ZM68.1866 32.8643C69.149 32.8643 69.7802 32.0894 69.7802 31.2333C69.7802 30.3646 69.149 29.596 68.1866 29.596C67.2305 29.596 66.5931 30.3646 66.5931 31.2333C66.5931 32.0894 67.2117 32.8643 68.1866 32.8643ZM68.1866 32.3019C67.6117 32.3019 67.2055 31.8457 67.2055 31.2333C67.2055 30.6146 67.6117 30.1584 68.1866 30.1584C68.7553 30.1584 69.1678 30.6146 69.1678 31.2333C69.1678 31.8457 68.7553 32.3019 68.1866 32.3019ZM73.1157 29.6835H72.5033V31.4145C72.5033 31.9832 72.1408 32.2957 71.7221 32.2957C71.3472 32.2957 71.0597 32.1269 71.0597 31.527V29.6835H70.4473V31.6332C70.4473 32.4894 70.8785 32.8643 71.5347 32.8643C71.9784 32.8643 72.2971 32.6769 72.5158 32.3832L72.6095 32.7769H73.1157V29.6835ZM75.0195 32.8643C75.407 32.8643 75.6319 32.7144 75.7194 32.6144L75.4382 32.1769C75.382 32.2332 75.282 32.2957 75.1382 32.2957C74.932 32.2957 74.8133 32.1894 74.8133 31.9332V30.2334H75.6507V29.6835H74.8133V28.8773H74.2009V29.6835H73.6447V30.2334H74.2009V32.0082C74.2009 32.5581 74.5446 32.8643 75.0195 32.8643ZM77.3517 32.8643C78.0641 32.8643 78.5765 32.4644 78.5765 31.9082C78.5765 31.2958 78.1203 31.0646 77.4517 30.9396C77.0392 30.8646 76.7642 30.7771 76.7642 30.5146C76.7642 30.3271 76.9142 30.1209 77.3517 30.1209C77.7454 30.1209 77.9141 30.3771 77.9766 30.6521L78.5203 30.4959C78.3953 29.9397 77.9828 29.6022 77.3517 29.6022C76.6767 29.6022 76.183 29.9772 76.183 30.5396C76.183 31.1645 76.7205 31.3645 77.3454 31.477C77.9203 31.577 77.9953 31.752 77.9953 31.9145C77.9953 32.1894 77.7266 32.3457 77.3517 32.3457C76.8642 32.3457 76.708 32.0332 76.6267 31.7582L76.0768 31.927C76.2455 32.5394 76.6892 32.8643 77.3517 32.8643Z" fill="#7D76FF"/>
<path d="M86.2762 40.1508H48.9922V41.9363H86.2762V40.1508Z" fill="#7D76FF" mask="url(#path-6-inside-2_5704_3609)"/>
<path d="M98.2674 28.4024H97.6925L96.1114 32.1332L94.5241 28.4024H93.9492V32.7769H94.4241L94.4366 29.296L95.9114 32.7769H96.2989L97.7862 29.2835V32.7769H98.2674V28.4024ZM101.407 29.7147V31.3833C101.407 31.9957 100.988 32.3519 100.482 32.3519C100.044 32.3519 99.7193 32.1644 99.7193 31.5145V29.7147H99.2443V31.6707C99.2443 32.4706 99.788 32.7956 100.344 32.7956C100.85 32.7956 101.138 32.6331 101.4 32.3019L101.407 32.3332V32.7956C101.407 33.358 101.138 33.7392 100.538 33.7392C100.05 33.7392 99.7943 33.5018 99.6943 33.0831L99.2381 33.1893C99.3943 33.758 99.7943 34.1642 100.538 34.1642C101.532 34.1642 101.882 33.458 101.882 32.7831V29.7147H101.407ZM105.923 32.8643C106.923 32.8643 107.498 32.0457 107.498 31.2458C107.498 30.4396 106.923 29.6272 105.923 29.6272C104.942 29.6272 104.361 30.4396 104.361 31.2458C104.361 32.0457 104.917 32.8643 105.923 32.8643ZM105.923 32.4331C105.28 32.4331 104.836 31.9145 104.836 31.2458C104.836 30.5709 105.28 30.0584 105.923 30.0584C106.573 30.0584 107.023 30.5709 107.023 31.2458C107.023 31.9145 106.573 32.4331 105.923 32.4331ZM108.453 32.7769H108.928V30.1459H109.822V29.7147H108.928V29.1523C108.928 28.8836 109.053 28.7461 109.29 28.7461C109.478 28.7461 109.59 28.8461 109.609 28.8711L109.878 28.5461C109.847 28.5086 109.659 28.3149 109.215 28.3149C108.765 28.3149 108.453 28.6336 108.453 29.1148V29.7147H107.897V30.1459H108.453V32.7769ZM110.613 32.7769H111.088V30.1459H111.982V29.7147H111.088V29.1523C111.088 28.8836 111.213 28.7461 111.451 28.7461C111.638 28.7461 111.751 28.8461 111.769 28.8711L112.038 28.5461C112.007 28.5086 111.819 28.3149 111.376 28.3149C110.926 28.3149 110.613 28.6336 110.613 29.1148V29.7147H110.057V30.1459H110.613V32.7769ZM115.098 31.377V31.1708C115.098 30.2334 114.517 29.6335 113.661 29.6272C112.786 29.6272 112.142 30.3646 112.142 31.2458C112.142 32.1332 112.729 32.8643 113.667 32.8643C114.404 32.8643 114.854 32.4456 115.01 31.9957L114.592 31.8645C114.492 32.1769 114.154 32.4581 113.667 32.4581C113.054 32.4581 112.636 31.9832 112.611 31.377H115.098ZM114.654 30.9833H112.617C112.692 30.4646 113.061 30.0334 113.667 30.0334C114.223 30.0334 114.617 30.4521 114.654 30.9833ZM115.825 32.7769H116.3V31.0583C116.3 30.4646 116.65 30.0772 117.075 30.0772C117.282 30.0772 117.438 30.1459 117.5 30.1959L117.694 29.7897C117.607 29.7147 117.4 29.6272 117.132 29.6272C116.732 29.6272 116.438 29.8647 116.294 30.1209L116.225 29.7147H115.825V32.7769ZM119.22 32.8643C119.864 32.8643 120.401 32.5081 120.401 31.9457C120.401 31.3458 119.939 31.1208 119.308 31.0083C118.876 30.9271 118.545 30.8271 118.545 30.5209C118.545 30.3084 118.689 30.0459 119.22 30.0459C119.664 30.0459 119.87 30.3271 119.933 30.6459L120.37 30.5334C120.239 29.9709 119.858 29.6272 119.22 29.6272C118.614 29.6272 118.089 29.9397 118.089 30.5271C118.089 31.1395 118.614 31.3395 119.226 31.4458C119.901 31.5582 119.939 31.777 119.939 31.952C119.939 32.2769 119.633 32.4456 119.22 32.4456C118.639 32.4456 118.483 32.0769 118.395 31.7895L117.964 31.927C118.145 32.5581 118.576 32.8643 119.22 32.8643Z" fill="#423E30"/>
<path d="M128.561 40.5972H86.2773V41.4899H128.561V40.5972Z" fill="#E5E4E1" mask="url(#path-9-inside-3_5704_3609)"/>
<line x1="128.562" y1="40.8203" x2="238.933" y2="40.8203" stroke="#E5E4E1" stroke-width="0.446376"/>
<rect width="245.507" height="51.3333" transform="translate(0.566406 41.0439)" fill="white"/>
<path d="M236.531 66.5833L228.446 60.2684C228.425 60.2518 228.4 60.2415 228.373 60.2386C228.346 60.2357 228.319 60.2405 228.295 60.2523C228.271 60.2641 228.251 60.2825 228.236 60.3053C228.222 60.3281 228.215 60.3545 228.215 60.3814V61.7678C228.215 61.8556 228.256 61.9399 228.324 61.9937L234.781 67.0352L228.324 72.0767C228.254 72.1305 228.215 72.2148 228.215 72.3026V73.689C228.215 73.8092 228.353 73.8755 228.446 73.802L236.531 67.4872C236.6 67.4336 236.656 67.365 236.694 67.2867C236.732 67.2084 236.752 67.1224 236.752 67.0352C236.752 66.9481 236.732 66.8621 236.694 66.7837C236.656 66.7054 236.6 66.6369 236.531 66.5833Z" fill="#9D9C9A"/>
<path d="M9.71284 67.4873L17.7978 73.8021C17.819 73.8188 17.8443 73.8291 17.8711 73.832C17.8978 73.8348 17.9248 73.8301 17.949 73.8183C17.9731 73.8065 17.9935 73.7881 18.0077 73.7653C18.0219 73.7424 18.0293 73.716 18.0292 73.6892L18.0292 72.3028C18.0292 72.2149 17.9879 72.1306 17.9198 72.0768L11.4633 67.0354L17.9198 61.9939C17.9897 61.9401 18.0292 61.8558 18.0292 61.7679V60.3816C18.0292 60.2614 17.8911 60.195 17.7978 60.2686L9.71284 66.5834C9.64412 66.637 9.58853 66.7056 9.5503 66.7839C9.51206 66.8622 9.49219 66.9482 9.49219 67.0354C9.49219 67.1225 9.51206 67.2085 9.5503 67.2868C9.58853 67.3651 9.64412 67.4337 9.71284 67.4873Z" fill="#9D9C9A"/>
<path d="M82.3937 58.7568H85.0434V58.3194H82.8811V56.7633H84.7871V56.3321H82.8811V54.8198H85.0434V54.3823H82.3937V58.7568ZM86.7041 58.8443C87.1916 58.8443 87.4853 58.6756 87.654 58.4381L87.7103 58.7568H88.1102V56.7071C88.1102 55.9884 87.6353 55.6072 86.8854 55.6072C86.2229 55.6072 85.8105 55.9447 85.6918 56.5258L86.123 56.6383C86.173 56.2759 86.3729 56.0072 86.8854 56.0072C87.3916 56.0072 87.6353 56.2571 87.6353 56.7133V56.8133L86.8166 56.932C85.9792 57.0508 85.6418 57.382 85.6418 57.9194C85.6418 58.4069 85.998 58.8443 86.7041 58.8443ZM86.8041 58.4319C86.3729 58.4319 86.1042 58.2256 86.1042 57.8944C86.1042 57.5195 86.4104 57.382 86.8729 57.3133L87.6353 57.2008V57.6507C87.6353 58.2007 87.2291 58.4319 86.8041 58.4319ZM88.922 58.7568H89.397V57.0383C89.397 56.4446 89.7469 56.0572 90.1719 56.0572C90.3781 56.0572 90.5344 56.1259 90.5968 56.1759L90.7906 55.7697C90.7031 55.6947 90.4969 55.6072 90.2281 55.6072C89.8282 55.6072 89.5345 55.8447 89.3907 56.1009L89.322 55.6947H88.922V58.7568ZM91.2838 58.7568H91.7588V57.0133C91.7588 56.4071 92.1837 56.0509 92.6337 56.0509C93.0336 56.0509 93.3586 56.2134 93.3586 56.8633V58.7568H93.8335V56.7508C93.8335 55.9509 93.3836 55.6072 92.7774 55.6072C92.34 55.6072 91.9962 55.7759 91.7525 56.1071L91.6838 55.6947H91.2838V58.7568ZM97.5134 57.357V57.1508C97.5134 56.2134 96.9322 55.6135 96.0761 55.6072C95.2012 55.6072 94.5575 56.3446 94.5575 57.2258C94.5575 58.1132 95.1449 58.8443 96.0823 58.8443C96.8198 58.8443 97.2697 58.4256 97.4259 57.9757L97.0072 57.8444C96.9072 58.1569 96.5698 58.4381 96.0823 58.4381C95.4699 58.4381 95.0512 57.9632 95.0262 57.357H97.5134ZM97.0697 56.9633H95.0325C95.1075 56.4446 95.4762 56.0134 96.0823 56.0134C96.6385 56.0134 97.0322 56.4321 97.0697 56.9633ZM99.5471 58.8381C100.085 58.8381 100.435 58.5881 100.641 58.3069L100.703 58.7568H101.097V54.3823H100.622V56.1384C100.403 55.8384 100.047 55.6072 99.5471 55.6072C98.566 55.6072 98.091 56.4259 98.091 57.2195C98.091 58.0069 98.6285 58.8381 99.5471 58.8381ZM99.5971 58.4131C98.9847 58.4131 98.566 57.9069 98.566 57.2195C98.566 56.5258 98.9847 56.0322 99.5971 56.0322C100.216 56.0322 100.628 56.5321 100.628 57.2195C100.628 57.9069 100.216 58.4131 99.5971 58.4131ZM104.827 58.8443C105.471 58.8443 106.009 58.4881 106.009 57.9257C106.009 57.3258 105.546 57.1008 104.915 56.9883C104.484 56.9071 104.153 56.8071 104.153 56.5009C104.153 56.2884 104.296 56.0259 104.827 56.0259C105.271 56.0259 105.477 56.3071 105.54 56.6258L105.977 56.5133C105.846 55.9509 105.465 55.6072 104.827 55.6072C104.221 55.6072 103.696 55.9197 103.696 56.5071C103.696 57.1195 104.221 57.3195 104.834 57.4257C105.509 57.5382 105.546 57.757 105.546 57.9319C105.546 58.2569 105.24 58.4256 104.827 58.4256C104.246 58.4256 104.09 58.0569 104.003 57.7695L103.571 57.9069C103.753 58.5381 104.184 58.8443 104.827 58.8443ZM108.148 58.8443C109.148 58.8443 109.723 58.0257 109.723 57.2258C109.723 56.4196 109.148 55.6072 108.148 55.6072C107.167 55.6072 106.586 56.4196 106.586 57.2258C106.586 58.0257 107.142 58.8443 108.148 58.8443ZM108.148 58.4131C107.505 58.4131 107.061 57.8944 107.061 57.2258C107.061 56.5508 107.505 56.0384 108.148 56.0384C108.798 56.0384 109.248 56.5508 109.248 57.2258C109.248 57.8944 108.798 58.4131 108.148 58.4131ZM112.442 58.7568H112.917V56.1259H113.81V55.6947H112.917V55.1323C112.917 54.8635 113.042 54.7261 113.279 54.7261C113.467 54.7261 113.579 54.826 113.598 54.851L113.867 54.5261C113.835 54.4886 113.648 54.2949 113.204 54.2949C112.754 54.2949 112.442 54.6136 112.442 55.0948V55.6947H111.886V56.1259H112.442V58.7568ZM115.18 58.8443C115.667 58.8443 115.961 58.6756 116.13 58.4381L116.186 58.7568H116.586V56.7071C116.586 55.9884 116.111 55.6072 115.361 55.6072C114.699 55.6072 114.286 55.9447 114.167 56.5258L114.599 56.6383C114.649 56.2759 114.849 56.0072 115.361 56.0072C115.867 56.0072 116.111 56.2571 116.111 56.7133V56.8133L115.292 56.932C114.455 57.0508 114.117 57.382 114.117 57.9194C114.117 58.4069 114.474 58.8443 115.18 58.8443ZM115.28 58.4319C114.849 58.4319 114.58 58.2256 114.58 57.8944C114.58 57.5195 114.886 57.382 115.349 57.3133L116.111 57.2008V57.6507C116.111 58.2007 115.705 58.4319 115.28 58.4319ZM117.398 58.7568H117.873V57.0383C117.873 56.4446 118.223 56.0572 118.648 56.0572C118.854 56.0572 119.01 56.1259 119.073 56.1759L119.266 55.7697C119.179 55.6947 118.973 55.6072 118.704 55.6072C118.304 55.6072 118.01 55.8447 117.866 56.1009L117.798 55.6947H117.398V58.7568ZM121.792 55.201C121.986 55.201 122.142 55.0448 122.142 54.8448C122.142 54.6448 121.986 54.4886 121.792 54.4886C121.586 54.4886 121.43 54.6448 121.43 54.8448C121.43 55.0448 121.586 55.201 121.792 55.201ZM121.555 58.7568H122.03V55.6947H121.555V58.7568ZM122.939 58.7568H123.414V57.0133C123.414 56.4071 123.839 56.0509 124.289 56.0509C124.689 56.0509 125.014 56.2134 125.014 56.8633V58.7568H125.489V56.7508C125.489 55.9509 125.039 55.6072 124.433 55.6072C123.995 55.6072 123.651 55.7759 123.408 56.1071L123.339 55.6947H122.939V58.7568ZM129.114 58.8443C129.858 58.8443 130.339 58.3944 130.339 57.5445V54.3823H129.852V57.5632C129.852 58.1007 129.577 58.4006 129.108 58.4006C128.639 58.4006 128.377 58.1069 128.377 57.6695V57.607L127.896 57.5257V57.6882C127.902 58.3881 128.383 58.8443 129.114 58.8443ZM133.825 55.6947H133.35V57.4382C133.35 58.0444 132.919 58.4006 132.475 58.4006C132.075 58.4006 131.75 58.2381 131.75 57.5882V55.6947H131.275V57.7007C131.275 58.5006 131.725 58.8443 132.325 58.8443C132.763 58.8443 133.107 58.6756 133.35 58.3444L133.425 58.7568H133.825V55.6947ZM134.699 58.7568H135.174V57.0133C135.174 56.4071 135.599 56.0509 136.049 56.0509C136.449 56.0509 136.774 56.2134 136.774 56.8633V58.7568H137.249V56.7508C137.249 55.9509 136.799 55.6072 136.193 55.6072C135.755 55.6072 135.412 55.7759 135.168 56.1071L135.099 55.6947H134.699V58.7568ZM140.929 57.357V57.1508C140.929 56.2134 140.348 55.6135 139.491 55.6072C138.617 55.6072 137.973 56.3446 137.973 57.2258C137.973 58.1132 138.56 58.8443 139.498 58.8443C140.235 58.8443 140.685 58.4256 140.841 57.9757L140.423 57.8444C140.323 58.1569 139.985 58.4381 139.498 58.4381C138.885 58.4381 138.467 57.9632 138.442 57.357H140.929ZM140.485 56.9633H138.448C138.523 56.4446 138.891 56.0134 139.498 56.0134C140.054 56.0134 140.448 56.4321 140.485 56.9633ZM143.345 58.7568H146.158V58.3131H144.014L145.126 57.3195C145.651 56.8571 146.151 56.4196 146.151 55.6322C146.151 54.8635 145.558 54.2949 144.72 54.2949C143.97 54.2949 143.295 54.801 143.264 55.6197L143.714 55.7509C143.72 55.1198 144.189 54.7386 144.72 54.7386C145.283 54.7386 145.664 55.126 145.664 55.6322C145.664 56.2696 145.22 56.6321 144.789 57.0195L143.345 58.3069V58.7568ZM148.336 58.8443C149.449 58.8443 149.911 57.8069 149.911 56.5508C149.911 55.326 149.43 54.2949 148.336 54.2949C147.224 54.2949 146.743 55.326 146.743 56.5508C146.743 57.8069 147.218 58.8443 148.336 58.8443ZM148.336 58.4006C147.549 58.4006 147.224 57.5445 147.224 56.5696C147.224 55.601 147.555 54.7386 148.336 54.7386C149.105 54.7386 149.424 55.601 149.424 56.5696C149.424 57.5695 149.111 58.4006 148.336 58.4006ZM150.577 58.7568H153.389V58.3131H151.246L152.358 57.3195C152.883 56.8571 153.383 56.4196 153.383 55.6322C153.383 54.8635 152.789 54.2949 151.952 54.2949C151.202 54.2949 150.527 54.801 150.496 55.6197L150.946 55.7509C150.952 55.1198 151.421 54.7386 151.952 54.7386C152.514 54.7386 152.896 55.126 152.896 55.6322C152.896 56.2696 152.452 56.6321 152.021 57.0195L150.577 58.3069V58.7568ZM154.056 58.7568H156.868V58.3131H154.724L155.837 57.3195C156.362 56.8571 156.862 56.4196 156.862 55.6322C156.862 54.8635 156.268 54.2949 155.431 54.2949C154.681 54.2949 154.006 54.801 153.975 55.6197L154.424 55.7509C154.431 55.1198 154.899 54.7386 155.431 54.7386C155.993 54.7386 156.374 55.126 156.374 55.6322C156.374 56.2696 155.931 56.6321 155.499 57.0195L154.056 58.3069V58.7568Z" fill="#6D6C6B"/>
<g clip-path="url(#clip0_5704_3609)">
<path fill-rule="evenodd" clip-rule="evenodd" d="M159.645 56.757C159.645 55.4629 160.694 54.4136 161.988 54.4136C163.282 54.4136 164.331 55.4629 164.331 56.757C164.331 58.0512 163.282 59.1005 161.988 59.1005C160.694 59.1005 159.645 58.0512 159.645 56.757ZM160.042 56.757C160.042 57.8315 160.914 58.703 161.988 58.703C163.062 58.703 163.934 57.8315 163.934 56.757C163.934 55.6826 163.062 54.8111 161.988 54.8111C160.914 54.8111 160.042 55.6826 160.042 56.757ZM161.811 56.0139C161.763 55.9668 161.737 55.9029 161.737 55.8363C161.737 55.7697 161.763 55.7059 161.811 55.6588C161.858 55.6117 161.922 55.5852 161.988 55.5852C162.055 55.5852 162.119 55.6117 162.166 55.6588C162.213 55.7059 162.239 55.7697 162.239 55.8363C162.239 55.9029 162.213 55.9668 162.166 56.0139C162.119 56.061 162.055 56.0874 161.988 56.0874C161.922 56.0874 161.858 56.061 161.811 56.0139ZM161.821 56.4641C161.821 56.441 161.84 56.4222 161.863 56.4222H162.114C162.137 56.4222 162.156 56.441 162.156 56.4641V57.8869C162.156 57.9099 162.137 57.9287 162.114 57.9287H161.863C161.84 57.9287 161.821 57.9099 161.821 57.8869V56.4641Z" fill="#6D6C6B"/>
</g>
<path d="M85.1297 77.1977V68.7745H84.0852C83.5362 69.1495 82.7728 69.4843 82.1836 69.6048V70.6091C82.7461 70.5154 83.5897 70.2342 84.0852 69.9128V77.1977H81.6212V78.1484H87.5937V77.1977H85.1297ZM89.1285 79.3537L89.5972 79.7688C90.2935 79.1528 90.6283 78.1618 90.6283 77.5726C90.6283 76.97 90.2533 76.6754 89.8382 76.6754C89.4499 76.6754 89.0615 76.97 89.0615 77.4789C89.0615 77.8404 89.3293 78.0949 89.6507 78.202C89.6507 78.5903 89.3695 79.059 89.1285 79.3537ZM95.136 78.3359C96.9573 78.3359 98.4035 77.037 98.4035 75.189C98.4035 73.3811 97.0912 72.0822 95.1762 72.0822C94.3727 72.0822 93.6898 72.3902 93.3952 72.6312L93.7166 69.7253H97.8143V68.7745H92.8461L92.3373 73.4481L93.288 73.7829C93.596 73.4213 94.279 73.0062 95.1226 73.0062C96.4618 73.0062 97.3724 73.9436 97.3858 75.189C97.3724 76.4611 96.4752 77.3851 95.136 77.3851C93.9442 77.3851 92.98 76.6352 92.8595 75.497L91.882 75.7916C92.0159 77.1039 93.3148 78.3359 95.136 78.3359ZM103.125 78.3359C105.509 78.3359 106.5 76.113 106.5 73.4213C106.5 70.7966 105.469 68.5871 103.125 68.5871C100.742 68.5871 99.7106 70.7966 99.7106 73.4213C99.7106 76.113 100.728 78.3359 103.125 78.3359ZM103.125 77.3851C101.438 77.3851 100.742 75.5505 100.742 73.4615C100.742 71.3858 101.451 69.5378 103.125 69.5378C104.773 69.5378 105.455 71.3858 105.455 73.4615C105.455 75.6041 104.786 77.3851 103.125 77.3851ZM111.155 78.3359C113.539 78.3359 114.53 76.113 114.53 73.4213C114.53 70.7966 113.498 68.5871 111.155 68.5871C108.771 68.5871 107.74 70.7966 107.74 73.4213C107.74 76.113 108.758 78.3359 111.155 78.3359ZM111.155 77.3851C109.468 77.3851 108.771 75.5505 108.771 73.4615C108.771 71.3858 109.481 69.5378 111.155 69.5378C112.802 69.5378 113.485 71.3858 113.485 73.4615C113.485 75.6041 112.815 77.3851 111.155 77.3851ZM116.372 78.2422C116.814 78.2422 117.162 77.894 117.162 77.4655C117.162 77.0236 116.814 76.6754 116.372 76.6754C115.93 76.6754 115.596 77.0236 115.596 77.4655C115.596 77.894 115.93 78.2422 116.372 78.2422ZM121.63 78.3359C124.014 78.3359 125.005 76.113 125.005 73.4213C125.005 70.7966 123.973 68.5871 121.63 68.5871C119.246 68.5871 118.215 70.7966 118.215 73.4213C118.215 76.113 119.233 78.3359 121.63 78.3359ZM121.63 77.3851C119.943 77.3851 119.246 75.5505 119.246 73.4615C119.246 71.3858 119.956 69.5378 121.63 69.5378C123.277 69.5378 123.96 71.3858 123.96 73.4615C123.96 75.6041 123.29 77.3851 121.63 77.3851ZM129.66 78.3359C132.043 78.3359 133.034 76.113 133.034 73.4213C133.034 70.7966 132.003 68.5871 129.66 68.5871C127.276 68.5871 126.245 70.7966 126.245 73.4213C126.245 76.113 127.262 78.3359 129.66 78.3359ZM129.66 77.3851C127.972 77.3851 127.276 75.5505 127.276 73.4615C127.276 71.3858 127.986 69.5378 129.66 69.5378C131.307 69.5378 131.99 71.3858 131.99 73.4615C131.99 75.6041 131.32 77.3851 129.66 77.3851ZM142.969 78.3359C144.857 78.3359 145.902 77.278 146.223 76.7557L146.384 78.1484H147.16V73.1803H143.813V74.0909H146.143C146.116 75.7648 145.111 77.3851 142.969 77.3851C140.773 77.3851 139.259 75.738 139.259 73.4615C139.259 71.2921 140.799 69.5378 142.996 69.5378C144.469 69.5378 145.419 70.3145 145.888 71.493L146.852 71.1448C146.236 69.5646 144.83 68.5871 142.969 68.5871C140.264 68.5871 138.215 70.6895 138.215 73.4615C138.215 76.354 140.21 78.3359 142.969 78.3359ZM149.18 78.1484H152.676C154.497 78.1484 155.528 76.97 155.528 75.497C155.528 74.0909 154.631 73.5017 154.028 73.2874V73.2606C154.684 72.8857 155.166 72.2027 155.166 71.2385C155.166 69.886 154.336 68.7745 152.501 68.7745H149.18V78.1484ZM150.225 72.9258V69.6985H152.475C153.492 69.6985 154.135 70.3011 154.135 71.2519C154.135 72.2429 153.573 72.9258 152.475 72.9258H150.225ZM150.225 77.2244V73.8231H152.501C153.908 73.8231 154.483 74.573 154.483 75.497C154.483 76.4344 153.881 77.2244 152.689 77.2244H150.225ZM157.288 78.1484H158.333V74.4391H160.288C162.136 74.4391 163.422 73.3945 163.422 71.6001C163.422 69.7923 162.19 68.7745 160.275 68.7745H157.288V78.1484ZM158.333 73.5017V69.7119H160.194C161.48 69.7119 162.377 70.2476 162.377 71.6001C162.377 72.9526 161.48 73.5017 160.194 73.5017H158.333Z" fill="#423E30"/>
<g clip-path="url(#clip1_5704_3609)">
<rect width="122.753" height="24.284" transform="translate(0.566406 92.377)" fill="#F9F8F7"/>
<path d="M11.1191 106.519H11.7628L10.1255 102.145H9.48182L7.84452 106.519H8.48819L8.89439 105.413H10.7067L11.1191 106.519ZM9.10687 104.85L9.80054 102.969L10.5005 104.85H9.10687ZM13.554 106.607C14.2352 106.607 14.7101 106.2 14.9163 105.65L14.3602 105.463C14.2352 105.819 13.9415 106.044 13.554 106.044C12.9853 106.044 12.5854 105.594 12.5854 104.975C12.5854 104.351 12.9853 103.901 13.554 103.901C13.9477 103.901 14.2414 104.126 14.3602 104.488L14.9226 104.301C14.7351 103.744 14.2602 103.338 13.554 103.338C12.5916 103.338 11.9729 104.094 11.9729 104.975C11.9729 105.844 12.5791 106.607 13.554 106.607ZM17.0387 106.607C17.7199 106.607 18.1948 106.2 18.401 105.65L17.8449 105.463C17.7199 105.819 17.4262 106.044 17.0387 106.044C16.47 106.044 16.0701 105.594 16.0701 104.975C16.0701 104.351 16.47 103.901 17.0387 103.901C17.4324 103.901 17.7261 104.126 17.8449 104.488L18.4073 104.301C18.2198 103.744 17.7449 103.338 17.0387 103.338C16.0763 103.338 15.4576 104.094 15.4576 104.975C15.4576 105.844 16.0638 106.607 17.0387 106.607ZM20.5359 106.607C21.4983 106.607 22.1295 105.832 22.1295 104.975C22.1295 104.107 21.4983 103.338 20.5359 103.338C19.5798 103.338 18.9423 104.107 18.9423 104.975C18.9423 105.832 19.561 106.607 20.5359 106.607ZM20.5359 106.044C19.961 106.044 19.5548 105.588 19.5548 104.975C19.5548 104.357 19.961 103.901 20.5359 103.901C21.1046 103.901 21.517 104.357 21.517 104.975C21.517 105.588 21.1046 106.044 20.5359 106.044ZM25.465 103.426H24.8526V105.157C24.8526 105.725 24.4901 106.038 24.0714 106.038C23.6965 106.038 23.409 105.869 23.409 105.269V103.426H22.7966V105.375C22.7966 106.232 23.2278 106.607 23.8839 106.607C24.3276 106.607 24.6464 106.419 24.8651 106.125L24.9588 106.519H25.465V103.426ZM26.2752 106.519H26.8876V104.794C26.8876 104.226 27.2501 103.913 27.6688 103.913C28.0437 103.913 28.3312 104.076 28.3312 104.682V106.519H28.9436V104.576C28.9436 103.719 28.5187 103.338 27.8562 103.338C27.4125 103.338 27.0938 103.526 26.8751 103.819L26.7814 103.426H26.2752V106.519ZM30.8108 106.607C31.1982 106.607 31.4232 106.457 31.5107 106.357L31.2295 105.919C31.1732 105.975 31.0732 106.038 30.9295 106.038C30.7233 106.038 30.6045 105.932 30.6045 105.675V103.976H31.4419V103.426H30.6045V102.62H29.9921V103.426H29.4359V103.976H29.9921V105.75C29.9921 106.3 30.3358 106.607 30.8108 106.607Z" fill="#423E30"/>
<line x1="123.098" y1="99.6089" x2="123.098" y2="109.429" stroke="#E5E4E1" stroke-width="0.446376"/>
</g>
<rect width="122.753" height="24.284" transform="translate(123.32 92.377)" fill="#F9F8F7"/>
<path d="M216.966 106.519H219.665V105.957H217.59V104.588H219.403V104.038H217.59V102.707H219.665V102.145H216.966V106.519ZM221.27 106.607C221.763 106.607 222.032 106.425 222.182 106.219L222.245 106.519H222.763V104.469C222.763 103.707 222.226 103.344 221.501 103.344C220.801 103.344 220.395 103.676 220.251 104.276L220.795 104.407C220.851 104.069 221.038 103.844 221.488 103.844C221.945 103.844 222.151 104.069 222.151 104.476V104.544L221.407 104.651C220.488 104.782 220.201 105.169 220.201 105.663C220.201 106.2 220.62 106.607 221.27 106.607ZM221.42 106.1C221.032 106.1 220.795 105.913 220.795 105.632C220.795 105.313 221.038 105.182 221.457 105.119L222.151 105.013V105.419C222.151 105.882 221.801 106.1 221.42 106.1ZM223.512 106.519H224.125V104.807C224.125 104.251 224.443 103.919 224.837 103.919C225.037 103.919 225.174 103.982 225.237 104.032L225.474 103.494C225.374 103.419 225.181 103.338 224.918 103.338C224.524 103.338 224.243 103.576 224.112 103.813L224.018 103.426H223.512V106.519ZM225.929 106.519H226.541V104.794C226.541 104.226 226.904 103.913 227.322 103.913C227.697 103.913 227.985 104.076 227.985 104.682V106.519H228.597V104.576C228.597 103.719 228.172 103.338 227.51 103.338C227.066 103.338 226.747 103.526 226.529 103.819L226.435 103.426H225.929V106.519ZM229.751 102.969C229.97 102.969 230.145 102.794 230.145 102.57C230.145 102.351 229.97 102.17 229.751 102.17C229.526 102.17 229.345 102.351 229.345 102.57C229.345 102.794 229.526 102.969 229.751 102.969ZM229.439 106.519H230.051V103.426H229.439V106.519ZM230.897 106.519H231.509V104.794C231.509 104.226 231.871 103.913 232.29 103.913C232.665 103.913 232.953 104.076 232.953 104.682V106.519H233.565V104.576C233.565 103.719 233.14 103.338 232.478 103.338C232.034 103.338 231.715 103.526 231.496 103.819L231.403 103.426H230.897V106.519ZM235.769 107.881C236.831 107.881 237.319 107.238 237.319 106.463V103.426H236.806L236.706 103.832C236.537 103.582 236.212 103.338 235.694 103.338C234.8 103.338 234.231 104.094 234.231 104.938C234.231 105.782 234.775 106.519 235.7 106.519C236.2 106.519 236.55 106.275 236.706 106.013V106.475C236.706 107.025 236.387 107.356 235.769 107.356C235.294 107.356 235.038 107.119 234.944 106.75L234.369 106.888C234.531 107.456 234.963 107.881 235.769 107.881ZM235.781 105.969C235.231 105.969 234.844 105.563 234.844 104.938C234.844 104.313 235.225 103.888 235.775 103.888C236.319 103.888 236.706 104.313 236.706 104.938C236.706 105.563 236.319 105.969 235.781 105.969Z" fill="#423E30"/>
<path d="M10.3005 133.256C11.1816 133.256 11.6691 132.762 11.819 132.519L11.894 133.168H12.2565V130.85H10.6942V131.275H11.7816C11.7691 132.056 11.3004 132.812 10.3005 132.812C9.2756 132.812 8.56943 132.044 8.56943 130.981C8.56943 129.969 9.2881 129.15 10.313 129.15C11.0004 129.15 11.4441 129.513 11.6628 130.063L12.1128 129.9C11.8253 129.163 11.1691 128.706 10.3005 128.706C9.03813 128.706 8.08199 129.688 8.08199 130.981C8.08199 132.331 9.01313 133.256 10.3005 133.256ZM15.9364 131.769V131.562C15.9364 130.625 15.3552 130.025 14.4991 130.019C13.6242 130.019 12.9805 130.756 12.9805 131.637C12.9805 132.525 13.5679 133.256 14.5053 133.256C15.2427 133.256 15.6927 132.837 15.8489 132.387L15.4302 132.256C15.3302 132.569 14.9927 132.85 14.5053 132.85C13.8929 132.85 13.4742 132.375 13.4492 131.769H15.9364ZM15.4927 131.375H13.4554C13.5304 130.856 13.8991 130.425 14.5053 130.425C15.0615 130.425 15.4552 130.844 15.4927 131.375ZM16.664 133.168H17.1389V131.425C17.1389 130.819 17.5639 130.463 18.0138 130.463C18.4138 130.463 18.7387 130.625 18.7387 131.275V133.168H19.2137V131.162C19.2137 130.363 18.7637 130.019 18.1576 130.019C17.7201 130.019 17.3764 130.188 17.1327 130.519L17.0639 130.106H16.664V133.168ZM22.8936 131.769V131.562C22.8936 130.625 22.3124 130.025 21.4562 130.019C20.5814 130.019 19.9377 130.756 19.9377 131.637C19.9377 132.525 20.5251 133.256 21.4625 133.256C22.1999 133.256 22.6499 132.837 22.8061 132.387L22.3874 132.256C22.2874 132.569 21.9499 132.85 21.4625 132.85C20.8501 132.85 20.4314 132.375 20.4064 131.769H22.8936ZM22.4499 131.375H20.4126C20.4876 130.856 20.8563 130.425 21.4625 130.425C22.0187 130.425 22.4124 130.844 22.4499 131.375ZM23.6212 133.168H24.0961V131.45C24.0961 130.856 24.4461 130.469 24.871 130.469C25.0773 130.469 25.2335 130.538 25.296 130.588L25.4897 130.181C25.4022 130.106 25.196 130.019 24.9273 130.019C24.5273 130.019 24.2336 130.256 24.0899 130.513L24.0211 130.106H23.6212V133.168ZM26.8043 133.256C27.2917 133.256 27.5854 133.087 27.7541 132.85L27.8104 133.168H28.2103V131.119C28.2103 130.4 27.7354 130.019 26.9855 130.019C26.3231 130.019 25.9106 130.356 25.7919 130.937L26.2231 131.05C26.2731 130.687 26.473 130.419 26.9855 130.419C27.4917 130.419 27.7354 130.669 27.7354 131.125V131.225L26.9167 131.344C26.0793 131.462 25.7419 131.794 25.7419 132.331C25.7419 132.818 26.0981 133.256 26.8043 133.256ZM26.9042 132.843C26.473 132.843 26.2043 132.637 26.2043 132.306C26.2043 131.931 26.5105 131.794 26.973 131.725L27.7354 131.612V132.062C27.7354 132.612 27.3292 132.843 26.9042 132.843ZM29.0222 133.168H29.4971V128.794H29.0222V133.168Z" fill="#423E30"/>
<line x1="0.566406" y1="145.453" x2="123.32" y2="145.453" stroke="#E5E4E1" stroke-width="0.446376"/>
<path d="M185.96 134.035V128.419H185.264C184.898 128.669 184.389 128.892 183.996 128.973V129.642C184.371 129.58 184.933 129.392 185.264 129.178V134.035H183.621V134.668H187.603V134.035H185.96ZM188.626 135.472L188.938 135.749C189.403 135.338 189.626 134.677 189.626 134.285C189.626 133.883 189.376 133.686 189.099 133.686C188.84 133.686 188.581 133.883 188.581 134.222C188.581 134.463 188.76 134.633 188.974 134.704C188.974 134.963 188.787 135.276 188.626 135.472ZM192.604 134.793C194.193 134.793 194.854 133.311 194.854 131.517C194.854 129.767 194.166 128.294 192.604 128.294C191.015 128.294 190.328 129.767 190.328 131.517C190.328 133.311 191.006 134.793 192.604 134.793ZM192.604 134.16C191.479 134.16 191.015 132.937 191.015 131.544C191.015 130.16 191.488 128.928 192.604 128.928C193.702 128.928 194.158 130.16 194.158 131.544C194.158 132.972 193.711 134.16 192.604 134.16ZM197.957 134.793C199.546 134.793 200.207 133.311 200.207 131.517C200.207 129.767 199.519 128.294 197.957 128.294C196.368 128.294 195.681 129.767 195.681 131.517C195.681 133.311 196.359 134.793 197.957 134.793ZM197.957 134.16C196.832 134.16 196.368 132.937 196.368 131.544C196.368 130.16 196.841 128.928 197.957 128.928C199.055 128.928 199.511 130.16 199.511 131.544C199.511 132.972 199.064 134.16 197.957 134.16ZM203.31 134.793C204.899 134.793 205.56 133.311 205.56 131.517C205.56 129.767 204.872 128.294 203.31 128.294C201.721 128.294 201.034 129.767 201.034 131.517C201.034 133.311 201.712 134.793 203.31 134.793ZM203.31 134.16C202.185 134.16 201.721 132.937 201.721 131.544C201.721 130.16 202.194 128.928 203.31 128.928C204.408 128.928 204.864 130.16 204.864 131.544C204.864 132.972 204.417 134.16 203.31 134.16ZM206.788 134.731C207.083 134.731 207.315 134.499 207.315 134.213C207.315 133.919 207.083 133.686 206.788 133.686C206.494 133.686 206.271 133.919 206.271 134.213C206.271 134.499 206.494 134.731 206.788 134.731ZM210.294 134.793C211.883 134.793 212.543 133.311 212.543 131.517C212.543 129.767 211.856 128.294 210.294 128.294C208.704 128.294 208.017 129.767 208.017 131.517C208.017 133.311 208.696 134.793 210.294 134.793ZM210.294 134.16C209.169 134.16 208.704 132.937 208.704 131.544C208.704 130.16 209.178 128.928 210.294 128.928C211.392 128.928 211.847 130.16 211.847 131.544C211.847 132.972 211.401 134.16 210.294 134.16ZM215.647 134.793C217.236 134.793 217.896 133.311 217.896 131.517C217.896 129.767 217.209 128.294 215.647 128.294C214.057 128.294 213.37 129.767 213.37 131.517C213.37 133.311 214.049 134.793 215.647 134.793ZM215.647 134.16C214.522 134.16 214.057 132.937 214.057 131.544C214.057 130.16 214.531 128.928 215.647 128.928C216.745 128.928 217.2 130.16 217.2 131.544C217.2 132.972 216.754 134.16 215.647 134.16ZM224.519 134.793C225.778 134.793 226.475 134.088 226.689 133.74L226.796 134.668H227.314V131.356H225.082V131.963H226.635C226.617 133.079 225.948 134.16 224.519 134.16C223.055 134.16 222.047 133.062 222.047 131.544C222.047 130.098 223.073 128.928 224.537 128.928C225.519 128.928 226.153 129.446 226.466 130.231L227.108 129.999C226.698 128.946 225.76 128.294 224.519 128.294C222.716 128.294 221.35 129.696 221.35 131.544C221.35 133.472 222.68 134.793 224.519 134.793ZM228.661 134.668H230.991C232.205 134.668 232.892 133.883 232.892 132.901C232.892 131.963 232.294 131.571 231.892 131.428V131.41C232.33 131.16 232.651 130.705 232.651 130.062C232.651 129.16 232.098 128.419 230.875 128.419H228.661V134.668ZM229.357 131.187V129.035H230.857C231.535 129.035 231.964 129.437 231.964 130.071C231.964 130.731 231.589 131.187 230.857 131.187H229.357ZM229.357 134.052V131.785H230.875C231.812 131.785 232.196 132.285 232.196 132.901C232.196 133.526 231.794 134.052 231 134.052H229.357ZM234.066 134.668H234.762V132.196H236.066C237.298 132.196 238.155 131.499 238.155 130.303C238.155 129.098 237.333 128.419 236.057 128.419H234.066V134.668ZM234.762 131.571V129.044H236.003C236.86 129.044 237.458 129.401 237.458 130.303C237.458 131.205 236.86 131.571 236.003 131.571H234.762Z" fill="#423E30"/>
<line x1="123.32" y1="145.453" x2="246.074" y2="145.453" stroke="#E5E4E1" stroke-width="0.446376"/>
<path d="M12.5565 157.808H11.9815L10.4005 161.539L8.81315 157.808H8.23822V162.183H8.71316L8.72566 158.702L10.2005 162.183H10.5879L12.0753 158.689V162.183H12.5565V157.808ZM16.3331 160.783V160.577C16.3331 159.639 15.7519 159.039 14.8957 159.033C14.0208 159.033 13.3772 159.77 13.3772 160.652C13.3772 161.539 13.9646 162.27 14.902 162.27C15.6394 162.27 16.0893 161.851 16.2456 161.401L15.8269 161.27C15.7269 161.583 15.3894 161.864 14.902 161.864C14.2896 161.864 13.8709 161.389 13.8459 160.783H16.3331ZM15.8894 160.389H13.8521C13.9271 159.87 14.2958 159.439 14.902 159.439C15.4582 159.439 15.8519 159.858 15.8894 160.389ZM18.3668 162.264C18.9042 162.264 19.2542 162.014 19.4604 161.733L19.5229 162.183H19.9166V157.808H19.4416V159.564C19.2229 159.264 18.8667 159.033 18.3668 159.033C17.3856 159.033 16.9107 159.852 16.9107 160.645C16.9107 161.433 17.4481 162.264 18.3668 162.264ZM18.4168 161.839C17.8043 161.839 17.3856 161.333 17.3856 160.645C17.3856 159.952 17.8043 159.458 18.4168 159.458C19.0354 159.458 19.4479 159.958 19.4479 160.645C19.4479 161.333 19.0354 161.839 18.4168 161.839ZM21.0707 158.627C21.2644 158.627 21.4207 158.471 21.4207 158.271C21.4207 158.071 21.2644 157.914 21.0707 157.914C20.8645 157.914 20.7082 158.071 20.7082 158.271C20.7082 158.471 20.8645 158.627 21.0707 158.627ZM20.8332 162.183H21.3082V159.12H20.8332V162.183ZM23.1487 162.27C23.6361 162.27 23.9298 162.101 24.0986 161.864L24.1548 162.183H24.5548V160.133C24.5548 159.414 24.0798 159.033 23.3299 159.033C22.6675 159.033 22.255 159.37 22.1363 159.952L22.5675 160.064C22.6175 159.702 22.8175 159.433 23.3299 159.433C23.8361 159.433 24.0798 159.683 24.0798 160.139V160.239L23.2612 160.358C22.4238 160.477 22.0863 160.808 22.0863 161.345C22.0863 161.833 22.4425 162.27 23.1487 162.27ZM23.2487 161.858C22.8175 161.858 22.5487 161.651 22.5487 161.32C22.5487 160.945 22.855 160.808 23.3174 160.739L24.0798 160.627V161.076C24.0798 161.626 23.6736 161.858 23.2487 161.858ZM28.6679 162.264C29.5928 162.264 30.124 161.433 30.124 160.645C30.124 159.852 29.649 159.033 28.6679 159.033C28.168 159.033 27.818 159.264 27.593 159.564V157.808H27.1181V162.183H27.518L27.5805 161.733C27.7805 162.014 28.1305 162.264 28.6679 162.264ZM28.6179 161.839C27.9992 161.839 27.5868 161.333 27.5868 160.645C27.5868 159.958 27.9992 159.458 28.6179 159.458C29.2303 159.458 29.649 159.952 29.649 160.645C29.649 161.333 29.2303 161.839 28.6179 161.839ZM33.3966 159.12H32.9217V160.864C32.9217 161.47 32.4905 161.826 32.0468 161.826C31.6468 161.826 31.3218 161.664 31.3218 161.014V159.12H30.8469V161.126C30.8469 161.926 31.2968 162.27 31.8968 162.27C32.3342 162.27 32.6779 162.101 32.9217 161.77L32.9966 162.183H33.3966V159.12ZM36.4391 159.12V160.789C36.4391 161.401 36.0204 161.758 35.5142 161.758C35.0767 161.758 34.7518 161.57 34.7518 160.92V159.12H34.2768V161.076C34.2768 161.876 34.8205 162.201 35.3767 162.201C35.8829 162.201 36.1703 162.039 36.4328 161.708L36.4391 161.739V162.201C36.4391 162.764 36.1703 163.145 35.5704 163.145C35.083 163.145 34.8268 162.908 34.7268 162.489L34.2706 162.595C34.4268 163.164 34.8268 163.57 35.5704 163.57C36.564 163.57 36.914 162.864 36.914 162.189V159.12H36.4391ZM38.0731 158.627C38.2668 158.627 38.4231 158.471 38.4231 158.271C38.4231 158.071 38.2668 157.914 38.0731 157.914C37.8669 157.914 37.7106 158.071 37.7106 158.271C37.7106 158.471 37.8669 158.627 38.0731 158.627ZM37.8356 162.183H38.3106V159.12H37.8356V162.183ZM39.2199 162.183H39.6949V160.439C39.6949 159.833 40.1198 159.477 40.5698 159.477C40.9697 159.477 41.2947 159.639 41.2947 160.289V162.183H41.7696V160.177C41.7696 159.377 41.3197 159.033 40.7135 159.033C40.2761 159.033 39.9324 159.202 39.6886 159.533L39.6199 159.12H39.2199V162.183ZM43.9934 163.57C45.0996 163.57 45.487 162.864 45.487 162.189V159.12H45.0871L45.0121 159.558C44.8121 159.27 44.4746 159.033 43.9435 159.033C43.0123 159.033 42.4936 159.852 42.4936 160.633C42.4936 161.414 42.9748 162.214 43.9497 162.214C44.4746 162.214 44.8371 161.945 45.0121 161.651V162.201C45.0121 162.776 44.6934 163.158 43.9934 163.158C43.4685 163.158 43.1935 162.895 43.0873 162.483L42.6374 162.589C42.7936 163.151 43.206 163.57 43.9934 163.57ZM44.0059 161.789C43.3935 161.789 42.9686 161.32 42.9686 160.633C42.9686 159.939 43.3748 159.458 43.9934 159.458C44.5934 159.458 45.0121 159.939 45.0121 160.633C45.0121 161.32 44.5996 161.789 44.0059 161.789Z" fill="#423E30"/>
<line x1="0.566406" y1="174.467" x2="123.32" y2="174.467" stroke="#E5E4E1" stroke-width="0.446376"/>
<path d="M194.21 163.683H194.906V161.995H195.799V161.388H194.906V157.433H194.183L191.362 161.442V161.995H194.21V163.683ZM192.103 161.397L194.21 158.424V161.388L192.103 161.397ZM198.974 163.808C200.563 163.808 201.224 162.326 201.224 160.531C201.224 158.781 200.536 157.308 198.974 157.308C197.385 157.308 196.697 158.781 196.697 160.531C196.697 162.326 197.376 163.808 198.974 163.808ZM198.974 163.174C197.849 163.174 197.385 161.951 197.385 160.558C197.385 159.174 197.858 157.942 198.974 157.942C200.072 157.942 200.527 159.174 200.527 160.558C200.527 161.986 200.081 163.174 198.974 163.174ZM204.327 163.808C205.916 163.808 206.577 162.326 206.577 160.531C206.577 158.781 205.889 157.308 204.327 157.308C202.738 157.308 202.05 158.781 202.05 160.531C202.05 162.326 202.729 163.808 204.327 163.808ZM204.327 163.174C203.202 163.174 202.738 161.951 202.738 160.558C202.738 159.174 203.211 157.942 204.327 157.942C205.425 157.942 205.88 159.174 205.88 160.558C205.88 161.986 205.434 163.174 204.327 163.174ZM207.805 163.745C208.1 163.745 208.332 163.513 208.332 163.227C208.332 162.933 208.1 162.701 207.805 162.701C207.51 162.701 207.287 162.933 207.287 163.227C207.287 163.513 207.51 163.745 207.805 163.745ZM211.31 163.808C212.899 163.808 213.56 162.326 213.56 160.531C213.56 158.781 212.872 157.308 211.31 157.308C209.721 157.308 209.034 158.781 209.034 160.531C209.034 162.326 209.712 163.808 211.31 163.808ZM211.31 163.174C210.185 163.174 209.721 161.951 209.721 160.558C209.721 159.174 210.194 157.942 211.31 157.942C212.408 157.942 212.864 159.174 212.864 160.558C212.864 161.986 212.417 163.174 211.31 163.174ZM216.663 163.808C218.252 163.808 218.913 162.326 218.913 160.531C218.913 158.781 218.226 157.308 216.663 157.308C215.074 157.308 214.387 158.781 214.387 160.531C214.387 162.326 215.065 163.808 216.663 163.808ZM216.663 163.174C215.538 163.174 215.074 161.951 215.074 160.558C215.074 159.174 215.547 157.942 216.663 157.942C217.761 157.942 218.217 159.174 218.217 160.558C218.217 161.986 217.77 163.174 216.663 163.174ZM222.554 163.683H226.34V163.058H223.251V160.835H225.974V160.219H223.251V158.058H226.34V157.433H222.554V163.683ZM229.835 163.808C231.139 163.808 232.13 163.076 232.13 161.433V157.433H231.433V161.388C231.433 162.692 230.746 163.174 229.835 163.174C228.916 163.174 228.246 162.692 228.246 161.388V157.433H227.55V161.424C227.55 163.031 228.505 163.808 229.835 163.808ZM233.574 163.683H234.271V161.031H235.547L237.11 163.683H237.886L236.27 160.951C236.94 160.817 237.645 160.254 237.645 159.228C237.645 158.201 236.985 157.433 235.619 157.433H233.574V163.683ZM234.271 160.415V158.058H235.619C236.351 158.058 236.949 158.38 236.949 159.228C236.949 160.058 236.395 160.415 235.654 160.415H234.271Z" fill="#423E30"/>
<line x1="123.32" y1="174.467" x2="246.074" y2="174.467" stroke="#E5E4E1" stroke-width="0.446376"/>
<path d="M8.21322 191.197H8.70066V186.823H8.21322V191.197ZM9.64577 191.197H10.1207V189.454C10.1207 188.848 10.5457 188.491 10.9956 188.491C11.3956 188.491 11.7205 188.654 11.7205 189.304V191.197H12.1955V189.191C12.1955 188.391 11.7455 188.048 11.1393 188.048C10.7019 188.048 10.3582 188.216 10.1145 188.548L10.0457 188.135H9.64577V191.197ZM15.046 188.135L14.1023 190.654L13.1587 188.135H12.6712L13.8461 191.197H14.3585L15.5272 188.135H15.046ZM18.7986 189.797V189.591C18.7986 188.654 18.2174 188.054 17.3613 188.048C16.4864 188.048 15.8427 188.785 15.8427 189.666C15.8427 190.554 16.4301 191.285 17.3675 191.285C18.1049 191.285 18.5549 190.866 18.7111 190.416L18.2924 190.285C18.1924 190.597 17.855 190.879 17.3675 190.879C16.7551 190.879 16.3364 190.404 16.3114 189.797H18.7986ZM18.3549 189.404H16.3176C16.3926 188.885 16.7613 188.454 17.3675 188.454C17.9237 188.454 18.3174 188.873 18.3549 189.404ZM19.5262 191.197H20.0011V189.454C20.0011 188.848 20.4261 188.491 20.876 188.491C21.276 188.491 21.601 188.654 21.601 189.304V191.197H22.0759V189.191C22.0759 188.391 21.626 188.048 21.0198 188.048C20.5823 188.048 20.2386 188.216 19.9949 188.548L19.9262 188.135H19.5262V191.197ZM23.9134 191.285C24.2634 191.285 24.4759 191.147 24.5509 191.054L24.3071 190.722C24.2509 190.772 24.1384 190.841 23.9884 190.841C23.7634 190.841 23.6322 190.735 23.6322 190.447V188.566H24.5134V188.135H23.6322V187.335H23.1573V188.135H22.5886V188.566H23.1573V190.491C23.1573 190.991 23.4572 191.285 23.9134 191.285ZM26.3883 191.285C27.3882 191.285 27.9632 190.466 27.9632 189.666C27.9632 188.86 27.3882 188.048 26.3883 188.048C25.4072 188.048 24.826 188.86 24.826 189.666C24.826 190.466 25.3822 191.285 26.3883 191.285ZM26.3883 190.854C25.7447 190.854 25.301 190.335 25.301 189.666C25.301 188.991 25.7447 188.479 26.3883 188.479C27.0383 188.479 27.4882 188.991 27.4882 189.666C27.4882 190.335 27.0383 190.854 26.3883 190.854ZM28.6865 191.197H29.1614V189.479C29.1614 188.885 29.5114 188.498 29.9364 188.498C30.1426 188.498 30.2988 188.566 30.3613 188.616L30.555 188.21C30.4675 188.135 30.2613 188.048 29.9926 188.048C29.5926 188.048 29.2989 188.285 29.1552 188.541L29.0865 188.135H28.6865V191.197ZM33.2168 188.135V189.804C33.2168 190.416 32.7981 190.772 32.2919 190.772C31.8544 190.772 31.5295 190.585 31.5295 189.935V188.135H31.0545V190.091C31.0545 190.891 31.5982 191.216 32.1544 191.216C32.6606 191.216 32.9481 191.054 33.2105 190.722L33.2168 190.754V191.216C33.2168 191.778 32.9481 192.16 32.3481 192.16C31.8607 192.16 31.6045 191.922 31.5045 191.503L31.0483 191.61C31.2045 192.178 31.6045 192.585 32.3481 192.585C33.3418 192.585 33.6917 191.878 33.6917 191.204V188.135H33.2168Z" fill="#423E30"/>
<line x1="0.566406" y1="203.481" x2="123.32" y2="203.481" stroke="#E5E4E1" stroke-width="0.446376"/>
<path d="M216.621 192.822C218.21 192.822 218.871 191.34 218.871 189.546C218.871 187.796 218.183 186.323 216.621 186.323C215.032 186.323 214.344 187.796 214.344 189.546C214.344 191.34 215.023 192.822 216.621 192.822ZM216.621 192.188C215.496 192.188 215.032 190.965 215.032 189.573C215.032 188.189 215.505 186.957 216.621 186.957C217.719 186.957 218.174 188.189 218.174 189.573C218.174 191.001 217.728 192.188 216.621 192.188ZM222.512 192.697H226.297V192.072H223.208V189.849H225.931V189.233H223.208V187.073H226.297V186.448H222.512V192.697ZM229.793 192.822C231.096 192.822 232.087 192.09 232.087 190.448V186.448H231.391V190.403C231.391 191.706 230.704 192.188 229.793 192.188C228.873 192.188 228.204 191.706 228.204 190.403V186.448H227.507V190.439C227.507 192.046 228.463 192.822 229.793 192.822ZM233.532 192.697H234.228V190.046H235.505L237.067 192.697H237.844L236.228 189.965C236.897 189.832 237.603 189.269 237.603 188.242C237.603 187.216 236.942 186.448 235.576 186.448H233.532V192.697ZM234.228 189.43V187.073H235.576C236.308 187.073 236.906 187.394 236.906 188.242C236.906 189.073 236.353 189.43 235.612 189.43H234.228Z" fill="#423E30"/>
<line x1="123.32" y1="203.481" x2="246.074" y2="203.481" stroke="#E5E4E1" stroke-width="0.446376"/>
<path d="M9.63805 220.293C10.5067 220.293 11.1879 219.806 11.1879 219.037C11.1879 218.293 10.6942 217.937 9.74429 217.75C9.03188 217.612 8.63817 217.45 8.63817 216.975C8.63817 216.469 9.05062 216.181 9.63181 216.181C10.2442 216.181 10.5317 216.544 10.6567 217.075L11.1129 216.944C10.9192 216.2 10.4505 215.744 9.63181 215.744C8.81315 215.744 8.15073 216.206 8.15073 216.975C8.15073 217.731 8.76941 218.056 9.6568 218.218C10.6317 218.4 10.7004 218.743 10.7004 219.037C10.7004 219.587 10.2317 219.856 9.63805 219.856C8.98188 219.856 8.61318 219.543 8.45069 218.906L7.9945 219.037C8.21322 219.887 8.78815 220.293 9.63805 220.293ZM12.7922 220.299C13.2797 220.299 13.5734 220.131 13.7421 219.893L13.7984 220.212H14.1983V218.162C14.1983 217.443 13.7234 217.062 12.9735 217.062C12.311 217.062 11.8986 217.4 11.7798 217.981L12.211 218.093C12.261 217.731 12.461 217.462 12.9735 217.462C13.4796 217.462 13.7234 217.712 13.7234 218.168V218.268L12.9047 218.387C12.0673 218.506 11.7299 218.837 11.7299 219.375C11.7299 219.862 12.0861 220.299 12.7922 220.299ZM12.8922 219.887C12.461 219.887 12.1923 219.681 12.1923 219.35C12.1923 218.975 12.4985 218.837 12.961 218.768L13.7234 218.656V219.106C13.7234 219.656 13.3172 219.887 12.8922 219.887ZM15.0101 220.212H15.4851V215.837H15.0101V220.212ZM17.29 220.299C17.7774 220.299 18.0711 220.131 18.2399 219.893L18.2961 220.212H18.6961V218.162C18.6961 217.443 18.2211 217.062 17.4712 217.062C16.8088 217.062 16.3963 217.4 16.2776 217.981L16.7088 218.093C16.7588 217.731 16.9588 217.462 17.4712 217.462C17.9774 217.462 18.2211 217.712 18.2211 218.168V218.268L17.4025 218.387C16.5651 218.506 16.2276 218.837 16.2276 219.375C16.2276 219.862 16.5838 220.299 17.29 220.299ZM17.39 219.887C16.9588 219.887 16.6901 219.681 16.6901 219.35C16.6901 218.975 16.9963 218.837 17.4587 218.768L18.2211 218.656V219.106C18.2211 219.656 17.8149 219.887 17.39 219.887ZM19.5079 220.212H19.9828V218.493C19.9828 217.9 20.3328 217.512 20.7577 217.512C20.964 217.512 21.1202 217.581 21.1827 217.631L21.3764 217.225C21.2889 217.15 21.0827 217.062 20.814 217.062C20.414 217.062 20.1203 217.3 19.9766 217.556L19.9078 217.15H19.5079V220.212ZM22.1509 216.656C22.3446 216.656 22.5009 216.5 22.5009 216.3C22.5009 216.1 22.3446 215.944 22.1509 215.944C21.9447 215.944 21.7884 216.1 21.7884 216.3C21.7884 216.5 21.9447 216.656 22.1509 216.656ZM21.9134 220.212H22.3884V217.15H21.9134V220.212ZM26.1037 218.812V218.606C26.1037 217.668 25.5225 217.069 24.6663 217.062C23.7914 217.062 23.1477 217.8 23.1477 218.681C23.1477 219.568 23.7352 220.299 24.6726 220.299C25.41 220.299 25.8599 219.881 26.0162 219.431L25.5975 219.3C25.4975 219.612 25.16 219.893 24.6726 219.893C24.0601 219.893 23.6414 219.418 23.6164 218.812H26.1037ZM25.66 218.418H23.6227C23.6977 217.9 24.0664 217.468 24.6726 217.468C25.2288 217.468 25.6225 217.887 25.66 218.418ZM27.8886 220.299C28.5322 220.299 29.0697 219.943 29.0697 219.381C29.0697 218.781 28.6072 218.556 27.976 218.443C27.5448 218.362 27.2136 218.262 27.2136 217.956C27.2136 217.743 27.3574 217.481 27.8886 217.481C28.3322 217.481 28.5385 217.762 28.601 218.081L29.0384 217.968C28.9072 217.406 28.526 217.062 27.8886 217.062C27.2824 217.062 26.7574 217.375 26.7574 217.962C26.7574 218.575 27.2824 218.775 27.8948 218.881C28.5697 218.993 28.6072 219.212 28.6072 219.387C28.6072 219.712 28.301 219.881 27.8886 219.881C27.3074 219.881 27.1511 219.512 27.0636 219.225L26.6324 219.362C26.8137 219.993 27.2449 220.299 27.8886 220.299Z" fill="#423E30"/>
<line x1="0.566406" y1="232.496" x2="123.32" y2="232.496" stroke="#E5E4E1" stroke-width="0.446376"/>
<path d="M215.621 221.837C217.21 221.837 217.871 220.355 217.871 218.56C217.871 216.811 217.183 215.338 215.621 215.338C214.032 215.338 213.344 216.811 213.344 218.56C213.344 220.355 214.023 221.837 215.621 221.837ZM215.621 221.203C214.496 221.203 214.032 219.98 214.032 218.587C214.032 217.204 214.505 215.972 215.621 215.972C216.719 215.972 217.174 217.204 217.174 218.587C217.174 220.016 216.728 221.203 215.621 221.203ZM224.494 221.837C225.752 221.837 226.449 221.132 226.663 220.783L226.77 221.712H227.288V218.4H225.056V219.007H226.61C226.592 220.123 225.922 221.203 224.494 221.203C223.03 221.203 222.021 220.105 222.021 218.587C222.021 217.141 223.047 215.972 224.512 215.972C225.494 215.972 226.127 216.489 226.44 217.275L227.083 217.043C226.672 215.989 225.735 215.338 224.494 215.338C222.69 215.338 221.324 216.739 221.324 218.587C221.324 220.516 222.655 221.837 224.494 221.837ZM228.635 221.712H230.965C232.179 221.712 232.866 220.926 232.866 219.944C232.866 219.007 232.268 218.614 231.867 218.471V218.453C232.304 218.203 232.625 217.748 232.625 217.105C232.625 216.204 232.072 215.463 230.849 215.463H228.635V221.712ZM229.331 218.23V216.079H230.831C231.509 216.079 231.938 216.48 231.938 217.114C231.938 217.775 231.563 218.23 230.831 218.23H229.331ZM229.331 221.096V218.828H230.849C231.786 218.828 232.17 219.328 232.17 219.944C232.17 220.569 231.768 221.096 230.974 221.096H229.331ZM234.04 221.712H234.736V219.239H236.04C237.272 219.239 238.129 218.543 238.129 217.346C238.129 216.141 237.308 215.463 236.031 215.463H234.04V221.712ZM234.736 218.614V216.088H235.977C236.834 216.088 237.433 216.445 237.433 217.346C237.433 218.248 236.834 218.614 235.977 218.614H234.736Z" fill="#423E30"/>
<line x1="123.32" y1="232.496" x2="246.074" y2="232.496" stroke="#E5E4E1" stroke-width="0.446376"/>
<path d="M9.2506 249.226H9.73804V245.295H11.0879V244.852H7.90701V245.295H9.2506V249.226ZM11.202 249.226H11.6769V247.508C11.6769 246.914 12.0269 246.526 12.4518 246.526C12.6581 246.526 12.8143 246.595 12.8768 246.645L13.0705 246.239C12.983 246.164 12.7768 246.076 12.5081 246.076C12.1081 246.076 11.8144 246.314 11.6707 246.57L11.6019 246.164H11.202V249.226ZM14.3851 249.314C14.8725 249.314 15.1662 249.145 15.3349 248.907L15.3912 249.226H15.7911V247.176C15.7911 246.458 15.3162 246.076 14.5663 246.076C13.9039 246.076 13.4914 246.414 13.3727 246.995L13.8039 247.108C13.8539 246.745 14.0538 246.476 14.5663 246.476C15.0725 246.476 15.3162 246.726 15.3162 247.183V247.283L14.4975 247.401C13.6601 247.52 13.3227 247.851 13.3227 248.389C13.3227 248.876 13.6789 249.314 14.3851 249.314ZM14.485 248.901C14.0538 248.901 13.7851 248.695 13.7851 248.364C13.7851 247.989 14.0913 247.851 14.5538 247.782L15.3162 247.67V248.12C15.3162 248.67 14.91 248.901 14.485 248.901ZM18.5917 246.164L17.6481 248.682L16.7044 246.164H16.217L17.3918 249.226H17.9043L19.0729 246.164H18.5917ZM22.3443 247.826V247.62C22.3443 246.683 21.7631 246.083 20.907 246.076C20.0321 246.076 19.3884 246.814 19.3884 247.695C19.3884 248.582 19.9759 249.314 20.9132 249.314C21.6507 249.314 22.1006 248.895 22.2568 248.445L21.8381 248.314C21.7381 248.626 21.4007 248.907 20.9132 248.907C20.3008 248.907 19.8821 248.432 19.8571 247.826H22.3443ZM21.9006 247.433H19.8634C19.9384 246.914 20.3071 246.483 20.9132 246.483C21.4694 246.483 21.8631 246.901 21.9006 247.433ZM23.0719 249.226H23.5469V244.852H23.0719V249.226Z" fill="#423E30"/>
<line x1="0.566406" y1="261.51" x2="123.32" y2="261.51" stroke="#E5E4E1" stroke-width="0.446376"/>
<path d="M215.621 250.851C217.21 250.851 217.871 249.369 217.871 247.575C217.871 245.825 217.183 244.352 215.621 244.352C214.032 244.352 213.344 245.825 213.344 247.575C213.344 249.369 214.023 250.851 215.621 250.851ZM215.621 250.217C214.496 250.217 214.032 248.994 214.032 247.601C214.032 246.218 214.505 244.986 215.621 244.986C216.719 244.986 217.174 246.218 217.174 247.601C217.174 249.03 216.728 250.217 215.621 250.217ZM224.494 250.851C225.752 250.851 226.449 250.146 226.663 249.798L226.77 250.726H227.288V247.414H225.056V248.021H226.61C226.592 249.137 225.922 250.217 224.494 250.217C223.03 250.217 222.021 249.119 222.021 247.601C222.021 246.155 223.047 244.986 224.512 244.986C225.494 244.986 226.127 245.503 226.44 246.289L227.083 246.057C226.672 245.004 225.735 244.352 224.494 244.352C222.69 244.352 221.324 245.753 221.324 247.601C221.324 249.53 222.655 250.851 224.494 250.851ZM228.635 250.726H230.965C232.179 250.726 232.866 249.94 232.866 248.958C232.866 248.021 232.268 247.628 231.867 247.485V247.468C232.304 247.218 232.625 246.762 232.625 246.119C232.625 245.218 232.072 244.477 230.849 244.477H228.635V250.726ZM229.331 247.244V245.093H230.831C231.509 245.093 231.938 245.495 231.938 246.128C231.938 246.789 231.563 247.244 230.831 247.244H229.331ZM229.331 250.11V247.842H230.849C231.786 247.842 232.17 248.342 232.17 248.958C232.17 249.583 231.768 250.11 230.974 250.11H229.331ZM234.04 250.726H234.736V248.253H236.04C237.272 248.253 238.129 247.557 238.129 246.361C238.129 245.155 237.308 244.477 236.031 244.477H234.04V250.726ZM234.736 247.628V245.102H235.977C236.834 245.102 237.433 245.459 237.433 246.361C237.433 247.262 236.834 247.628 235.977 247.628H234.736Z" fill="#423E30"/>
<line x1="123.32" y1="261.51" x2="246.074" y2="261.51" stroke="#E5E4E1" stroke-width="0.446376"/>
<rect x="0.343218" y="0.574175" width="245.953" height="289.95" rx="2.90145" stroke="#E5E4E1" stroke-width="0.446376"/>
<defs>
<clipPath id="clip0_5704_3609">
<rect width="5.35652" height="5.35652" fill="white" transform="translate(159.309 54.0786)"/>
</clipPath>
<clipPath id="clip1_5704_3609">
<rect width="122.753" height="24.284" fill="white" transform="translate(0.566406 92.377)"/>
</clipPath>
</defs>
</svg>
