<svg width="106" height="24" viewBox="0 0 106 24" fill="none" xmlns="http://www.w3.org/2000/svg">
<path d="M106 0H85.0982V4.64137H92.9825V18.5005H85.0982V23.1419H106V18.5005H97.7957V4.64137H106V0ZM61.81 23.1419V9.28476L75.8607 20.2857V23.1419H80.676V0H75.8607V13.8916L61.81 2.85623V0H56.9948V23.1419H61.81ZM47.257 13.8572L44.903 17.393L40.2681 18.8921L35.6311 17.393L33.2772 13.8572V0H28.462V15.2853L32.4912 21.4217L40.2681 23.9939L48.043 21.4217L52.0722 15.2792V0H47.257V13.8572ZM23.6102 0H5.9213V4.64137H18.797V13.8572L16.4431 17.393L11.8061 18.8921L7.16917 17.393L4.13053 12.8206L0 15.2853L4.03126 21.4217L11.8061 23.9939L19.581 21.4217L23.6102 15.2792V0Z" fill="#FF4100"/>
</svg>
