<svg width="72" height="40" viewBox="0 0 72 40" fill="none" xmlns="http://www.w3.org/2000/svg">
<path d="M23.0001 5.39437V0H5.76866H0V5.39437V13.8599V18.0554V19.2543H23.0001V13.8599H5.76866V5.39437H23.0001Z" fill="white"/>
<path d="M41.3168 0V6.59292H30.1561V0H24.2739V19.2543H30.1561V12.7362H41.3168V19.2543H47.199V0H41.3168Z" fill="white"/>
<path d="M71.5202 5.44124V0.046875H54.3638H48.52V5.44124V7.01438V12.4085V13.9068V19.3012H54.3638H71.5202V13.9068H54.3638V12.4085H71.5202V7.01438H54.3638V5.44124H71.5202Z" fill="white"/>
<path d="M0.0141602 20.6689V39.9232H5.76405V33.1862L16.8159 39.9232H22.9392V37.1513L15.3196 32.731H22.9392V20.6689H0.0141602ZM17.1893 27.7863H5.76405V25.9882H17.1893V27.7863Z" fill="white"/>
<path d="M24.3018 20.7461V40.0001H30.0704V33.2631L41.1586 40.0001H47.3019V37.2281L39.6574 32.8079H47.3019V20.7461H24.3018ZM41.5332 27.8632H30.0704V26.0654H41.5332V27.8632Z" fill="white"/>
<path d="M65.6569 20.7461V27.7887H54.3442V20.7461H48.5005V32.8082H57.1162V40.0004H62.96V32.8082H71.5006V20.7461H65.6569Z" fill="white"/>
</svg>
