<svg width="736" height="77" viewBox="0 0 736 77" fill="none" xmlns="http://www.w3.org/2000/svg">
<path d="M0.423828 0.969289C0.423828 0.605475 0.718757 0.310547 1.08257 0.310547H734.922C735.286 0.310547 735.581 0.605476 735.581 0.96929V76.066C735.581 76.4298 735.286 76.7247 734.922 76.7247H1.0826C0.718786 76.7247 0.423828 76.4298 0.423828 76.066V0.969289Z" fill="#F9F8F7"/>
<path d="M17.933 56.2007H26.826V54.7976H20.0475L23.5652 51.6554C25.2252 50.1929 26.8062 48.8096 26.8062 46.3195C26.8062 43.8888 24.9288 42.0904 22.2807 42.0904C19.9092 42.0904 17.7749 43.6912 17.676 46.28L19.0989 46.695C19.1187 44.699 20.6009 43.4935 22.2807 43.4935C24.0593 43.4935 25.2648 44.7188 25.2648 46.3195C25.2648 48.3353 23.8616 49.4815 22.498 50.7068L17.933 54.7778V56.2007ZM28.834 57.9793L29.5257 58.5919C30.5533 57.6829 31.0474 56.2204 31.0474 55.3509C31.0474 54.4616 30.4941 54.0268 29.8814 54.0268C29.3083 54.0268 28.7352 54.4616 28.7352 55.2126C28.7352 55.7462 29.1305 56.1216 29.6048 56.2797C29.6048 56.8528 29.1897 57.5445 28.834 57.9793ZM37.6997 56.4774C40.3874 56.4774 42.5217 54.5604 42.5217 51.8332C42.5217 49.1653 40.585 47.2484 37.759 47.2484C36.5733 47.2484 35.5654 47.7029 35.1306 48.0586L35.6049 43.7702H41.6522V42.3671H34.3204L33.5694 49.2641L34.9725 49.7582C35.4271 49.2246 36.4349 48.612 37.68 48.612C39.6562 48.612 41 49.9953 41.0198 51.8332C41 53.7106 39.676 55.0742 37.6997 55.0742C35.9409 55.0742 34.518 53.9675 34.3401 52.2877L32.8975 52.7225C33.0951 54.6592 35.0121 56.4774 37.6997 56.4774ZM50.7944 56.2007H52.3359V52.4656H54.3121V51.1218H52.3359V42.3671H50.7351L44.4902 51.2403V52.4656H50.7944V56.2007ZM46.1305 51.1415L50.7944 44.5607V51.1218L46.1305 51.1415ZM61.32 56.4774C64.146 56.4774 66.1815 54.5011 66.1815 51.932C66.1815 49.3432 64.4424 47.5646 61.735 47.4855L65.2724 43.7702V42.3671H57.0118V43.7702H63.4148L59.403 47.9796L60.1935 48.9479C60.6283 48.8293 60.984 48.7701 61.32 48.7701C63.395 48.7701 64.6401 50.1534 64.6401 51.932C64.6401 53.7106 63.2765 55.0742 61.32 55.0742C59.4821 55.0742 58.0987 53.7304 57.9999 52.0704L56.5968 52.4854C56.7154 54.6592 58.6323 56.4774 61.32 56.4774ZM67.9919 57.9793L68.6836 58.5919C69.7112 57.6829 70.2053 56.2204 70.2053 55.3509C70.2053 54.4616 69.652 54.0268 69.0393 54.0268C68.4662 54.0268 67.8931 54.4616 67.8931 55.2126C67.8931 55.7462 68.2884 56.1216 68.7627 56.2797C68.7627 56.8528 68.3476 57.5445 67.9919 57.9793ZM72.5494 56.2007H81.4425V54.7976H74.664L78.1817 51.6554C79.8417 50.1929 81.4227 48.8096 81.4227 46.3195C81.4227 43.8888 79.5453 42.0904 76.8972 42.0904C74.5257 42.0904 72.3914 43.6912 72.2925 46.28L73.7154 46.695C73.7352 44.699 75.2174 43.4935 76.8972 43.4935C78.6758 43.4935 79.8813 44.7188 79.8813 46.3195C79.8813 48.3353 78.4781 49.4815 77.1145 50.7068L72.5494 54.7778V56.2007ZM88.6282 56.4774C91.4542 56.4774 93.4898 54.5011 93.4898 51.932C93.4898 49.3432 91.7507 47.5646 89.0432 47.4855L92.5807 43.7702V42.3671H84.3201V43.7702H90.723L86.7113 47.9796L87.5018 48.9479C87.9366 48.8293 88.2923 48.7701 88.6282 48.7701C90.7033 48.7701 91.9483 50.1534 91.9483 51.932C91.9483 53.7106 90.5847 55.0742 88.6282 55.0742C86.7903 55.0742 85.407 53.7304 85.3082 52.0704L83.905 52.4854C84.0236 54.6592 85.9406 56.4774 88.6282 56.4774ZM101.802 56.2007H103.343V52.4656H105.32V51.1218H103.343V42.3671H101.743L95.4978 51.2403V52.4656H101.802V56.2007ZM97.1381 51.1415L101.802 44.5607V51.1218L97.1381 51.1415ZM108.197 56.339C108.849 56.339 109.363 55.8252 109.363 55.1928C109.363 54.5407 108.849 54.0268 108.197 54.0268C107.545 54.0268 107.051 54.5407 107.051 55.1928C107.051 55.8252 107.545 56.339 108.197 56.339ZM115.956 56.4774C119.474 56.4774 120.936 53.1968 120.936 49.2246C120.936 45.3512 119.415 42.0904 115.956 42.0904C112.439 42.0904 110.917 45.3512 110.917 49.2246C110.917 53.1968 112.419 56.4774 115.956 56.4774ZM115.956 55.0742C113.466 55.0742 112.439 52.3668 112.439 49.2839C112.439 46.2207 113.486 43.4935 115.956 43.4935C118.387 43.4935 119.395 46.2207 119.395 49.2839C119.395 52.4458 118.407 55.0742 115.956 55.0742ZM127.806 56.4774C131.324 56.4774 132.786 53.1968 132.786 49.2246C132.786 45.3512 131.264 42.0904 127.806 42.0904C124.288 42.0904 122.767 45.3512 122.767 49.2246C122.767 53.1968 124.268 56.4774 127.806 56.4774ZM127.806 55.0742C125.316 55.0742 124.288 52.3668 124.288 49.2839C124.288 46.2207 125.336 43.4935 127.806 43.4935C130.237 43.4935 131.245 46.2207 131.245 49.2839C131.245 52.4458 130.256 55.0742 127.806 55.0742Z" fill="#423E30"/>
<path d="M140.57 55.7559H146.156V54.8336H141.598V51.5531H145.616V50.644H141.598V47.4557H146.156V46.5335H140.57V55.7559ZM151.315 55.9403C153.239 55.9403 154.701 54.86 154.701 52.4358V46.5335H153.673V52.3699C153.673 54.2934 152.659 55.0049 151.315 55.0049C149.958 55.0049 148.97 54.2934 148.97 52.3699V46.5335H147.942V52.4226C147.942 54.7941 149.352 55.9403 151.315 55.9403ZM156.833 55.7559H157.86V51.8429H159.744L162.05 55.7559H163.196L160.812 51.7244C161.8 51.5267 162.841 50.6967 162.841 49.1816C162.841 47.6665 161.866 46.5335 159.85 46.5335H156.833V55.7559ZM157.86 50.9339V47.4557H159.85C160.93 47.4557 161.813 47.93 161.813 49.1816C161.813 50.4069 160.996 50.9339 159.903 50.9339H157.86Z" fill="#423E30"/>
<path d="M18.4191 26.1206H19.3413V20.5134H21.2688V19.6649H16.5008V20.5134H18.4191V26.1206ZM23.2955 26.2497C24.7157 26.2497 25.6472 25.1061 25.6472 23.8427C25.6472 22.5608 24.7157 21.4264 23.2955 21.4264C21.8844 21.4264 20.9437 22.5608 20.9437 23.8427C20.9437 25.1061 21.8568 26.2497 23.2955 26.2497ZM23.2955 25.4197C22.447 25.4197 21.8475 24.7465 21.8475 23.8427C21.8475 22.9297 22.447 22.2564 23.2955 22.2564C24.1347 22.2564 24.7434 22.9297 24.7434 23.8427C24.7434 24.7465 24.1347 25.4197 23.2955 25.4197ZM28.1555 26.2497C28.7273 26.2497 29.0593 26.0284 29.1884 25.8808L28.7734 25.2353C28.6904 25.3183 28.5429 25.4105 28.3307 25.4105C28.0264 25.4105 27.8512 25.2537 27.8512 24.8756V22.3671H29.087V21.5555H27.8512V20.3658H26.9474V21.5555H26.1266V22.3671H26.9474V24.9862C26.9474 25.7978 27.4546 26.2497 28.1555 26.2497ZM31.2929 26.2497C32.0214 26.2497 32.418 25.9823 32.6393 25.6779L32.7316 26.1206H33.497V23.0957C33.497 21.9705 32.7039 21.4356 31.6341 21.4356C30.6012 21.4356 30.0017 21.9244 29.7896 22.8098L30.592 23.0034C30.675 22.5054 30.9516 22.1734 31.6156 22.1734C32.2889 22.1734 32.5932 22.5054 32.5932 23.1049V23.2063L31.4958 23.3631C30.1401 23.5568 29.7158 24.1286 29.7158 24.8571C29.7158 25.6503 30.3337 26.2497 31.2929 26.2497ZM31.5142 25.5027C30.9424 25.5027 30.592 25.226 30.592 24.811C30.592 24.3407 30.9516 24.147 31.5695 24.0548L32.5932 23.898V24.4975C32.5932 25.1799 32.0768 25.5027 31.5142 25.5027ZM34.6022 26.1206H35.506V19.6649H34.6022V26.1206ZM39.3961 26.1206H41.8216C43.0943 26.1206 43.8782 25.3459 43.8782 24.2761C43.8782 23.3354 43.2787 22.9204 42.8361 22.7729V22.7544C43.288 22.5054 43.6384 22.0627 43.6384 21.3711C43.6384 20.4119 43.0297 19.6649 41.7294 19.6649H39.3961V26.1206ZM40.3184 22.4501V20.4765H41.7017C42.3381 20.4765 42.7346 20.8362 42.7346 21.4264C42.7346 22.0351 42.3934 22.4501 41.7017 22.4501H40.3184ZM40.3184 25.309V23.2248H41.7386C42.6055 23.2248 42.956 23.6767 42.956 24.2577C42.956 24.8295 42.5871 25.309 41.8216 25.309H40.3184ZM46.2613 26.2497C46.9898 26.2497 47.3864 25.9823 47.6077 25.6779L47.7 26.1206H48.4654V23.0957C48.4654 21.9705 47.6723 21.4356 46.6025 21.4356C45.5696 21.4356 44.9701 21.9244 44.758 22.8098L45.5604 23.0034C45.6434 22.5054 45.92 22.1734 46.584 22.1734C47.2573 22.1734 47.5616 22.5054 47.5616 23.1049V23.2063L46.4641 23.3631C45.1085 23.5568 44.6842 24.1286 44.6842 24.8571C44.6842 25.6503 45.3021 26.2497 46.2613 26.2497ZM46.4826 25.5027C45.9108 25.5027 45.5604 25.226 45.5604 24.811C45.5604 24.3407 45.92 24.147 46.5379 24.0548L47.5616 23.898V24.4975C47.5616 25.1799 47.0452 25.5027 46.4826 25.5027ZM49.5706 26.1206H50.4744V19.6649H49.5706V26.1206ZM53.034 26.2497C53.7625 26.2497 54.1591 25.9823 54.3804 25.6779L54.4727 26.1206H55.2381V23.0957C55.2381 21.9705 54.445 21.4356 53.3752 21.4356C52.3423 21.4356 51.7428 21.9244 51.5307 22.8098L52.3331 23.0034C52.4161 22.5054 52.6927 22.1734 53.3567 22.1734C54.03 22.1734 54.3343 22.5054 54.3343 23.1049V23.2063L53.2369 23.3631C51.8812 23.5568 51.4569 24.1286 51.4569 24.8571C51.4569 25.6503 52.0748 26.2497 53.034 26.2497ZM53.2553 25.5027C52.6835 25.5027 52.3331 25.226 52.3331 24.811C52.3331 24.3407 52.6927 24.147 53.3106 24.0548L54.3343 23.898V24.4975C54.3343 25.1799 53.8179 25.5027 53.2553 25.5027ZM56.3433 26.1206H57.2471V23.5752C57.2471 22.736 57.782 22.2749 58.3999 22.2749C58.9532 22.2749 59.3775 22.5146 59.3775 23.4092V26.1206H60.2813V23.2524C60.2813 21.989 59.6541 21.4264 58.6766 21.4264C58.0218 21.4264 57.5514 21.7031 57.2286 22.1365L57.0903 21.5555H56.3433V26.1206ZM63.598 26.2497C64.6032 26.2497 65.3041 25.6503 65.6085 24.8387L64.7877 24.562C64.6032 25.0877 64.1698 25.4197 63.598 25.4197C62.7588 25.4197 62.1685 24.7557 62.1685 23.8427C62.1685 22.9204 62.7588 22.2564 63.598 22.2564C64.179 22.2564 64.6125 22.5884 64.7877 23.1233L65.6177 22.8467C65.341 22.0259 64.6401 21.4264 63.598 21.4264C62.1778 21.4264 61.2647 22.5423 61.2647 23.8427C61.2647 25.1246 62.1593 26.2497 63.598 26.2497ZM70.8341 24.1193V23.7597C70.8341 22.3671 69.9856 21.4356 68.6852 21.4356C67.3849 21.4356 66.4073 22.487 66.4073 23.8334C66.4073 25.1984 67.348 26.2497 68.6945 26.2497C69.8012 26.2497 70.4652 25.6503 70.7142 24.9494L69.9395 24.7004C69.8104 25.0877 69.3769 25.4935 68.6945 25.4935C67.8829 25.4935 67.3295 24.8571 67.2834 24.1193H70.8341ZM70.0225 23.4092H67.2927C67.3941 22.7637 67.8829 22.1919 68.6945 22.1919C69.506 22.1919 69.9764 22.8005 70.0225 23.4092Z" fill="#423E30"/>
<g clip-path="url(#clip0_2226_7988)">
<path fill-rule="evenodd" clip-rule="evenodd" d="M74.4443 23.6207C74.4443 21.3926 76.251 19.5859 78.4791 19.5859C80.7073 19.5859 82.5139 21.3926 82.5139 23.6207C82.5139 25.8489 80.7073 27.6555 78.4791 27.6555C76.251 27.6555 74.4443 25.8489 74.4443 23.6207ZM75.1288 23.6207C75.1288 25.4706 76.6293 26.9711 78.4791 26.9711C80.329 26.9711 81.8295 25.4706 81.8295 23.6207C81.8295 21.7709 80.329 20.2704 78.4791 20.2704C76.6293 20.2704 75.1288 21.7709 75.1288 23.6207ZM78.1735 22.3413C78.0924 22.2602 78.0468 22.1503 78.0468 22.0356C78.0468 21.921 78.0924 21.811 78.1735 21.73C78.2545 21.6489 78.3645 21.6033 78.4791 21.6033C78.5938 21.6033 78.7037 21.6489 78.7848 21.73C78.8659 21.811 78.9114 21.921 78.9114 22.0356C78.9114 22.1503 78.8659 22.2602 78.7848 22.3413C78.7037 22.4224 78.5938 22.4679 78.4791 22.4679C78.3645 22.4679 78.2545 22.4224 78.1735 22.3413ZM78.1909 23.1164C78.1909 23.0768 78.2234 23.0443 78.263 23.0443H78.6953C78.7349 23.0443 78.7673 23.0768 78.7673 23.1164V25.5661C78.7673 25.6057 78.7349 25.6381 78.6953 25.6381H78.263C78.2234 25.6381 78.1909 25.6057 78.1909 25.5661V23.1164Z" fill="#423E30"/>
</g>
<path d="M272.267 54.7976V42.3671H270.725C269.915 42.9204 268.789 43.4145 267.919 43.5923V45.0745C268.749 44.9362 269.994 44.5212 270.725 44.0469V54.7976H267.089V56.2007H275.903V54.7976H272.267ZM283.346 56.4774C286.172 56.4774 288.207 54.5011 288.207 51.932C288.207 49.3432 286.468 47.5646 283.761 47.4855L287.298 43.7702V42.3671H279.038V43.7702H285.441L281.429 47.9796L282.219 48.9479C282.654 48.8293 283.01 48.7701 283.346 48.7701C285.421 48.7701 286.666 50.1534 286.666 51.932C286.666 53.7106 285.302 55.0742 283.346 55.0742C281.508 55.0742 280.124 53.7304 280.026 52.0704L278.623 52.4854C278.741 54.6592 280.658 56.4774 283.346 56.4774ZM290.018 57.9793L290.709 58.5919C291.737 57.6829 292.231 56.2204 292.231 55.3509C292.231 54.4616 291.678 54.0268 291.065 54.0268C290.492 54.0268 289.919 54.4616 289.919 55.2126C289.919 55.7462 290.314 56.1216 290.788 56.2797C290.788 56.8528 290.373 57.5445 290.018 57.9793ZM294.575 56.2007H303.468V54.7976H296.69L300.207 51.6554C301.867 50.1929 303.448 48.8096 303.448 46.3195C303.448 43.8888 301.571 42.0904 298.923 42.0904C296.551 42.0904 294.417 43.6912 294.318 46.28L295.741 46.695C295.761 44.699 297.243 43.4935 298.923 43.4935C300.701 43.4935 301.907 44.7188 301.907 46.3195C301.907 48.3353 300.504 49.4815 299.14 50.7068L294.575 54.7778V56.2007ZM310.654 56.4774C313.48 56.4774 315.515 54.5011 315.515 51.932C315.515 49.3432 313.776 47.5646 311.069 47.4855L314.606 43.7702V42.3671H306.346V43.7702H312.749L308.737 47.9796L309.528 48.9479C309.962 48.8293 310.318 48.7701 310.654 48.7701C312.729 48.7701 313.974 50.1534 313.974 51.932C313.974 53.7106 312.61 55.0742 310.654 55.0742C308.816 55.0742 307.433 53.7304 307.334 52.0704L305.931 52.4854C306.049 54.6592 307.966 56.4774 310.654 56.4774ZM322.523 56.4774C326.041 56.4774 327.503 53.1968 327.503 49.2246C327.503 45.3512 325.982 42.0904 322.523 42.0904C319.006 42.0904 317.484 45.3512 317.484 49.2246C317.484 53.1968 318.986 56.4774 322.523 56.4774ZM322.523 55.0742C320.033 55.0742 319.006 52.3668 319.006 49.2839C319.006 46.2207 320.053 43.4935 322.523 43.4935C324.954 43.4935 325.962 46.2207 325.962 49.2839C325.962 52.4458 324.974 55.0742 322.523 55.0742ZM330.223 56.339C330.875 56.339 331.389 55.8252 331.389 55.1928C331.389 54.5407 330.875 54.0268 330.223 54.0268C329.571 54.0268 329.077 54.5407 329.077 55.1928C329.077 55.8252 329.571 56.339 330.223 56.339ZM337.982 56.4774C341.5 56.4774 342.962 53.1968 342.962 49.2246C342.962 45.3512 341.44 42.0904 337.982 42.0904C334.464 42.0904 332.943 45.3512 332.943 49.2246C332.943 53.1968 334.445 56.4774 337.982 56.4774ZM337.982 55.0742C335.492 55.0742 334.464 52.3668 334.464 49.2839C334.464 46.2207 335.512 43.4935 337.982 43.4935C340.413 43.4935 341.421 46.2207 341.421 49.2839C341.421 52.4458 340.433 55.0742 337.982 55.0742ZM349.832 56.4774C353.349 56.4774 354.812 53.1968 354.812 49.2246C354.812 45.3512 353.29 42.0904 349.832 42.0904C346.314 42.0904 344.792 45.3512 344.792 49.2246C344.792 53.1968 346.294 56.4774 349.832 56.4774ZM349.832 55.0742C347.342 55.0742 346.314 52.3668 346.314 49.2839C346.314 46.2207 347.361 43.4935 349.832 43.4935C352.262 43.4935 353.27 46.2207 353.27 49.2839C353.27 52.4458 352.282 55.0742 349.832 55.0742Z" fill="#423E30"/>
<path d="M362.904 55.7559H368.49V54.8336H363.932V51.5531H367.95V50.644H363.932V47.4557H368.49V46.5335H362.904V55.7559ZM373.649 55.9403C375.573 55.9403 377.035 54.86 377.035 52.4358V46.5335H376.007V52.3699C376.007 54.2934 374.993 55.0049 373.649 55.0049C372.292 55.0049 371.304 54.2934 371.304 52.3699V46.5335H370.276V52.4226C370.276 54.7941 371.686 55.9403 373.649 55.9403ZM379.167 55.7559H380.194V51.8429H382.078L384.384 55.7559H385.53L383.146 51.7244C384.134 51.5267 385.175 50.6967 385.175 49.1816C385.175 47.6665 384.2 46.5335 382.184 46.5335H379.167V55.7559ZM380.194 50.9339V47.4557H382.184C383.264 47.4557 384.147 47.93 384.147 49.1816C384.147 50.4069 383.33 50.9339 382.237 50.9339H380.194Z" fill="#423E30"/>
<path d="M267.725 26.2497C268.869 26.2497 269.634 25.5857 269.634 24.2392V19.6649H268.712V24.2669C268.712 24.977 268.371 25.4013 267.725 25.4013C267.089 25.4013 266.748 24.9955 266.748 24.4329V24.3315L265.844 24.1655V24.5067C265.872 25.5765 266.637 26.2497 267.725 26.2497ZM274.86 21.5555H273.956V24.1101C273.956 24.9494 273.421 25.4105 272.804 25.4105C272.25 25.4105 271.826 25.1615 271.826 24.2761V21.5555H270.922V24.4329C270.922 25.6964 271.558 26.2497 272.527 26.2497C273.182 26.2497 273.652 25.973 273.975 25.5396L274.113 26.1206H274.86V21.5555ZM276.056 26.1206H276.96V23.5752C276.96 22.736 277.494 22.2749 278.112 22.2749C278.666 22.2749 279.09 22.5146 279.09 23.4092V26.1206H279.994V23.2524C279.994 21.989 279.367 21.4264 278.389 21.4264C277.734 21.4264 277.264 21.7031 276.941 22.1365L276.803 21.5555H276.056V26.1206ZM281.697 20.8823C282.019 20.8823 282.278 20.6241 282.278 20.292C282.278 19.9693 282.019 19.7018 281.697 19.7018C281.364 19.7018 281.097 19.9693 281.097 20.292C281.097 20.6241 281.364 20.8823 281.697 20.8823ZM281.235 26.1206H282.139V21.5555H281.235V26.1206ZM286.082 26.1206H288.508C289.78 26.1206 290.564 25.3459 290.564 24.2761C290.564 23.3354 289.965 22.9204 289.522 22.7729V22.7544C289.974 22.5054 290.325 22.0627 290.325 21.3711C290.325 20.4119 289.716 19.6649 288.416 19.6649H286.082V26.1206ZM287.005 22.4501V20.4765H288.388C289.024 20.4765 289.421 20.8362 289.421 21.4264C289.421 22.0351 289.08 22.4501 288.388 22.4501H287.005ZM287.005 25.309V23.2248H288.425C289.292 23.2248 289.642 23.6767 289.642 24.2577C289.642 24.8295 289.273 25.309 288.508 25.309H287.005ZM292.947 26.2497C293.676 26.2497 294.073 25.9823 294.294 25.6779L294.386 26.1206H295.152V23.0957C295.152 21.9705 294.358 21.4356 293.289 21.4356C292.256 21.4356 291.656 21.9244 291.444 22.8098L292.246 23.0034C292.33 22.5054 292.606 22.1734 293.27 22.1734C293.943 22.1734 294.248 22.5054 294.248 23.1049V23.2063L293.15 23.3631C291.795 23.5568 291.37 24.1286 291.37 24.8571C291.37 25.6503 291.988 26.2497 292.947 26.2497ZM293.169 25.5027C292.597 25.5027 292.246 25.226 292.246 24.811C292.246 24.3407 292.606 24.147 293.224 24.0548L294.248 23.898V24.4975C294.248 25.1799 293.731 25.5027 293.169 25.5027ZM296.257 26.1206H297.161V19.6649H296.257V26.1206ZM299.72 26.2497C300.449 26.2497 300.845 25.9823 301.067 25.6779L301.159 26.1206H301.924V23.0957C301.924 21.9705 301.131 21.4356 300.061 21.4356C299.028 21.4356 298.429 21.9244 298.217 22.8098L299.019 23.0034C299.102 22.5054 299.379 22.1734 300.043 22.1734C300.716 22.1734 301.02 22.5054 301.02 23.1049V23.2063L299.923 23.3631C298.567 23.5568 298.143 24.1286 298.143 24.8571C298.143 25.6503 298.761 26.2497 299.72 26.2497ZM299.941 25.5027C299.37 25.5027 299.019 25.226 299.019 24.811C299.019 24.3407 299.379 24.147 299.997 24.0548L301.02 23.898V24.4975C301.02 25.1799 300.504 25.5027 299.941 25.5027ZM303.029 26.1206H303.933V23.5752C303.933 22.736 304.468 22.2749 305.086 22.2749C305.639 22.2749 306.064 22.5146 306.064 23.4092V26.1206H306.967V23.2524C306.967 21.989 306.34 21.4264 305.363 21.4264C304.708 21.4264 304.238 21.7031 303.915 22.1365L303.776 21.5555H303.029V26.1206ZM310.284 26.2497C311.289 26.2497 311.99 25.6503 312.295 24.8387L311.474 24.562C311.289 25.0877 310.856 25.4197 310.284 25.4197C309.445 25.4197 308.855 24.7557 308.855 23.8427C308.855 22.9204 309.445 22.2564 310.284 22.2564C310.865 22.2564 311.299 22.5884 311.474 23.1233L312.304 22.8467C312.027 22.0259 311.326 21.4264 310.284 21.4264C308.864 21.4264 307.951 22.5423 307.951 23.8427C307.951 25.1246 308.845 26.2497 310.284 26.2497ZM317.52 24.1193V23.7597C317.52 22.3671 316.672 21.4356 315.371 21.4356C314.071 21.4356 313.093 22.487 313.093 23.8334C313.093 25.1984 314.034 26.2497 315.381 26.2497C316.487 26.2497 317.151 25.6503 317.4 24.9494L316.626 24.7004C316.497 25.0877 316.063 25.4935 315.381 25.4935C314.569 25.4935 314.016 24.8571 313.97 24.1193H317.52ZM316.709 23.4092H313.979C314.08 22.7637 314.569 22.1919 315.381 22.1919C316.192 22.1919 316.663 22.8005 316.709 23.4092Z" fill="#423E30"/>
<g clip-path="url(#clip1_2226_7988)">
<path fill-rule="evenodd" clip-rule="evenodd" d="M321.778 23.6207C321.778 21.3926 323.585 19.5859 325.813 19.5859C328.041 19.5859 329.848 21.3926 329.848 23.6207C329.848 25.8489 328.041 27.6555 325.813 27.6555C323.585 27.6555 321.778 25.8489 321.778 23.6207ZM322.463 23.6207C322.463 25.4706 323.963 26.9711 325.813 26.9711C327.663 26.9711 329.163 25.4706 329.163 23.6207C329.163 21.7709 327.663 20.2704 325.813 20.2704C323.963 20.2704 322.463 21.7709 322.463 23.6207ZM325.507 22.3413C325.426 22.2602 325.381 22.1503 325.381 22.0356C325.381 21.921 325.426 21.811 325.507 21.73C325.589 21.6489 325.698 21.6033 325.813 21.6033C325.928 21.6033 326.038 21.6489 326.119 21.73C326.2 21.811 326.245 21.921 326.245 22.0356C326.245 22.1503 326.2 22.2602 326.119 22.3413C326.038 22.4224 325.928 22.4679 325.813 22.4679C325.698 22.4679 325.589 22.4224 325.507 22.3413ZM325.525 23.1164C325.525 23.0768 325.557 23.0443 325.597 23.0443H326.029C326.069 23.0443 326.101 23.0768 326.101 23.1164V25.5661C326.101 25.6057 326.069 25.6381 326.029 25.6381H325.597C325.557 25.6381 325.525 25.6057 325.525 25.5661V23.1164Z" fill="#423E30"/>
</g>
<path d="M518.656 24.2736C520.076 24.2736 521.017 23.5543 521.459 22.3923L520.583 22.1064C520.325 22.8534 519.707 23.4252 518.665 23.4252C517.309 23.4252 516.332 22.4015 516.332 20.9167C516.332 19.478 517.309 18.4082 518.637 18.4082C519.652 18.4082 520.316 18.9523 520.602 19.8561L521.487 19.561C521.063 18.2883 520.012 17.5597 518.628 17.5597C516.765 17.5597 515.41 18.9708 515.41 20.9167C515.41 22.918 516.747 24.2736 518.656 24.2736ZM526.438 19.5794H525.534V22.134C525.534 22.9733 524.999 23.4344 524.381 23.4344C523.828 23.4344 523.403 23.1854 523.403 22.3001V19.5794H522.5V22.4568C522.5 23.7203 523.136 24.2736 524.104 24.2736C524.759 24.2736 525.229 23.997 525.552 23.5635L525.691 24.1445H526.438V19.5794ZM527.633 24.1445H528.537V21.6176C528.537 20.7968 529.007 20.308 529.588 20.308C529.883 20.308 530.086 20.4002 530.179 20.474L530.529 19.6809C530.382 19.5702 530.096 19.4503 529.708 19.4503C529.127 19.4503 528.712 19.8008 528.519 20.1512L528.38 19.5794H527.633V24.1445ZM531.2 24.1445H532.103V21.6176C532.103 20.7968 532.574 20.308 533.155 20.308C533.45 20.308 533.653 20.4002 533.745 20.474L534.096 19.6809C533.948 19.5702 533.662 19.4503 533.275 19.4503C532.694 19.4503 532.279 19.8008 532.085 20.1512L531.947 19.5794H531.2V24.1445ZM538.756 22.1433V21.7836C538.756 20.391 537.907 19.4596 536.607 19.4596C535.306 19.4596 534.329 20.5109 534.329 21.8574C534.329 23.2223 535.27 24.2736 536.616 24.2736C537.723 24.2736 538.387 23.6742 538.636 22.9733L537.861 22.7243C537.732 23.1116 537.299 23.5174 536.616 23.5174C535.804 23.5174 535.251 22.8811 535.205 22.1433H538.756ZM537.944 21.4331H535.214C535.316 20.7876 535.804 20.2158 536.616 20.2158C537.428 20.2158 537.898 20.8245 537.944 21.4331ZM539.747 24.1445H540.65V21.5991C540.65 20.7599 541.185 20.2988 541.803 20.2988C542.357 20.2988 542.781 20.5386 542.781 21.4331V24.1445H543.685V21.2764C543.685 20.0129 543.057 19.4503 542.08 19.4503C541.425 19.4503 540.955 19.727 540.632 20.1605L540.494 19.5794H539.747V24.1445ZM546.44 24.2736C547.012 24.2736 547.344 24.0523 547.473 23.9047L547.058 23.2592C546.975 23.3422 546.827 23.4344 546.615 23.4344C546.311 23.4344 546.136 23.2776 546.136 22.8995V20.391H547.372V19.5794H546.136V18.3898H545.232V19.5794H544.411V20.391H545.232V23.0102C545.232 23.8217 545.739 24.2736 546.44 24.2736ZM554.005 24.2736C555.426 24.2736 556.366 23.5543 556.809 22.3923L555.933 22.1064C555.675 22.8534 555.057 23.4252 554.015 23.4252C552.659 23.4252 551.681 22.4015 551.681 20.9167C551.681 19.478 552.659 18.4082 553.987 18.4082C555.001 18.4082 555.665 18.9523 555.951 19.8561L556.837 19.561C556.412 18.2883 555.361 17.5597 553.978 17.5597C552.115 17.5597 550.759 18.9708 550.759 20.9167C550.759 22.918 552.096 24.2736 554.005 24.2736ZM559.214 24.2736C559.943 24.2736 560.339 24.0062 560.561 23.7019L560.653 24.1445H561.418V21.1196C561.418 19.9944 560.625 19.4596 559.555 19.4596C558.522 19.4596 557.923 19.9483 557.711 20.8337L558.513 21.0274C558.596 20.5293 558.873 20.1973 559.537 20.1973C560.21 20.1973 560.514 20.5293 560.514 21.1288V21.2303L559.417 21.387C558.061 21.5807 557.637 22.1525 557.637 22.8811C557.637 23.6742 558.255 24.2736 559.214 24.2736ZM559.435 23.5266C558.864 23.5266 558.513 23.25 558.513 22.8349C558.513 22.3646 558.873 22.1709 559.491 22.0787L560.514 21.9219V22.5214C560.514 23.2038 559.998 23.5266 559.435 23.5266ZM564.193 24.2736C565.244 24.2736 566 23.6834 566 22.8626C566 21.9588 565.327 21.6176 564.34 21.4331C563.732 21.3225 563.326 21.1934 563.326 20.806C563.326 20.5293 563.547 20.225 564.193 20.225C564.774 20.225 565.023 20.6031 565.115 21.0089L565.917 20.7784C565.733 19.9576 565.124 19.4596 564.193 19.4596C563.197 19.4596 562.468 20.0129 562.468 20.8429C562.468 21.7652 563.261 22.0603 564.183 22.2263C565.032 22.3738 565.143 22.6321 565.143 22.8718C565.143 23.2776 564.746 23.5082 564.193 23.5082C563.473 23.5082 563.243 23.0471 563.123 22.6413L562.311 22.8903C562.56 23.7941 563.215 24.2736 564.193 24.2736ZM566.991 24.1445H567.885V21.6084C567.885 20.7599 568.429 20.2988 569.038 20.2988C569.6 20.2988 570.015 20.5386 570.015 21.4331V24.1445H570.919V21.2764C570.919 20.0129 570.292 19.4503 569.324 19.4503C568.687 19.4503 568.208 19.7086 567.885 20.1328V17.6888H566.991V24.1445ZM574.522 24.2644C575.841 24.2644 576.717 23.1116 576.717 21.8574C576.717 20.5939 575.906 19.4503 574.531 19.4503C573.812 19.4503 573.305 19.7823 573.019 20.1697V17.6888H572.115V24.1445H572.862L572.982 23.5266C573.249 23.8955 573.747 24.2644 574.522 24.2644ZM574.411 23.4529C573.581 23.4529 573.01 22.7796 573.01 21.8574C573.01 20.9259 573.581 20.2619 574.411 20.2619C575.223 20.2619 575.813 20.9259 575.813 21.8574C575.813 22.7796 575.223 23.4529 574.411 23.4529ZM579.073 24.2736C579.801 24.2736 580.198 24.0062 580.419 23.7019L580.512 24.1445H581.277V21.1196C581.277 19.9944 580.484 19.4596 579.414 19.4596C578.381 19.4596 577.782 19.9483 577.57 20.8337L578.372 21.0274C578.455 20.5293 578.732 20.1973 579.396 20.1973C580.069 20.1973 580.373 20.5293 580.373 21.1288V21.2303L579.276 21.387C577.92 21.5807 577.496 22.1525 577.496 22.8811C577.496 23.6742 578.114 24.2736 579.073 24.2736ZM579.294 23.5266C578.722 23.5266 578.372 23.25 578.372 22.8349C578.372 22.3646 578.732 22.1709 579.35 22.0787L580.373 21.9219V22.5214C580.373 23.2038 579.857 23.5266 579.294 23.5266ZM584.503 24.2736C585.509 24.2736 586.21 23.6742 586.514 22.8626L585.693 22.5859C585.509 23.1116 585.075 23.4436 584.503 23.4436C583.664 23.4436 583.074 22.7796 583.074 21.8666C583.074 20.9444 583.664 20.2803 584.503 20.2803C585.084 20.2803 585.518 20.6124 585.693 21.1472L586.523 20.8706C586.246 20.0498 585.546 19.4503 584.503 19.4503C583.083 19.4503 582.17 20.5662 582.17 21.8666C582.17 23.1485 583.065 24.2736 584.503 24.2736ZM590.448 24.1445H591.481L589.545 21.387L591.269 19.5794H590.162L588.429 21.387V17.6888H587.525V24.1445H588.429V22.5583L588.945 22.0142L590.448 24.1445Z" fill="#423E30"/>
<path d="M661.052 25.6703C662.936 25.6703 664.293 24.3528 664.293 22.6401C664.293 20.9142 663.134 19.7284 661.329 19.6757L663.687 17.1989V16.2634H658.18V17.1989H662.449L659.774 20.0051L660.301 20.6507C660.591 20.5716 660.828 20.5321 661.052 20.5321C662.436 20.5321 663.266 21.4543 663.266 22.6401C663.266 23.8258 662.356 24.7349 661.052 24.7349C659.827 24.7349 658.905 23.839 658.839 22.7323L657.903 23.009C657.982 24.4582 659.26 25.6703 661.052 25.6703ZM669.005 25.6703C670.796 25.6703 672.219 24.3923 672.219 22.5742C672.219 20.7956 670.928 19.5176 669.044 19.5176C668.254 19.5176 667.582 19.8206 667.292 20.0578L667.608 17.1989H671.64V16.2634H666.752L666.251 20.8615L667.187 21.1908C667.49 20.8351 668.161 20.4267 668.991 20.4267C670.309 20.4267 671.205 21.3489 671.218 22.5742C671.205 23.8258 670.322 24.7349 669.005 24.7349C667.832 24.7349 666.883 23.9971 666.765 22.8772L665.803 23.1671C665.935 24.4582 667.213 25.6703 669.005 25.6703ZM674.098 25.5781C674.533 25.5781 674.875 25.2355 674.875 24.8139C674.875 24.3792 674.533 24.0366 674.098 24.0366C673.663 24.0366 673.334 24.3792 673.334 24.8139C673.334 25.2355 673.663 25.5781 674.098 25.5781ZM676.438 25.4858H682.367V24.5504H677.848L680.193 22.4556C681.3 21.4807 682.354 20.5584 682.354 18.8984C682.354 17.2779 681.102 16.079 679.337 16.079C677.756 16.079 676.333 17.1462 676.267 18.8721L677.216 19.1487C677.229 17.8181 678.217 17.0144 679.337 17.0144C680.522 17.0144 681.326 17.8312 681.326 18.8984C681.326 20.2422 680.391 21.0064 679.482 21.8232L676.438 24.5372V25.4858ZM687.171 25.6703C689.516 25.6703 690.491 23.4833 690.491 20.8351C690.491 18.2528 689.476 16.079 687.171 16.079C684.826 16.079 683.811 18.2528 683.811 20.8351C683.811 23.4833 684.812 25.6703 687.171 25.6703ZM687.171 24.7349C685.511 24.7349 684.826 22.9299 684.826 20.8746C684.826 18.8325 685.524 17.0144 687.171 17.0144C688.791 17.0144 689.463 18.8325 689.463 20.8746C689.463 22.9826 688.804 24.7349 687.171 24.7349ZM695.864 25.4858H701.451V24.5636H696.892V21.2831H700.91V20.374H696.892V17.1857H701.451V16.2634H695.864V25.4858ZM706.61 25.6703C708.533 25.6703 709.995 24.5899 709.995 22.1658V16.2634H708.968V22.0999C708.968 24.0234 707.953 24.7349 706.61 24.7349C705.253 24.7349 704.264 24.0234 704.264 22.0999V16.2634H703.237V22.1526C703.237 24.5241 704.646 25.6703 706.61 25.6703ZM712.127 25.4858H713.155V21.5729H715.039L717.344 25.4858H718.491L716.106 21.4543C717.094 21.2567 718.135 20.4267 718.135 18.9116C718.135 17.3965 717.16 16.2634 715.144 16.2634H712.127V25.4858ZM713.155 20.6638V17.1857H715.144C716.225 17.1857 717.107 17.66 717.107 18.9116C717.107 20.1368 716.29 20.6638 715.197 20.6638H713.155Z" fill="#423E30"/>
<path d="M517.088 57.7402H518.01V52.133H519.938V51.2846H515.17V52.133H517.088V57.7402ZM521.964 57.8693C523.385 57.8693 524.316 56.7258 524.316 55.4623C524.316 54.1804 523.385 53.046 521.964 53.046C520.553 53.046 519.613 54.1804 519.613 55.4623C519.613 56.7258 520.526 57.8693 521.964 57.8693ZM521.964 57.0393C521.116 57.0393 520.516 56.3661 520.516 55.4623C520.516 54.5493 521.116 53.876 521.964 53.876C522.804 53.876 523.412 54.5493 523.412 55.4623C523.412 56.3661 522.804 57.0393 521.964 57.0393ZM526.824 57.8693C527.396 57.8693 527.728 57.648 527.857 57.5005L527.442 56.8549C527.359 56.9379 527.212 57.0301 527 57.0301C526.695 57.0301 526.52 56.8733 526.52 56.4952V53.9867H527.756V53.1751H526.52V51.9855H525.616V53.1751H524.796V53.9867H525.616V56.6059C525.616 57.4175 526.124 57.8693 526.824 57.8693ZM529.962 57.8693C530.69 57.8693 531.087 57.6019 531.308 57.2976L531.401 57.7402H532.166V54.7153C532.166 53.5902 531.373 53.0553 530.303 53.0553C529.27 53.0553 528.671 53.544 528.459 54.4294L529.261 54.6231C529.344 54.1251 529.621 53.793 530.285 53.793C530.958 53.793 531.262 54.1251 531.262 54.7245V54.826L530.165 54.9827C528.809 55.1764 528.385 55.7482 528.385 56.4768C528.385 57.2699 529.003 57.8693 529.962 57.8693ZM530.183 57.1223C529.611 57.1223 529.261 56.8457 529.261 56.4307C529.261 55.9603 529.621 55.7666 530.238 55.6744L531.262 55.5176V56.1171C531.262 56.7995 530.746 57.1223 530.183 57.1223ZM533.271 57.7402H534.175V51.2846H533.271V57.7402ZM541.108 57.8693C542.529 57.8693 543.469 57.15 543.912 55.988L543.036 55.7021C542.778 56.4491 542.16 57.0209 541.118 57.0209C539.762 57.0209 538.784 55.9972 538.784 54.5124C538.784 53.0737 539.762 52.0039 541.09 52.0039C542.104 52.0039 542.768 52.548 543.054 53.4518L543.94 53.1567C543.515 51.884 542.464 51.1554 541.081 51.1554C539.218 51.1554 537.862 52.5665 537.862 54.5124C537.862 56.5137 539.199 57.8693 541.108 57.8693ZM546.317 57.8693C547.046 57.8693 547.442 57.6019 547.664 57.2976L547.756 57.7402H548.521V54.7153C548.521 53.5902 547.728 53.0553 546.658 53.0553C545.625 53.0553 545.026 53.544 544.814 54.4294L545.616 54.6231C545.699 54.1251 545.976 53.793 546.64 53.793C547.313 53.793 547.618 54.1251 547.618 54.7245V54.826L546.52 54.9827C545.164 55.1764 544.74 55.7482 544.74 56.4768C544.74 57.2699 545.358 57.8693 546.317 57.8693ZM546.539 57.1223C545.967 57.1223 545.616 56.8457 545.616 56.4307C545.616 55.9603 545.976 55.7666 546.594 55.6744L547.618 55.5176V56.1171C547.618 56.7995 547.101 57.1223 546.539 57.1223ZM551.296 57.8693C552.347 57.8693 553.103 57.2791 553.103 56.4583C553.103 55.5545 552.43 55.2133 551.443 55.0288C550.835 54.9182 550.429 54.7891 550.429 54.4017C550.429 54.1251 550.65 53.8207 551.296 53.8207C551.877 53.8207 552.126 54.1988 552.218 54.6046L553.02 54.3741C552.836 53.5533 552.227 53.0553 551.296 53.0553C550.3 53.0553 549.571 53.6086 549.571 54.4386C549.571 55.3609 550.364 55.656 551.287 55.822C552.135 55.9695 552.246 56.2278 552.246 56.4675C552.246 56.8733 551.849 57.1039 551.296 57.1039C550.576 57.1039 550.346 56.6428 550.226 56.237L549.414 56.486C549.663 57.3898 550.318 57.8693 551.296 57.8693ZM554.094 57.7402H554.988V55.2041C554.988 54.3556 555.532 53.8945 556.141 53.8945C556.704 53.8945 557.119 54.1343 557.119 55.0288V57.7402H558.022V54.8721C558.022 53.6086 557.395 53.046 556.427 53.046C555.791 53.046 555.311 53.3043 554.988 53.7285V51.2846H554.094V57.7402ZM561.625 57.8601C562.944 57.8601 563.82 56.7073 563.82 55.4531C563.82 54.1896 563.009 53.046 561.634 53.046C560.915 53.046 560.408 53.378 560.122 53.7654V51.2846H559.218V57.7402H559.965L560.085 57.1223C560.353 57.4912 560.851 57.8601 561.625 57.8601ZM561.515 57.0486C560.685 57.0486 560.113 56.3753 560.113 55.4531C560.113 54.5216 560.685 53.8576 561.515 53.8576C562.326 53.8576 562.916 54.5216 562.916 55.4531C562.916 56.3753 562.326 57.0486 561.515 57.0486ZM566.176 57.8693C566.905 57.8693 567.301 57.6019 567.522 57.2976L567.615 57.7402H568.38V54.7153C568.38 53.5902 567.587 53.0553 566.517 53.0553C565.484 53.0553 564.885 53.544 564.673 54.4294L565.475 54.6231C565.558 54.1251 565.835 53.793 566.499 53.793C567.172 53.793 567.476 54.1251 567.476 54.7245V54.826L566.379 54.9827C565.023 55.1764 564.599 55.7482 564.599 56.4768C564.599 57.2699 565.217 57.8693 566.176 57.8693ZM566.397 57.1223C565.826 57.1223 565.475 56.8457 565.475 56.4307C565.475 55.9603 565.835 55.7666 566.453 55.6744L567.476 55.5176V56.1171C567.476 56.7995 566.96 57.1223 566.397 57.1223ZM571.606 57.8693C572.612 57.8693 573.313 57.2699 573.617 56.4583L572.796 56.1816C572.612 56.7073 572.178 57.0393 571.606 57.0393C570.767 57.0393 570.177 56.3753 570.177 55.4623C570.177 54.5401 570.767 53.876 571.606 53.876C572.187 53.876 572.621 54.2081 572.796 54.743L573.626 54.4663C573.349 53.6455 572.649 53.046 571.606 53.046C570.186 53.046 569.273 54.1619 569.273 55.4623C569.273 56.7442 570.168 57.8693 571.606 57.8693ZM577.551 57.7402H578.584L576.648 54.9827L578.372 53.1751H577.265L575.532 54.9827V51.2846H574.628V57.7402H575.532V56.154L576.048 55.6099L577.551 57.7402Z" fill="#423E30"/>
<g clip-path="url(#clip2_2226_7988)">
<path fill-rule="evenodd" clip-rule="evenodd" d="M582.114 55.2399C582.114 53.0117 583.921 51.2051 586.149 51.2051C588.377 51.2051 590.184 53.0117 590.184 55.2399C590.184 57.468 588.377 59.2747 586.149 59.2747C583.921 59.2747 582.114 57.468 582.114 55.2399ZM582.799 55.2399C582.799 57.0898 584.299 58.5902 586.149 58.5902C587.999 58.5902 589.499 57.0898 589.499 55.2399C589.499 53.39 587.999 51.8896 586.149 51.8896C584.299 51.8896 582.799 53.39 582.799 55.2399ZM585.843 53.9605C585.762 53.8794 585.717 53.7694 585.717 53.6548C585.717 53.5401 585.762 53.4302 585.843 53.3491C585.924 53.268 586.034 53.2225 586.149 53.2225C586.264 53.2225 586.374 53.268 586.455 53.3491C586.536 53.4302 586.581 53.5401 586.581 53.6548C586.581 53.7694 586.536 53.8794 586.455 53.9605C586.374 54.0415 586.264 54.0871 586.149 54.0871C586.034 54.0871 585.924 54.0415 585.843 53.9605ZM585.861 54.7355C585.861 54.6959 585.893 54.6635 585.933 54.6635H586.365C586.405 54.6635 586.437 54.6959 586.437 54.7355V57.1852C586.437 57.2249 586.405 57.2573 586.365 57.2573H585.933C585.893 57.2573 585.861 57.2249 585.861 57.1852V54.7355Z" fill="#423E30"/>
</g>
<line x1="514.902" y1="39.5061" x2="719.771" y2="39.5061" stroke="#E5E4E1" stroke-width="0.658743"/>
<path d="M643.574 56.1701V47.8831H642.547C642.007 48.252 641.256 48.5813 640.676 48.6999V49.688C641.229 49.5958 642.059 49.3191 642.547 49.0029V56.1701H640.123V57.1055H645.999V56.1701H643.574ZM647.509 58.2912L647.97 58.6996C648.655 58.0936 648.984 57.1186 648.984 56.5389C648.984 55.9461 648.615 55.6562 648.207 55.6562C647.825 55.6562 647.443 55.9461 647.443 56.4467C647.443 56.8024 647.706 57.0528 648.022 57.1582C648.022 57.5402 647.746 58.0014 647.509 58.2912ZM650.547 57.1055H656.476V56.1701H651.957L654.302 54.0753C655.408 53.1003 656.462 52.1781 656.462 50.518C656.462 48.8975 655.211 47.6986 653.445 47.6986C651.864 47.6986 650.441 48.7658 650.376 50.4917L651.324 50.7684C651.337 49.4377 652.325 48.634 653.445 48.634C654.631 48.634 655.435 49.4509 655.435 50.518C655.435 51.8619 654.499 52.626 653.59 53.4429L650.547 56.1569V57.1055ZM661.319 57.2899C663.111 57.2899 664.533 56.012 664.533 54.1938C664.533 52.4152 663.242 51.1373 661.358 51.1373C660.568 51.1373 659.896 51.4403 659.606 51.6774L659.922 48.8185H663.954V47.8831H659.066L658.565 52.4811L659.501 52.8105C659.804 52.4547 660.476 52.0463 661.306 52.0463C662.623 52.0463 663.519 52.9686 663.532 54.1938C663.519 55.4454 662.636 56.3545 661.319 56.3545C660.146 56.3545 659.198 55.6167 659.079 54.4968L658.117 54.7867C658.249 56.0778 659.527 57.2899 661.319 57.2899ZM669.192 57.2899C671.037 57.2899 672.38 56.0515 672.38 54.207C672.38 52.3493 671.023 51.1504 669.245 51.1504C668.191 51.1504 667.374 51.717 667.018 52.1912C667.097 50.136 667.519 48.634 669.298 48.634C670.444 48.634 670.971 49.3982 671.195 50.215L672.117 49.9252C671.748 48.6736 670.905 47.6986 669.298 47.6986C666.742 47.6986 665.938 49.8461 665.938 53.074C665.938 55.788 667.084 57.2899 669.192 57.2899ZM669.192 56.3545C667.914 56.3545 667.071 55.3796 667.071 54.207C667.071 52.9554 667.98 52.0727 669.192 52.0727C670.483 52.0727 671.353 52.9159 671.353 54.207C671.353 55.485 670.483 56.3545 669.192 56.3545ZM674.312 57.1977C674.747 57.1977 675.089 56.8551 675.089 56.4336C675.089 55.9988 674.747 55.6562 674.312 55.6562C673.877 55.6562 673.548 55.9988 673.548 56.4336C673.548 56.8551 673.877 57.1977 674.312 57.1977ZM681.171 52.099C681.803 51.6774 682.186 51.0055 682.186 50.2018C682.186 48.7394 681.039 47.7118 679.458 47.7118C677.877 47.7118 676.731 48.7394 676.731 50.2018C676.731 51.0055 677.1 51.6774 677.746 52.099C676.863 52.5733 676.323 53.4297 676.323 54.4705C676.323 56.1569 677.601 57.3031 679.458 57.3031C681.29 57.3031 682.581 56.1569 682.581 54.4705C682.581 53.4297 682.041 52.5733 681.171 52.099ZM677.746 50.1623C677.746 49.2006 678.497 48.6077 679.458 48.6077C680.42 48.6077 681.171 49.2006 681.171 50.1623C681.171 51.1504 680.394 51.6906 679.458 51.6906C678.51 51.6906 677.746 51.1504 677.746 50.1623ZM679.458 56.3809C678.352 56.3809 677.35 55.6694 677.35 54.4705C677.35 53.2584 678.352 52.5601 679.458 52.5601C680.605 52.5601 681.553 53.2584 681.553 54.4705C681.553 55.6694 680.605 56.3809 679.458 56.3809ZM687.332 47.6986C685.487 47.6986 684.143 48.9371 684.143 50.7815C684.143 52.6392 685.5 53.8381 687.279 53.8381C688.333 53.8381 689.15 53.2716 689.506 52.7973C689.427 54.8526 689.005 56.3545 687.226 56.3545C686.08 56.3545 685.553 55.5904 685.329 54.7735L684.407 55.0634C684.776 56.315 685.619 57.2899 687.226 57.2899C689.782 57.2899 690.586 55.1424 690.586 51.9146C690.586 49.2006 689.44 47.6986 687.332 47.6986ZM687.332 48.634C688.61 48.634 689.453 49.609 689.453 50.7815C689.453 52.0331 688.544 52.9159 687.332 52.9159C686.041 52.9159 685.171 52.0727 685.171 50.7815C685.171 49.5036 686.041 48.634 687.332 48.634ZM696.078 57.1055H701.664V56.1832H697.106V52.9027H701.124V51.9936H697.106V48.8053H701.664V47.8831H696.078V57.1055ZM706.823 57.2899C708.747 57.2899 710.209 56.2096 710.209 53.7854V47.8831H709.182V53.7195C709.182 55.6431 708.167 56.3545 706.823 56.3545C705.466 56.3545 704.478 55.6431 704.478 53.7195V47.8831H703.451V53.7722C703.451 56.1437 704.86 57.2899 706.823 57.2899ZM712.341 57.1055H713.369V53.1925H715.253L717.558 57.1055H718.705L716.32 53.074C717.308 52.8763 718.349 52.0463 718.349 50.5312C718.349 49.0161 717.374 47.8831 715.358 47.8831H712.341V57.1055ZM713.369 52.2835V48.8053H715.358C716.438 48.8053 717.321 49.2796 717.321 50.5312C717.321 51.7565 716.504 52.2835 715.411 52.2835H713.369Z" fill="#423E30"/>
<defs>
<clipPath id="clip0_2226_7988">
<rect width="9.2224" height="9.2224" fill="white" transform="translate(73.8682 19.0093)"/>
</clipPath>
<clipPath id="clip1_2226_7988">
<rect width="9.2224" height="9.2224" fill="white" transform="translate(321.202 19.0093)"/>
</clipPath>
<clipPath id="clip2_2226_7988">
<rect width="9.2224" height="9.2224" fill="white" transform="translate(581.537 50.6289)"/>
</clipPath>
</defs>
</svg>
