<svg width="157" height="59" viewBox="0 0 157 59" fill="none" xmlns="http://www.w3.org/2000/svg">
<path d="M106.768 34.3563C106.611 34.5361 106.35 34.6389 106.01 34.6389C105.67 34.6389 105.382 34.5104 105.199 34.2792C105.016 34.0479 104.911 33.611 104.911 32.9943C104.911 32.5061 104.989 32.1206 105.146 31.8894C105.356 31.5553 105.67 31.4011 106.062 31.4011C106.219 31.4011 106.376 31.4268 106.533 31.5039C106.69 31.581 106.795 31.6838 106.899 31.8123C106.978 31.8894 107.03 32.0178 107.082 32.1977L108.652 31.8637C108.469 31.2469 108.155 30.8101 107.736 30.5274C107.318 30.2448 106.768 30.0906 106.036 30.0906C105.12 30.0906 104.388 30.3218 103.891 30.8358C103.393 31.3497 103.132 32.0692 103.132 32.9943C103.132 33.6881 103.289 34.2792 103.577 34.716C103.864 35.1786 104.204 35.4869 104.597 35.6668C105.016 35.8467 105.513 35.9238 106.141 35.9238C106.664 35.9238 107.082 35.8467 107.422 35.6925C107.763 35.564 108.024 35.3327 108.26 35.0501C108.495 34.7674 108.652 34.4076 108.757 33.9708L107.187 33.5083C107.109 33.868 106.978 34.125 106.768 34.3563Z" fill="#76767C"/>
<path d="M112.367 30.0657C111.425 30.0657 110.693 30.3226 110.17 30.8366C109.646 31.3505 109.385 32.07 109.385 32.9951C109.385 33.6632 109.489 34.1515 109.777 34.614C110.065 35.0766 110.405 35.3849 110.824 35.5905C111.268 35.7961 111.792 35.8989 112.446 35.8989C113.1 35.8989 113.623 35.7704 114.042 35.5391C114.486 35.3078 114.8 34.9738 115.036 34.5626C115.271 34.1515 115.376 33.6118 115.376 32.9437C115.376 32.0186 115.114 31.3248 114.591 30.8109C114.068 30.3226 113.335 30.0657 112.367 30.0657ZM113.257 34.2543C113.047 34.4855 112.76 34.614 112.367 34.614C111.975 34.614 111.687 34.4855 111.478 34.2286C111.268 33.9716 111.164 33.5604 111.164 32.9951C111.164 32.4298 111.268 32.0186 111.478 31.8131C111.687 31.5561 111.975 31.4276 112.341 31.4276C112.707 31.4276 113.021 31.5304 113.231 31.7874C113.466 32.0186 113.571 32.4041 113.571 32.9437C113.571 33.5604 113.466 33.9973 113.257 34.2543Z" fill="#76767C"/>
<path d="M119.509 33.6118L118.619 30.1685H116.291H116.238V35.8218H117.703V31.5047L118.828 35.8218H120.136L121.261 31.5047V35.8218H122.727V30.1685H120.398L119.509 33.6118Z" fill="#76767C"/>
<path d="M126.833 30.1685H123.877V35.8475H125.656V33.7403H126.624C127.33 33.7403 127.88 33.5861 128.22 33.2521C128.56 32.9437 128.743 32.4812 128.743 31.9158C128.743 31.3505 128.586 30.9394 128.272 30.631C127.958 30.3226 127.487 30.1685 126.833 30.1685ZM126.833 32.4041C126.676 32.5326 126.441 32.584 126.101 32.584H125.682V31.3248H126.179C126.519 31.3248 126.729 31.3762 126.859 31.5047C126.99 31.6332 127.043 31.7874 127.043 31.9672C127.043 32.1471 126.964 32.2756 126.833 32.4041Z" fill="#76767C"/>
<path d="M131.465 30.1685H129.686V35.8218H134.238V34.4341H131.465V30.1685Z" fill="#76767C"/>
<path d="M136.909 30.1685H135.13V35.8218H136.909V30.1685Z" fill="#76767C"/>
<path d="M139.785 30.1421L137.613 35.7954H139.418L139.706 34.8703H141.721L142.035 35.7954H143.892L141.721 30.1421H139.785ZM140.099 33.6626L140.727 31.6325L141.354 33.6626H140.099Z" fill="#76767C"/>
<path d="M148.264 33.3035L146.093 30.1685H144.444V35.8218H146.119V32.7124L148.264 35.8218H149.938V30.1685H148.264V33.3035Z" fill="#76767C"/>
<path d="M150.747 31.5561H152.552V35.8218H154.331V31.5561H156.136V30.1685H150.747V31.5561Z" fill="#76767C"/>
<path d="M53.3973 41.9244C39.5574 41.0764 39.5574 31.3887 39.5574 31.1061V28.7933C39.5574 28.3822 40.0545 18.9 53.3973 17.8465C54.2606 17.718 57.4786 17.7437 57.6617 17.8465C61.3244 18.052 62.5279 18.823 62.5279 18.823C62.6064 18.8743 62.6587 18.9514 62.6587 19.0285V24.9902C62.6587 25.0673 62.6064 25.093 62.5279 25.0673C62.5279 25.0673 60.3826 23.7824 57.7402 23.4484H55.4641C49.4206 23.9623 49.002 28.7162 49.002 28.7162C48.9758 28.7676 48.9758 28.8961 48.9758 28.9732V30.6692C48.9758 30.7206 49.002 30.8491 49.002 30.9262C49.002 30.9262 49.2898 35.346 55.4641 36.3739C55.9088 36.451 56.5106 36.5024 57.7402 36.3739C62.0831 35.9371 63.0773 35.1662 63.0773 35.1662C63.1296 35.1148 63.182 35.1405 63.182 35.2176V36.2017C64.4613 36.4125 65.7903 37.0061 67.054 37.8463V18.2062H76.2108V32.8766C79.4471 28.3051 82.8874 23.6385 84.0333 22.0993L73.9347 0L0 4.1115L20.4851 59L59.9117 46.794C58.7972 45.2188 57.9966 43.5151 57.7062 41.9244C57.6905 41.9244 57.6774 41.9244 57.6617 41.9244C57.4001 41.9244 54.7577 42.0272 53.3973 41.9244ZM71.6324 5.58907C74.7195 5.58907 77.2311 7.90179 77.2311 10.7798C77.2311 13.6579 74.7195 15.9706 71.6324 15.9706C68.5452 15.9706 66.0337 13.6322 66.0337 10.7798C66.0337 7.92748 68.5452 5.58907 71.6324 5.58907ZM23.4414 34.6779C23.3629 34.6779 23.3106 34.7293 23.3106 34.8064V41.6418C23.3106 41.7189 23.2583 41.7703 23.1798 41.7703H14.2585C14.18 41.7703 14.1276 41.7189 14.1276 41.6418V18.3347C14.1276 18.2576 14.18 18.2062 14.2585 18.2062H25.8222C28.7524 18.0777 37.6999 18.8743 37.6999 26.3007C37.6999 35.6801 23.4414 34.6779 23.4414 34.6779Z" fill="#76767C"/>
<path d="M25.35 23.3198H23.1523V29.4614H25.6116C25.6116 29.4614 28.3586 29.3329 28.7772 26.8403C28.8296 26.7889 28.8296 25.7353 28.7772 25.5811C28.5156 23.4483 25.35 23.3198 25.35 23.3198Z" fill="#76767C"/>
<path d="M85.7881 38.7759L90.9421 37.1826L89.2677 33.5337C88.038 35.0498 86.8084 37.0028 85.7881 38.7759Z" fill="#76767C"/>
<path d="M98.5011 15.649C90.4484 15.428 82.1366 28.387 76.2109 38.0413C75.4129 39.3415 74.6594 40.5801 73.9531 41.7185C73.21 42.9211 72.5193 44.0107 71.8941 44.9435C71.8156 45.0462 71.4493 44.9435 71.4493 44.9435C71.4493 44.9435 70.0732 43.3503 68.2627 41.7185C67.8755 41.369 67.47 41.0195 67.0514 40.6829C66.1907 39.9865 65.2829 39.3492 64.409 38.9047C64.3305 38.879 63.9643 38.7505 63.5718 38.7762C63.5064 38.7762 63.3652 38.7942 63.1794 38.8353C62.6091 38.9561 61.6201 39.2645 61.0864 39.8041C60.3957 40.5236 60.2937 40.9836 60.278 41.7108C60.2754 41.8675 60.2754 42.0346 60.2754 42.2196C60.2754 42.2967 60.3277 42.6564 60.4324 42.8363C61.2434 44.2239 64.88 49.1577 67.8886 51.8816C68.3334 52.2157 69.0398 53.0637 71.8915 53.0637C72.624 53.0637 73.1996 53.0637 74.1414 52.6525C77.3855 50.9822 88.3476 24.6943 99.9113 16.5998C99.9898 16.5484 100.068 16.4713 100.121 16.3942C100.199 16.2915 100.199 16.1887 100.199 16.1887C100.199 16.1887 100.199 15.649 98.4985 15.649H98.5011Z" fill="#76767C"/>
<path d="M114.932 26.4681C115.847 26.2111 116.711 25.7229 117.522 25.0034C118.333 24.2582 118.961 23.3588 119.405 22.2795C119.85 21.2002 120.086 19.6841 120.086 17.7311C120.086 16.472 119.929 15.2899 119.615 14.185C119.327 13.08 118.83 12.1035 118.15 11.2555C117.495 10.4332 116.632 9.79082 115.586 9.32827C114.565 8.89143 113.205 8.66016 111.504 8.66016H102.949V26.9563H111.504C112.525 26.9563 113.676 26.8021 114.932 26.4681ZM108.705 22.7934V12.7974H110.144C111.661 12.7974 112.708 13.1571 113.362 13.8766C114.016 14.5961 114.33 15.9067 114.33 17.8596C114.33 19.3244 114.173 20.4036 113.885 21.046C113.597 21.6885 113.179 22.151 112.682 22.408C112.185 22.6649 111.321 22.7934 110.118 22.7934H108.705Z" fill="#76767C"/>
<path d="M137.875 18.2958C137.378 17.4992 136.593 16.8054 135.494 16.2658C134.396 15.7261 132.59 15.1865 130.079 14.6469C129.058 14.4413 128.404 14.21 128.143 13.9787C127.855 13.7475 127.724 13.4648 127.724 13.1821C127.724 12.771 127.881 12.4369 128.221 12.1543C128.561 11.8716 129.058 11.7431 129.739 11.7431C130.55 11.7431 131.178 11.923 131.649 12.3085C132.119 12.6939 132.407 13.2849 132.564 14.1072L138.006 13.7989C137.77 11.8973 137.038 10.5097 135.782 9.63598C134.553 8.76229 132.721 8.32544 130.34 8.32544C128.404 8.32544 126.887 8.55671 125.762 9.04495C124.637 9.53319 123.8 10.1756 123.25 11.0236C122.701 11.8716 122.413 12.7453 122.413 13.6961C122.413 15.1351 122.936 16.3172 124.035 17.2422C125.134 18.1673 126.913 18.9125 129.451 19.4779C130.994 19.8119 131.989 20.146 132.407 20.5314C132.826 20.9169 133.035 21.3537 133.035 21.8163C133.035 22.3045 132.8 22.7414 132.355 23.1268C131.91 23.5123 131.256 23.6922 130.445 23.6922C129.346 23.6922 128.509 23.3324 127.907 22.5872C127.541 22.1247 127.306 21.4565 127.175 20.5828L121.681 20.9169C121.864 22.7671 122.544 24.2832 123.747 25.4909C124.977 26.6987 127.175 27.2897 130.34 27.2897C132.146 27.2897 133.663 27.0328 134.84 26.5188C136.018 26.0049 136.959 25.2597 137.614 24.2575C138.268 23.281 138.608 22.2017 138.608 21.0197C138.608 20.0175 138.372 19.0924 137.875 18.2958Z" fill="#76767C"/>
<path d="M150.747 23.1268C150.303 23.5123 149.649 23.6922 148.838 23.6922C147.739 23.6922 146.902 23.3324 146.3 22.5872C145.934 22.1247 145.698 21.4565 145.567 20.5828L140.073 20.9169C140.23 22.7671 140.91 24.2832 142.14 25.4909C143.37 26.6987 145.567 27.2897 148.733 27.2897C150.538 27.2897 152.056 27.0328 153.233 26.5188C154.41 26.0049 155.352 25.2597 156.006 24.2575C156.66 23.281 157 22.2017 157 21.0197C157 20.0175 156.765 19.0924 156.268 18.2958C155.771 17.4992 154.986 16.8054 153.887 16.2658C152.788 15.7261 150.983 15.1865 148.471 14.6469C147.451 14.4413 146.797 14.21 146.535 13.9787C146.248 13.7475 146.117 13.4648 146.117 13.1821C146.117 12.771 146.274 12.4369 146.614 12.1543C146.954 11.8716 147.451 11.7431 148.131 11.7431C148.942 11.7431 149.57 11.923 150.041 12.3085C150.512 12.6939 150.8 13.2849 150.957 14.1072L156.399 13.7989C156.163 11.8973 155.431 10.5097 154.175 9.63598C152.945 8.76229 151.114 8.32544 148.733 8.32544C146.797 8.32544 145.28 8.55671 144.155 9.04495C143.03 9.53319 142.192 10.1756 141.643 11.0236C141.094 11.8716 140.806 12.7453 140.806 13.6961C140.806 15.1351 141.355 16.3172 142.428 17.2422C143.527 18.1673 145.306 18.9125 147.843 19.4779C149.387 19.8119 150.381 20.146 150.8 20.5314C151.218 20.9169 151.428 21.3537 151.428 21.8163C151.428 22.3045 151.192 22.7414 150.747 23.1268Z" fill="#76767C"/>
</svg>
