<svg width="80" height="80" viewBox="0 0 80 80" fill="none" xmlns="http://www.w3.org/2000/svg">
<g clip-path="url(#clip0_4014_29418)">
<path d="M27 47.93L29.28 41.56L33.83 35.19H42.48L48.4 41.56L50.22 54.76L44.76 64.32H34.74L28.37 60.22L27 47.93Z" fill="#FF3C19"/>
<path d="M32.28 76.22L31.79 76.16L17.17 71.44L16.7 71.17L13.4 68.1L13 67.18V45.48L13.17 44.85L16.35 39.4L17.5 30.92L18 30.08L24.69 25.19L26.17 27.21L19.91 31.78L18.8 39.98L18.64 40.44L15.51 45.81V66.63L18.21 69.14L32.33 73.69L56.05 71.62L64.81 65.71L61.39 61.34L61.12 60.57V41.76L55.48 30.48L50.65 26.68L52.19 24.72L57.24 28.69L57.59 29.11L63.49 40.9L63.62 41.46V60.13L67.6 65.21L67.31 67.02L57.17 73.86L56.58 74.07L32.29 76.19L32.28 76.22ZM37.42 59.52L37.39 57.14L37.24 57.12L32.8 54.01L34.23 51.96L38.12 54.68L42.27 53.04L41.83 51.17L38.83 50.81L38.46 50.7L34.63 48.94L33.94 48.12L33.37 45.94L33.92 44.56L37.33 42.42L37.09 39.84L39.58 39.61L39.78 41.8H39.89L43.77 44.92L42.21 46.87L39.02 44.31L36.02 46.19L36.21 46.91L39.32 48.34L42.99 48.78L44.06 49.74L44.95 53.51L44.19 54.96L39.88 56.67L39.92 59.47L37.42 59.51V59.52ZM39.17 27.32L33.95 26.83L27.12 25.01L27.76 22.59L34.49 24.38L39.2 24.81L49.48 22.57L50.01 25.01L39.54 27.29L39.16 27.31L39.17 27.32ZM42.64 22.14L40.48 20.88L41.92 18.42L41.27 13.42L41.43 12.63L44.02 8.15001L46.18 9.40001L43.8 13.51L44.45 18.51L44.29 19.3L42.64 22.13V22.14ZM34.66 22.03L33.8 16.27L30.48 10.28L32.67 9.07001L36.1 15.26L36.24 15.68L37.13 21.66L34.66 22.03ZM47.18 21.82L46.72 20L46.82 19.12L48.85 15.26L53.72 8.77001H49.85L49.06 8.48001L45.52 5.57001L37.62 7.32001L37.23 7.34001L27.31 6.41001L24.64 8.13001L23.16 8.61001L27.37 13.93L27.62 14.5L28.62 20.5L26.15 20.91L25.2 15.23L20.11 8.77001L20.7 6.81001L23.72 5.82001L26.31 4.09001L27.12 3.89001L37.29 4.85001L45.59 3.01001L46.66 3.27001L50.32 6.29001H56.24L57.24 8.29001L50.93 16.7L49.27 19.88L49.61 21.24L47.18 21.85V21.82Z" fill="#1E1E1E"/>
</g>
<defs>
<clipPath id="clip0_4014_29418">
<rect width="54.59" height="73.22" fill="white" transform="translate(13 3)"/>
</clipPath>
</defs>
</svg>
