<svg width="80" height="80" viewBox="0 0 80 80" fill="none" xmlns="http://www.w3.org/2000/svg">
<g clip-path="url(#clip0_4014_29423)">
<path fill-rule="evenodd" clip-rule="evenodd" d="M49.0513 11.5L49.7213 5.48999L52.5813 6.38999L68.4013 25.33L70.8013 30.04L70.7413 31.94L67.0213 30.5L61.4412 27.68L56.3313 27.16H49.8713L49.1012 24.34L48.7812 16.46L49.0513 11.52V11.5Z" fill="#FF3C19"/>
<path d="M33.24 79.64L9.47 79.58L8.22 78.33L8.24 68.08L8.22 48.81L8.87 29.96L8 10.79L10.5 10.68L11.37 29.95L10.72 48.85L10.74 68.08L10.72 77.09L33.23 77.15L66.6 77.01V79.51L33.23 79.65L33.24 79.64ZM14.37 74.73L13.11 73.45L13.39 60.94L13.88 34.83L12.54 7.73L13.76 6.42L20.81 6.25H29.26V8.74H20.84L15.1 8.88L16.38 34.78L15.9 60.98L15.64 72.2L40.64 71.95L68.82 71.93L68.48 50.85L68.85 33.92L71.35 33.97L70.98 50.85L71.35 73.15L70.1 74.42L40.67 74.44L14.39 74.7L14.37 74.73ZM31.19 60.48L23.9 60.17L24.01 57.67L31.21 57.97L40.09 57.1H40.35L45.42 57.65L58.05 56.99L58.18 59.49L45.45 60.16H45.25L40.21 59.61L31.19 60.48ZM50.88 53.12H50.71L41.87 52.25L36.63 52.8L23.9 52.13L24.03 49.63L36.66 50.29L41.98 49.74L50.86 50.61L58.06 50.31L58.17 52.81L50.88 53.12ZM31.19 44.35L23.9 44.04L24.01 41.54L31.21 41.84L40.09 40.97H40.35L45.42 41.52L58.05 40.86L58.18 43.36L45.45 44.03H45.25L40.21 43.48L31.19 44.35ZM24.04 35.59L23.74 33.11L30.67 32.29L38.1 32.94L37.88 35.43L30.58 34.8L24.04 35.6V35.59ZM31.45 23.74L28.88 22.78L28.13 22.01L27.24 19.2L26.84 11.4L29.34 11.27L29.73 18.9L30.31 20.65L31.52 21.1L32.69 19.79L31.98 9.15L31.24 4.07L28.49 3.51L25.68 4.32L24.99 1.92L28.09 1.02L28.69 1L32.6 1.8L33.59 2.85L34.47 8.9L35.23 20.16L34.92 21.08L32.83 23.42L31.46 23.76L31.45 23.74ZM36.54 8.75V6.25L47.7 6.23V8.73L36.54 8.75Z" fill="#1E1E1E"/>
</g>
<defs>
<clipPath id="clip0_4014_29423">
<rect width="63.33" height="78.64" fill="white" transform="translate(8 1)"/>
</clipPath>
</defs>
</svg>
