<svg width="80" height="81" viewBox="0 0 80 81" fill="none" xmlns="http://www.w3.org/2000/svg">
<path d="M66.119 37.1074L17.0767 36.8699L14.8148 24.01L13.1953 9.20327L41.2665 8.71265L68.3752 9.2021L67.4031 24.7421L66.119 37.1074Z" fill="#FF3C19"/>
<path d="M49.0683 18.7283L50.4318 16.6925L52.1569 16.1885L53.5886 16.4569L55.046 17.5894L55.7241 19.1168M10.2126 38.7621L6.93093 9.29013L8.33373 4.81445L12.935 3.42203L68.9758 3.39837L73.9288 5.1703L75.1149 9.20327L72.438 38.7612M9.57515 41.8277L4.57824 72.0464L5.76954 76.4612L9.9741 77.232L73.2676 76.8508L77.0062 75.5484L77.8655 72.5813L72.6571 42.1562M43.2169 14.0783L45.8529 22.3045L45.7132 24.3162L41.954 25.2612M29.8669 20.962L31.9213 18.1423L34.0308 17.1827L36.0947 17.5678L37.4077 18.5836L38.4825 20.2229M37.7131 29.2723L41.0782 31.3263L47.2104 31.0844L48.9762 29.9834L50.3115 28.3902M30.9818 61.9455L30.4615 72.6211M54.3756 61.3266L55.1036 72.4664M14.0629 43.3327L18.3157 43.7443L23.5288 42.784L26.5468 43.4699L33.9547 42.784M36.6984 44.0186L43.832 42.9211L49.3193 43.8814M53.0233 42.5096L58.6478 43.3327L64.1352 43.0583L68.3879 43.8814M68.3883 49.5783L64.1355 49.9898L58.9225 49.0295M55.9044 49.7154L48.4965 49.0295L45.7528 50.2641L38.6193 49.1667L33.1319 50.1269L29.428 48.7551L23.8034 49.5782M18.3161 49.3039L14.0634 50.127M11.3024 55.8238L15.9517 56.2354L21.6509 55.2751L24.9504 55.961L33.049 55.2751M36.0486 56.5097L43.8473 55.4122L49.8463 56.3725M53.8957 55.0007L60.0447 55.8238L66.0437 55.5494L70.693 56.3725" stroke="#1E1E1E" stroke-width="2.5"/>
</svg>
