<svg width="258" height="69" viewBox="0 0 258 69" fill="none" xmlns="http://www.w3.org/2000/svg">
<path d="M31.9618 68.403C30.6444 68.4525 29.8322 67.9969 29.5252 67.0411C29.2181 66.0852 29.1785 64.9858 29.4014 63.7377C29.6242 62.4897 29.9709 61.2565 30.4315 60.0283C30.897 58.8051 31.2685 57.9136 31.5458 57.3589L32.041 56.1604C29.1686 56.3882 26.311 56.5071 23.4584 56.5219C20.6107 56.5368 17.7382 56.418 14.8509 56.1604C14.3656 56.1159 13.5237 56.0416 12.3202 55.9376C11.1168 55.8286 9.99749 55.6008 8.96737 55.2442C7.93229 54.8876 7.19437 54.4023 6.7536 53.7832C6.31283 53.1642 6.58026 52.3272 7.56086 51.2624C8.08087 50.7622 8.6405 50.5146 9.24471 50.5195C9.84396 50.5294 10.4779 50.579 11.1415 50.673C12.3499 50.9306 13.5732 51.1138 14.8064 51.2178C16.0395 51.3218 17.2876 51.411 18.5504 51.4853C23.9685 51.9508 29.4212 51.8369 34.9184 51.1485C35.8792 49.6033 36.8747 48.0879 37.8998 46.5972C38.925 45.1114 40.0096 43.6504 41.1586 42.2191C41.4458 41.8477 42.1441 40.9612 43.2634 39.5596C44.3827 38.1581 45.7 36.5832 47.2254 34.835C48.7508 33.0867 50.3801 31.3088 52.1135 29.4912C53.8469 27.6737 55.5109 26.1334 57.1155 24.8656C58.7152 23.5978 60.1415 22.7608 61.3846 22.3497C62.6277 21.9387 63.5092 22.2705 64.0292 23.3402C64.3511 23.994 64.3313 24.6576 63.9698 25.3361C63.6033 26.0146 63.0882 26.6535 62.4197 27.2527C61.7511 27.852 61.0379 28.4066 60.2752 28.9167C59.5125 29.4318 58.9281 29.8726 58.527 30.249C56.3231 32.3241 54.2282 34.4833 52.2423 36.7318C50.2563 38.9802 48.3149 41.2881 46.4231 43.6504C45.5614 44.7102 44.7343 45.7948 43.932 46.9141C43.1346 48.0334 42.3323 49.1477 41.535 50.2669C45.289 49.5835 49.038 48.7218 52.7771 47.6768C58.7152 46.0672 64.5344 43.9674 70.2248 41.3673C75.9202 38.7722 81.1203 35.4837 85.8351 31.5019C86.7661 30.7442 87.7517 29.8627 88.7966 28.8573C89.8416 27.852 90.7876 26.7624 91.6443 25.5788C92.5011 24.4001 93.1895 23.1669 93.7145 21.8792C94.2345 20.5916 94.4128 19.2594 94.2394 17.8727L94.2444 17.9618C93.9869 15.7976 93.0905 14.0048 91.57 12.5784C90.0447 11.1571 88.2766 9.98334 86.2659 9.06218C84.2503 8.14102 82.1256 7.44767 79.8921 6.98708C77.6535 6.5265 75.6923 6.17488 74.0035 5.93716C68.3379 5.17942 62.6128 5.00113 56.8382 5.39238C51.0636 5.78858 45.3781 6.60078 39.7867 7.83396C35.0868 8.85417 30.382 10.2508 25.6771 12.0287C20.9722 13.8017 16.6685 16.2136 12.761 19.2544C11.2455 20.4579 9.86872 21.7951 8.63555 23.256C7.39743 24.722 6.42673 26.3711 5.71358 28.2135C5.38176 29.0108 4.89641 29.5903 4.24764 29.9419C3.59886 30.2985 2.95999 30.4273 2.32607 30.3282C1.69215 30.2292 1.187 29.9171 0.805654 29.3872C0.424312 28.8573 0.399548 28.1342 0.726412 27.2131C1.37519 25.2568 2.26664 23.4393 3.40571 21.7703C4.54479 20.0963 5.85225 18.5512 7.32809 17.1397C8.80393 15.7282 10.4085 14.4604 12.137 13.3362C13.8654 12.2169 15.6136 11.2017 17.3767 10.2904C21.9082 7.88844 26.6329 5.99163 31.5656 4.59998C36.4933 3.20832 41.4954 2.14849 46.5667 1.41552C51.9352 0.61322 57.3632 0.172444 62.8505 0.0882515C68.3379 0.00405902 73.7411 0.53398 79.06 1.66315C81.1153 2.06925 83.2647 2.66851 85.5181 3.46091C87.7665 4.25331 89.8614 5.26361 91.7929 6.49183C93.7293 7.72005 95.3736 9.23056 96.7305 11.0234C98.0875 12.8162 98.8997 14.916 99.1672 17.318C99.4693 20.6312 98.7858 23.6919 97.1218 26.4999C95.4578 29.3129 93.2836 31.8684 90.6093 34.1713C87.9349 36.4742 85.0674 38.4998 82.0167 40.2431C78.961 41.9864 76.1975 43.4474 73.7213 44.6261C62.4692 50.1778 50.603 53.8179 38.1277 55.5463C37.7859 56.0416 37.4739 56.5814 37.1966 57.1658C36.9193 57.7502 36.637 58.3197 36.3596 58.8744C35.9089 59.7361 35.5227 60.6127 35.1958 61.4992C34.8689 62.3857 34.6312 63.2871 34.4876 64.1983C34.3836 64.6242 34.3093 65.0799 34.2697 65.5652C34.2251 66.0506 34.1359 66.4913 34.0022 66.8875C33.8685 67.2837 33.6407 67.6255 33.3188 67.9077C33.0167 68.2297 32.5611 68.3832 31.9618 68.403Z" fill="#787877"/>
<path d="M195.707 34.5872L195.712 34.7556C195.682 35.0577 195.662 35.3598 195.623 35.6619C195.197 38.6087 192.874 40.7283 190.14 41.0205C186.926 41.3622 184.301 39.2723 183.524 36.6425C183.434 36.3355 183.355 36.0284 183.271 35.7213C183.256 35.3499 183.246 34.9785 183.231 34.612C183.246 34.5872 183.266 34.5674 183.271 34.5427C183.395 33.2847 183.979 32.2546 184.806 31.3334C185.242 30.8481 185.673 30.3528 186.054 29.8229C186.862 28.7037 187.208 27.4606 186.891 26.0788C186.832 25.8312 186.763 25.5885 186.678 25.2815C186.837 25.331 186.951 25.3558 187.05 25.4003C188.387 25.9996 189.209 27.0446 189.556 28.4461C189.739 29.194 189.803 29.9765 189.927 30.7391C189.942 30.8233 190.021 30.8927 190.066 30.9719C190.145 30.9075 190.229 30.8481 190.304 30.7788C190.323 30.759 190.318 30.7094 190.323 30.6698C190.492 29.8477 190.66 29.0256 190.829 28.2035C190.888 27.9113 190.952 27.624 191.022 27.2972C191.096 27.3615 191.131 27.3913 191.165 27.421C192.512 28.5947 193.617 29.9715 194.528 31.5018C194.954 32.215 195.335 32.9529 195.533 33.7701C195.603 34.0276 195.652 34.3049 195.707 34.5872Z" fill="#787877"/>
<path d="M64.6637 57.0469C65.8622 57.0617 66.6546 57.3985 67.0409 58.0473C67.4272 58.701 67.5708 59.4785 67.4866 60.3849C68.9922 59.0031 70.2253 57.4431 71.1812 55.7196C71.409 55.3482 71.617 54.947 71.8101 54.5161C72.0033 54.0853 72.2311 53.6841 72.4837 53.3127C72.7412 52.9412 73.0433 52.6441 73.3949 52.4163C73.7466 52.1934 74.1923 52.0993 74.7371 52.1389C75.6384 52.2281 76.2228 52.5995 76.4902 53.2533C76.7527 53.907 76.9013 54.5954 76.9261 55.3234C77.248 55.9177 78.0404 56.2941 79.3082 56.4575C80.576 56.6209 81.9726 56.6903 83.498 56.6655C85.0283 56.6408 86.4794 56.5566 87.8513 56.4129C89.2281 56.2693 90.1839 56.1901 90.7237 56.1703C91.2635 56.1505 91.8727 56.0811 92.5611 55.9672C93.2445 55.8484 93.9478 55.7493 94.6659 55.6602C95.384 55.576 96.0724 55.5611 96.736 55.6305C97.3997 55.6948 97.9742 55.9028 98.4694 56.2446C98.9597 56.5863 99.2915 57.0172 99.4599 57.5223C99.6283 58.0324 99.6332 58.5277 99.4698 59.018C99.3064 59.5083 99.039 59.9243 98.6626 60.2709C98.2862 60.6176 97.7959 60.8009 97.1966 60.8256C96.2457 61.103 95.2156 61.2169 94.1063 61.1673C92.992 61.1178 91.9618 61.1426 91.006 61.2367C89.3865 61.2961 87.772 61.3555 86.1526 61.415C84.5331 61.4744 82.9136 61.4744 81.2942 61.415C80.1501 61.3357 78.9467 61.1723 77.6739 60.9148C76.406 60.6622 75.2769 60.2214 74.2963 59.5924C73.6624 60.3997 73.0037 61.1971 72.3153 61.9746C71.6219 62.7571 70.9335 63.4901 70.2352 64.1834C69.5419 64.8768 68.8139 65.58 68.066 66.3031C67.3133 67.0261 66.4317 67.5263 65.4214 67.8037C64.1783 68.2147 63.0888 67.982 62.1577 67.1103C61.7219 66.6448 61.4644 66.1545 61.3851 65.6444C61.3059 65.1343 61.3306 64.6044 61.4594 64.0547C61.5882 63.5049 61.7516 62.9552 61.9398 62.4055C62.133 61.8557 62.3063 61.3357 62.4648 60.8454C62.1379 60.0728 62.1676 59.2557 62.5539 58.3939C62.9402 57.5372 63.6435 57.0865 64.6637 57.0469Z" fill="#787877"/>
<path d="M124.786 59.8054C121.73 59.9787 118.62 60.1669 115.451 60.3749C112.276 60.5829 109.151 60.3501 106.066 59.6667C105.828 59.6766 105.585 59.6221 105.343 59.5082C105.021 60.5581 104.53 61.5635 103.882 62.5243C103.228 63.4851 102.49 64.3121 101.678 65.0055C100.861 65.6988 99.9691 66.2139 98.9885 66.5556C98.0129 66.8924 97.0372 66.9617 96.0715 66.7537C95.1652 66.5457 94.4718 66.1198 94.0014 65.471C93.5259 64.8222 93.2436 64.0794 93.1545 63.2374C93.0653 62.3955 93.1347 61.5437 93.3773 60.677C93.6151 59.8103 93.9617 59.0328 94.4174 58.3394C95.1602 57.3291 96.121 56.5565 97.2997 56.0217C98.4784 55.4868 99.6769 55.3828 100.885 55.6997C100.974 54.8479 101.43 54.1694 102.252 53.6544C103.074 53.1393 103.971 53.169 104.956 53.7336C105.877 54.2437 106.863 54.6151 107.923 54.8479C108.983 55.0807 110.082 55.2094 111.221 55.2243C112.36 55.2441 113.484 55.2193 114.594 55.1451C115.698 55.0708 116.763 55.0163 117.783 54.9816C118.982 54.9371 120.264 54.8133 121.641 54.6152C123.013 54.4121 124.276 54.4715 125.43 54.7934C126.098 55.0163 126.579 55.3976 126.866 55.9424C127.153 56.4872 127.267 57.0369 127.198 57.5916C127.129 58.1463 126.891 58.6465 126.49 59.0922C126.069 59.5429 125.504 59.7806 124.786 59.8054ZM97.9584 61.9746C98.1317 61.7864 98.4883 61.6824 99.0281 61.6625L98.9984 60.8454C98.8845 60.9742 98.7062 61.1128 98.4735 61.2713C98.2407 61.4397 98.0674 61.6725 97.9584 61.9746Z" fill="#787877"/>
<path d="M155.511 29.2187C153.713 30.858 151.945 32.4775 150.202 34.0821C148.464 35.6867 146.75 37.3061 145.071 38.9405C146.81 38.8761 148.607 38.7968 150.46 38.6978C152.317 38.5987 154.189 38.5591 156.081 38.5789C157.973 38.5988 159.805 38.7424 161.588 39.0098C163.366 39.2772 165.05 39.7428 166.634 40.4064C167.303 40.6838 167.887 41.0849 168.388 41.6099C168.888 42.1348 169.21 42.8183 169.363 43.6602C169.452 44.4427 169.279 45.0667 168.848 45.5372C168.417 46.0077 167.897 46.2949 167.303 46.4088C166.709 46.5227 166.134 46.4534 165.585 46.2008C165.035 45.9482 164.658 45.4976 164.455 44.8389C163.475 44.2743 162.247 43.9574 160.776 43.888C159.3 43.8236 158.086 43.7493 157.121 43.6602C155.377 43.5413 153.649 43.4571 151.935 43.3977C150.222 43.3432 148.498 43.3135 146.76 43.3185C145.74 43.2987 144.735 43.2888 143.744 43.2937C142.754 43.3036 141.748 43.3234 140.733 43.3581L139.866 44.205C137.494 46.6465 134.998 49.2912 132.373 52.1389C129.748 54.9866 127.718 58.0026 126.277 61.197C128.357 60.6373 130.382 59.8549 132.353 58.8445C134.324 57.8342 136.315 56.9329 138.326 56.1306C139.51 55.6651 140.708 55.2441 141.926 54.8677C143.14 54.4913 144.378 54.2189 145.631 54.0505C146.166 53.9713 146.711 54.0109 147.255 54.1694C147.8 54.3328 148.261 54.5854 148.632 54.9321C149.004 55.2788 149.246 55.7096 149.355 56.2197C149.464 56.7298 149.321 57.2944 148.924 57.9135C148.469 58.5969 147.765 58.9832 146.81 59.0773C145.854 59.1714 145.017 59.3249 144.309 59.533C142.704 59.8945 141.129 60.4046 139.594 61.0682C138.059 61.7269 136.523 62.4202 134.993 63.1433C133.458 63.8664 131.809 64.6192 130.036 65.4116C128.267 66.204 126.48 66.6002 124.682 66.6051C122.701 66.5556 121.483 66.0554 121.027 65.1095C120.571 64.1586 120.601 62.9353 121.116 61.4347C121.631 59.9341 122.458 58.3047 123.592 56.5416C124.726 54.7785 125.94 53.0898 127.227 51.4703C128.52 49.8508 129.709 48.4344 130.803 47.2161C131.898 45.9978 132.621 45.2004 132.967 44.824C133.195 44.5764 133.398 44.3387 133.572 44.1208C133.745 43.9029 133.948 43.6998 134.181 43.5067C132.442 43.571 130.734 43.6354 129.06 43.6949C127.381 43.7592 125.677 43.8533 123.939 43.9772C120.472 44.2248 117.015 44.5219 113.578 44.8587C110.141 45.2004 106.694 45.6115 103.233 46.1018C101.98 46.3296 100.746 46.5426 99.5232 46.7357C98.2999 46.9338 97.0668 47.2062 95.8187 47.5529C95.5216 47.6222 95.1947 47.7262 94.8381 47.8599C94.4816 47.9936 94.1547 48.0085 93.8476 47.8946C93.1791 47.6767 92.8472 47.2508 92.8571 46.6168C92.8671 45.9829 93.1642 45.562 93.7535 45.3589C100.87 43.165 108.23 41.6842 115.817 40.9165C123.409 40.1538 130.917 39.5744 138.341 39.1782C139.846 37.6726 141.347 36.1968 142.858 34.7507C144.363 33.3045 145.898 31.8584 147.468 30.4123C148.221 29.6595 149.098 28.7086 150.108 27.5497C151.113 26.3958 152.153 25.648 153.218 25.3062C153.808 25.1032 154.337 25.0982 154.793 25.2914C155.249 25.4845 155.605 25.8064 155.863 26.2472C156.12 26.688 156.229 27.1832 156.19 27.728C156.135 28.2926 155.912 28.7829 155.511 29.2187ZM164.827 45.0964C164.703 44.9825 164.609 44.9231 164.549 44.9231C164.559 45.0469 164.649 45.1014 164.827 45.0964Z" fill="#787877"/>
<path d="M189.402 57.4133C188.025 57.5867 186.673 57.864 185.336 58.2453C183.999 58.6267 182.647 58.9932 181.28 59.3448C177.714 60.3254 174.178 61.2565 170.672 62.138C167.165 63.0195 163.59 63.7129 159.95 64.2131C158.994 64.3716 157.993 64.4954 156.948 64.5944C155.903 64.6935 154.853 64.7034 153.799 64.6192C152.744 64.535 151.733 64.3468 150.763 64.0497C149.792 63.7525 148.905 63.287 148.103 62.6531C147.425 62.1331 146.875 61.5189 146.459 60.8107C146.043 60.1025 145.775 59.3547 145.657 58.5722C145.538 57.7947 145.587 57.0221 145.795 56.2594C146.008 55.4967 146.434 54.8034 147.068 54.1744C147.469 53.7386 148.133 53.3671 149.049 53.0601C149.965 52.753 150.995 52.5203 152.13 52.3568C153.264 52.1934 154.398 52.1241 155.542 52.1389C156.681 52.1587 157.676 52.3321 158.533 52.6639C159.385 52.9957 159.989 53.4711 160.341 54.0902C160.692 54.7093 160.678 55.5116 160.296 56.4922C159.964 57.2301 159.444 57.765 158.736 58.0918C158.028 58.4187 157.226 58.6465 156.329 58.7703C155.433 58.8941 154.507 58.9288 153.546 58.8743C152.585 58.8198 151.743 58.7456 151.02 58.6515C151.268 58.8842 151.753 59.0625 152.481 59.1863C153.204 59.3101 153.972 59.3894 154.784 59.4191C155.596 59.4488 156.344 59.4538 157.033 59.424C157.721 59.3993 158.157 59.3844 158.335 59.3745C161.262 59.0229 164.164 58.493 167.051 57.7848C169.934 57.0766 172.801 56.3337 175.654 55.5611C177.734 55.0015 179.794 54.427 181.845 53.8376C183.89 53.2483 185.96 52.7926 188.05 52.4757C188.946 52.3816 189.704 52.5648 190.318 53.0254C190.932 53.486 191.343 54.0308 191.546 54.6548C191.75 55.2838 191.695 55.8731 191.388 56.4278C191.081 56.9874 190.417 57.3143 189.402 57.4133Z" fill="#787877"/>
<path d="M189.041 52.4411C189.823 52.4708 190.428 52.6491 190.858 52.9611C191.289 53.278 191.591 53.6891 191.76 54.1942C191.928 54.7044 191.993 55.259 191.958 55.8632C191.918 56.4674 191.854 57.0766 191.755 57.6808C192.29 57.5421 192.81 57.448 193.32 57.3936C193.83 57.344 194.261 57.2549 194.617 57.1212C196.098 56.7052 197.614 56.195 199.149 55.5958C201.1 54.8579 203.071 54.1348 205.052 53.4266C207.033 52.7184 209.069 52.1786 211.154 51.7972C211.748 51.713 212.397 51.7527 213.095 51.9062C213.789 52.0597 214.373 52.342 214.838 52.7481C215.304 53.1542 215.562 53.6445 215.611 54.214C215.661 54.7885 215.309 55.3878 214.551 56.0217C214.14 56.3387 213.714 56.5071 213.264 56.5219C212.813 56.5368 212.352 56.5863 211.872 56.6655C210.976 56.8191 210.084 57.0023 209.193 57.2202C208.301 57.4332 207.439 57.6758 206.612 57.9482C204.834 58.498 203.066 59.0774 201.323 59.6866C199.575 60.2957 197.846 60.9346 196.128 61.5982C195.123 61.9994 193.954 62.4501 192.622 62.9503C191.289 63.4505 190.046 63.5446 188.897 63.2226C188.169 62.9453 187.629 62.559 187.278 62.0588C186.931 61.5586 186.698 60.994 186.584 60.3651C186.471 59.7361 186.461 59.0873 186.56 58.4187C186.654 57.7501 186.783 57.1113 186.941 56.5021C186.688 56.1505 186.55 55.7345 186.535 55.2491C186.515 54.7687 186.589 54.328 186.758 53.9268C186.921 53.5306 187.194 53.1839 187.575 52.8967C187.951 52.6194 188.442 52.4658 189.041 52.4411Z" fill="#787877"/>
<path d="M212.401 51.5792C212.882 51.5594 213.347 51.6188 213.803 51.7525C214.258 51.8862 214.64 52.1289 214.957 52.4805C215.521 53.1243 215.799 53.7335 215.789 54.308C215.779 54.8825 215.635 55.4471 215.358 56.0018C216.903 55.6452 218.448 55.2242 219.988 54.7438C221.529 54.2634 223.069 53.783 224.614 53.3026C225.327 53.0946 226.095 52.8569 226.927 52.5845C227.759 52.3121 228.601 52.0992 229.468 51.9457C230.329 51.7921 231.196 51.7178 232.068 51.7129C232.934 51.7129 233.737 51.8763 234.47 52.2131C235.505 52.6588 236.129 53.2085 236.332 53.8672C236.535 54.5259 236.5 55.2193 236.228 55.9572C237.055 55.6848 237.887 55.4273 238.719 55.1846C239.551 54.9419 240.378 54.6547 241.205 54.3228C242.805 53.783 244.419 53.2234 246.049 52.6489C247.678 52.0744 249.322 51.5148 250.981 50.97C251.749 50.7026 252.655 50.4104 253.695 50.0984C254.73 49.7864 255.651 49.8904 256.449 50.4054C256.939 50.7472 257.256 51.178 257.395 51.6832C257.533 52.1933 257.538 52.7034 257.405 53.2234C257.271 53.7434 257.003 54.1743 256.597 54.521C256.191 54.8676 255.716 55.0509 255.176 55.0707C252.908 55.3381 250.62 55.9621 248.317 56.9576C246.014 57.9481 243.795 58.8148 241.666 59.5626C241.012 59.7656 240.259 60.038 239.402 60.3699C238.545 60.7017 237.669 61.0087 236.782 61.2811C235.891 61.5535 234.999 61.7367 234.103 61.8358C233.207 61.9299 232.394 61.8358 231.661 61.5634C230.81 61.2316 230.201 60.6373 229.839 59.7756C229.477 58.9138 229.398 58.0224 229.606 57.1111C228.294 57.2795 227.011 57.542 225.763 57.8887C224.515 58.2353 223.267 58.5869 222.024 58.9336C221.192 59.206 220.32 59.5131 219.404 59.8449C218.488 60.1817 217.567 60.5184 216.65 60.8502C215.729 61.187 214.813 61.4643 213.892 61.6773C212.966 61.8903 212.06 61.9844 211.158 61.9596C210.618 61.92 210.069 61.7565 209.519 61.4743C208.781 61.0186 208.345 60.5234 208.202 59.9836C208.063 59.4437 208.088 58.899 208.276 58.3492C208.464 57.7995 208.746 57.2448 209.113 56.6852C209.484 56.1305 209.836 55.6006 210.178 55.1054C209.91 54.3328 209.955 53.5602 210.316 52.7876C210.698 52.0199 211.386 51.6138 212.401 51.5792Z" fill="#787877"/>
</svg>
